G04 #@! TF.GenerationSoftware,KiCad,Pcbnew,(5.1.5)-3*
G04 #@! TF.CreationDate,2020-03-06T21:22:36+08:00*
G04 #@! TF.ProjectId,Misaka,4d697361-6b61-42e6-9b69-6361645f7063,rev?*
G04 #@! TF.SameCoordinates,Original*
G04 #@! TF.FileFunction,Soldermask,Bot*
G04 #@! TF.FilePolarity,Negative*
%FSLAX46Y46*%
G04 Gerber Fmt 4.6, Leading zero omitted, Abs format (unit mm)*
G04 Created by KiCad (PCBNEW (5.1.5)-3) date 2020-03-06 21:22:36*
%MOMM*%
%LPD*%
G04 APERTURE LIST*
%ADD10C,0.100000*%
G04 APERTURE END LIST*
D10*
G36*
X53379499Y-113178445D02*
G01*
X53416995Y-113189820D01*
X53451554Y-113208292D01*
X53481847Y-113233153D01*
X53506708Y-113263446D01*
X53525180Y-113298005D01*
X53536555Y-113335501D01*
X53541000Y-113380638D01*
X53541000Y-114019362D01*
X53536555Y-114064499D01*
X53525180Y-114101995D01*
X53506708Y-114136554D01*
X53481847Y-114166847D01*
X53451554Y-114191708D01*
X53416995Y-114210180D01*
X53379499Y-114221555D01*
X53334362Y-114226000D01*
X52595638Y-114226000D01*
X52550501Y-114221555D01*
X52513005Y-114210180D01*
X52478446Y-114191708D01*
X52448153Y-114166847D01*
X52423292Y-114136554D01*
X52404820Y-114101995D01*
X52393445Y-114064499D01*
X52389000Y-114019362D01*
X52389000Y-113380638D01*
X52393445Y-113335501D01*
X52404820Y-113298005D01*
X52423292Y-113263446D01*
X52448153Y-113233153D01*
X52478446Y-113208292D01*
X52513005Y-113189820D01*
X52550501Y-113178445D01*
X52595638Y-113174000D01*
X53334362Y-113174000D01*
X53379499Y-113178445D01*
G37*
G36*
X51629499Y-113178445D02*
G01*
X51666995Y-113189820D01*
X51701554Y-113208292D01*
X51731847Y-113233153D01*
X51756708Y-113263446D01*
X51775180Y-113298005D01*
X51786555Y-113335501D01*
X51791000Y-113380638D01*
X51791000Y-114019362D01*
X51786555Y-114064499D01*
X51775180Y-114101995D01*
X51756708Y-114136554D01*
X51731847Y-114166847D01*
X51701554Y-114191708D01*
X51666995Y-114210180D01*
X51629499Y-114221555D01*
X51584362Y-114226000D01*
X50845638Y-114226000D01*
X50800501Y-114221555D01*
X50763005Y-114210180D01*
X50728446Y-114191708D01*
X50698153Y-114166847D01*
X50673292Y-114136554D01*
X50654820Y-114101995D01*
X50643445Y-114064499D01*
X50639000Y-114019362D01*
X50639000Y-113380638D01*
X50643445Y-113335501D01*
X50654820Y-113298005D01*
X50673292Y-113263446D01*
X50698153Y-113233153D01*
X50728446Y-113208292D01*
X50763005Y-113189820D01*
X50800501Y-113178445D01*
X50845638Y-113174000D01*
X51584362Y-113174000D01*
X51629499Y-113178445D01*
G37*
G36*
X62369059Y-112437860D02*
G01*
X62505732Y-112494472D01*
X62628735Y-112576660D01*
X62733340Y-112681265D01*
X62733341Y-112681267D01*
X62815529Y-112804270D01*
X62872140Y-112940941D01*
X62901000Y-113086032D01*
X62901000Y-113233968D01*
X62889679Y-113290885D01*
X62872140Y-113379059D01*
X62815528Y-113515732D01*
X62733340Y-113638735D01*
X62628735Y-113743340D01*
X62505732Y-113825528D01*
X62505731Y-113825529D01*
X62505730Y-113825529D01*
X62369059Y-113882140D01*
X62223968Y-113911000D01*
X62076032Y-113911000D01*
X61930941Y-113882140D01*
X61794270Y-113825529D01*
X61794269Y-113825529D01*
X61794268Y-113825528D01*
X61671265Y-113743340D01*
X61566660Y-113638735D01*
X61484472Y-113515732D01*
X61427860Y-113379059D01*
X61410321Y-113290885D01*
X61399000Y-113233968D01*
X61399000Y-113086032D01*
X61427860Y-112940941D01*
X61484471Y-112804270D01*
X61566659Y-112681267D01*
X61566660Y-112681265D01*
X61671265Y-112576660D01*
X61794268Y-112494472D01*
X61930941Y-112437860D01*
X62076032Y-112409000D01*
X62223968Y-112409000D01*
X62369059Y-112437860D01*
G37*
G36*
X73369059Y-112437860D02*
G01*
X73505732Y-112494472D01*
X73628735Y-112576660D01*
X73733340Y-112681265D01*
X73733341Y-112681267D01*
X73815529Y-112804270D01*
X73872140Y-112940941D01*
X73901000Y-113086032D01*
X73901000Y-113233968D01*
X73889679Y-113290885D01*
X73872140Y-113379059D01*
X73815528Y-113515732D01*
X73733340Y-113638735D01*
X73628735Y-113743340D01*
X73505732Y-113825528D01*
X73505731Y-113825529D01*
X73505730Y-113825529D01*
X73369059Y-113882140D01*
X73223968Y-113911000D01*
X73076032Y-113911000D01*
X72930941Y-113882140D01*
X72794270Y-113825529D01*
X72794269Y-113825529D01*
X72794268Y-113825528D01*
X72671265Y-113743340D01*
X72566660Y-113638735D01*
X72484472Y-113515732D01*
X72427860Y-113379059D01*
X72410321Y-113290885D01*
X72399000Y-113233968D01*
X72399000Y-113086032D01*
X72427860Y-112940941D01*
X72484471Y-112804270D01*
X72566659Y-112681267D01*
X72566660Y-112681265D01*
X72671265Y-112576660D01*
X72794268Y-112494472D01*
X72930941Y-112437860D01*
X73076032Y-112409000D01*
X73223968Y-112409000D01*
X73369059Y-112437860D01*
G37*
G36*
X47789499Y-109408445D02*
G01*
X47826995Y-109419820D01*
X47861554Y-109438292D01*
X47891847Y-109463153D01*
X47916708Y-109493446D01*
X47935180Y-109528005D01*
X47946555Y-109565501D01*
X47951000Y-109610638D01*
X47951000Y-110249362D01*
X47946555Y-110294499D01*
X47935180Y-110331995D01*
X47916708Y-110366554D01*
X47891847Y-110396847D01*
X47861554Y-110421708D01*
X47826995Y-110440180D01*
X47789499Y-110451555D01*
X47744362Y-110456000D01*
X47005638Y-110456000D01*
X46960501Y-110451555D01*
X46923005Y-110440180D01*
X46888446Y-110421708D01*
X46858153Y-110396847D01*
X46833292Y-110366554D01*
X46814820Y-110331995D01*
X46803445Y-110294499D01*
X46799000Y-110249362D01*
X46799000Y-109610638D01*
X46803445Y-109565501D01*
X46814820Y-109528005D01*
X46833292Y-109493446D01*
X46858153Y-109463153D01*
X46888446Y-109438292D01*
X46923005Y-109419820D01*
X46960501Y-109408445D01*
X47005638Y-109404000D01*
X47744362Y-109404000D01*
X47789499Y-109408445D01*
G37*
G36*
X49539499Y-109408445D02*
G01*
X49576995Y-109419820D01*
X49611554Y-109438292D01*
X49641847Y-109463153D01*
X49666708Y-109493446D01*
X49685180Y-109528005D01*
X49696555Y-109565501D01*
X49701000Y-109610638D01*
X49701000Y-110249362D01*
X49696555Y-110294499D01*
X49685180Y-110331995D01*
X49666708Y-110366554D01*
X49641847Y-110396847D01*
X49611554Y-110421708D01*
X49576995Y-110440180D01*
X49539499Y-110451555D01*
X49494362Y-110456000D01*
X48755638Y-110456000D01*
X48710501Y-110451555D01*
X48673005Y-110440180D01*
X48638446Y-110421708D01*
X48608153Y-110396847D01*
X48583292Y-110366554D01*
X48564820Y-110331995D01*
X48553445Y-110294499D01*
X48549000Y-110249362D01*
X48549000Y-109610638D01*
X48553445Y-109565501D01*
X48564820Y-109528005D01*
X48583292Y-109493446D01*
X48608153Y-109463153D01*
X48638446Y-109438292D01*
X48673005Y-109419820D01*
X48710501Y-109408445D01*
X48755638Y-109404000D01*
X49494362Y-109404000D01*
X49539499Y-109408445D01*
G37*
G36*
X47919499Y-107028445D02*
G01*
X47956995Y-107039820D01*
X47991554Y-107058292D01*
X48021847Y-107083153D01*
X48046708Y-107113446D01*
X48065180Y-107148005D01*
X48076555Y-107185501D01*
X48081000Y-107230638D01*
X48081000Y-107869362D01*
X48076555Y-107914499D01*
X48065180Y-107951995D01*
X48046708Y-107986554D01*
X48021847Y-108016847D01*
X47991554Y-108041708D01*
X47956995Y-108060180D01*
X47919499Y-108071555D01*
X47874362Y-108076000D01*
X47135638Y-108076000D01*
X47090501Y-108071555D01*
X47053005Y-108060180D01*
X47018446Y-108041708D01*
X46988153Y-108016847D01*
X46963292Y-107986554D01*
X46944820Y-107951995D01*
X46933445Y-107914499D01*
X46929000Y-107869362D01*
X46929000Y-107230638D01*
X46933445Y-107185501D01*
X46944820Y-107148005D01*
X46963292Y-107113446D01*
X46988153Y-107083153D01*
X47018446Y-107058292D01*
X47053005Y-107039820D01*
X47090501Y-107028445D01*
X47135638Y-107024000D01*
X47874362Y-107024000D01*
X47919499Y-107028445D01*
G37*
G36*
X46169499Y-107028445D02*
G01*
X46206995Y-107039820D01*
X46241554Y-107058292D01*
X46271847Y-107083153D01*
X46296708Y-107113446D01*
X46315180Y-107148005D01*
X46326555Y-107185501D01*
X46331000Y-107230638D01*
X46331000Y-107869362D01*
X46326555Y-107914499D01*
X46315180Y-107951995D01*
X46296708Y-107986554D01*
X46271847Y-108016847D01*
X46241554Y-108041708D01*
X46206995Y-108060180D01*
X46169499Y-108071555D01*
X46124362Y-108076000D01*
X45385638Y-108076000D01*
X45340501Y-108071555D01*
X45303005Y-108060180D01*
X45268446Y-108041708D01*
X45238153Y-108016847D01*
X45213292Y-107986554D01*
X45194820Y-107951995D01*
X45183445Y-107914499D01*
X45179000Y-107869362D01*
X45179000Y-107230638D01*
X45183445Y-107185501D01*
X45194820Y-107148005D01*
X45213292Y-107113446D01*
X45238153Y-107083153D01*
X45268446Y-107058292D01*
X45303005Y-107039820D01*
X45340501Y-107028445D01*
X45385638Y-107024000D01*
X46124362Y-107024000D01*
X46169499Y-107028445D01*
G37*
G36*
X57208048Y-103628122D02*
G01*
X57242387Y-103638539D01*
X57274036Y-103655456D01*
X57301778Y-103678222D01*
X57324544Y-103705964D01*
X57341461Y-103737613D01*
X57351878Y-103771952D01*
X57356000Y-103813807D01*
X57356000Y-105886193D01*
X57351878Y-105928048D01*
X57341461Y-105962387D01*
X57324544Y-105994036D01*
X57301778Y-106021778D01*
X57274036Y-106044544D01*
X57242387Y-106061461D01*
X57208048Y-106071878D01*
X57166193Y-106076000D01*
X55943807Y-106076000D01*
X55901952Y-106071878D01*
X55867613Y-106061461D01*
X55835964Y-106044544D01*
X55808222Y-106021778D01*
X55785456Y-105994036D01*
X55768539Y-105962387D01*
X55758122Y-105928048D01*
X55754000Y-105886193D01*
X55754000Y-103813807D01*
X55758122Y-103771952D01*
X55768539Y-103737613D01*
X55785456Y-103705964D01*
X55808222Y-103678222D01*
X55835964Y-103655456D01*
X55867613Y-103638539D01*
X55901952Y-103628122D01*
X55943807Y-103624000D01*
X57166193Y-103624000D01*
X57208048Y-103628122D01*
G37*
G36*
X53958048Y-103628122D02*
G01*
X53992387Y-103638539D01*
X54024036Y-103655456D01*
X54051778Y-103678222D01*
X54074544Y-103705964D01*
X54091461Y-103737613D01*
X54101878Y-103771952D01*
X54106000Y-103813807D01*
X54106000Y-105886193D01*
X54101878Y-105928048D01*
X54091461Y-105962387D01*
X54074544Y-105994036D01*
X54051778Y-106021778D01*
X54024036Y-106044544D01*
X53992387Y-106061461D01*
X53958048Y-106071878D01*
X53916193Y-106076000D01*
X52693807Y-106076000D01*
X52651952Y-106071878D01*
X52617613Y-106061461D01*
X52585964Y-106044544D01*
X52558222Y-106021778D01*
X52535456Y-105994036D01*
X52518539Y-105962387D01*
X52508122Y-105928048D01*
X52504000Y-105886193D01*
X52504000Y-103813807D01*
X52508122Y-103771952D01*
X52518539Y-103737613D01*
X52535456Y-103705964D01*
X52558222Y-103678222D01*
X52585964Y-103655456D01*
X52617613Y-103638539D01*
X52651952Y-103628122D01*
X52693807Y-103624000D01*
X53916193Y-103624000D01*
X53958048Y-103628122D01*
G37*
G36*
X70675331Y-101428211D02*
G01*
X71003092Y-101563974D01*
X71298070Y-101761072D01*
X71548928Y-102011930D01*
X71746026Y-102306908D01*
X71881789Y-102634669D01*
X71951000Y-102982616D01*
X71951000Y-103337384D01*
X71881789Y-103685331D01*
X71746026Y-104013092D01*
X71548928Y-104308070D01*
X71298070Y-104558928D01*
X71003092Y-104756026D01*
X70675331Y-104891789D01*
X70327384Y-104961000D01*
X69972616Y-104961000D01*
X69624669Y-104891789D01*
X69296908Y-104756026D01*
X69001930Y-104558928D01*
X68751072Y-104308070D01*
X68553974Y-104013092D01*
X68418211Y-103685331D01*
X68349000Y-103337384D01*
X68349000Y-102982616D01*
X68418211Y-102634669D01*
X68553974Y-102306908D01*
X68751072Y-102011930D01*
X69001930Y-101761072D01*
X69296908Y-101563974D01*
X69624669Y-101428211D01*
X69972616Y-101359000D01*
X70327384Y-101359000D01*
X70675331Y-101428211D01*
G37*
G36*
X66951000Y-104961000D02*
G01*
X63349000Y-104961000D01*
X63349000Y-101359000D01*
X66951000Y-101359000D01*
X66951000Y-104961000D01*
G37*
G36*
X46159499Y-103658445D02*
G01*
X46196995Y-103669820D01*
X46231554Y-103688292D01*
X46261847Y-103713153D01*
X46286708Y-103743446D01*
X46305180Y-103778005D01*
X46316555Y-103815501D01*
X46321000Y-103860638D01*
X46321000Y-104499362D01*
X46316555Y-104544499D01*
X46305180Y-104581995D01*
X46286708Y-104616554D01*
X46261847Y-104646847D01*
X46231554Y-104671708D01*
X46196995Y-104690180D01*
X46159499Y-104701555D01*
X46114362Y-104706000D01*
X45375638Y-104706000D01*
X45330501Y-104701555D01*
X45293005Y-104690180D01*
X45258446Y-104671708D01*
X45228153Y-104646847D01*
X45203292Y-104616554D01*
X45184820Y-104581995D01*
X45173445Y-104544499D01*
X45169000Y-104499362D01*
X45169000Y-103860638D01*
X45173445Y-103815501D01*
X45184820Y-103778005D01*
X45203292Y-103743446D01*
X45228153Y-103713153D01*
X45258446Y-103688292D01*
X45293005Y-103669820D01*
X45330501Y-103658445D01*
X45375638Y-103654000D01*
X46114362Y-103654000D01*
X46159499Y-103658445D01*
G37*
G36*
X44409499Y-103658445D02*
G01*
X44446995Y-103669820D01*
X44481554Y-103688292D01*
X44511847Y-103713153D01*
X44536708Y-103743446D01*
X44555180Y-103778005D01*
X44566555Y-103815501D01*
X44571000Y-103860638D01*
X44571000Y-104499362D01*
X44566555Y-104544499D01*
X44555180Y-104581995D01*
X44536708Y-104616554D01*
X44511847Y-104646847D01*
X44481554Y-104671708D01*
X44446995Y-104690180D01*
X44409499Y-104701555D01*
X44364362Y-104706000D01*
X43625638Y-104706000D01*
X43580501Y-104701555D01*
X43543005Y-104690180D01*
X43508446Y-104671708D01*
X43478153Y-104646847D01*
X43453292Y-104616554D01*
X43434820Y-104581995D01*
X43423445Y-104544499D01*
X43419000Y-104499362D01*
X43419000Y-103860638D01*
X43423445Y-103815501D01*
X43434820Y-103778005D01*
X43453292Y-103743446D01*
X43478153Y-103713153D01*
X43508446Y-103688292D01*
X43543005Y-103669820D01*
X43580501Y-103658445D01*
X43625638Y-103654000D01*
X44364362Y-103654000D01*
X44409499Y-103658445D01*
G37*
G36*
X59859499Y-100908445D02*
G01*
X59896995Y-100919820D01*
X59931554Y-100938292D01*
X59961847Y-100963153D01*
X59986708Y-100993446D01*
X60005180Y-101028005D01*
X60016555Y-101065501D01*
X60021000Y-101110638D01*
X60021000Y-101749362D01*
X60016555Y-101794499D01*
X60005180Y-101831995D01*
X59986708Y-101866554D01*
X59961847Y-101896847D01*
X59931554Y-101921708D01*
X59896995Y-101940180D01*
X59859499Y-101951555D01*
X59814362Y-101956000D01*
X59075638Y-101956000D01*
X59030501Y-101951555D01*
X58993005Y-101940180D01*
X58958446Y-101921708D01*
X58928153Y-101896847D01*
X58903292Y-101866554D01*
X58884820Y-101831995D01*
X58873445Y-101794499D01*
X58869000Y-101749362D01*
X58869000Y-101110638D01*
X58873445Y-101065501D01*
X58884820Y-101028005D01*
X58903292Y-100993446D01*
X58928153Y-100963153D01*
X58958446Y-100938292D01*
X58993005Y-100919820D01*
X59030501Y-100908445D01*
X59075638Y-100904000D01*
X59814362Y-100904000D01*
X59859499Y-100908445D01*
G37*
G36*
X58109499Y-100908445D02*
G01*
X58146995Y-100919820D01*
X58181554Y-100938292D01*
X58211847Y-100963153D01*
X58236708Y-100993446D01*
X58255180Y-101028005D01*
X58266555Y-101065501D01*
X58271000Y-101110638D01*
X58271000Y-101749362D01*
X58266555Y-101794499D01*
X58255180Y-101831995D01*
X58236708Y-101866554D01*
X58211847Y-101896847D01*
X58181554Y-101921708D01*
X58146995Y-101940180D01*
X58109499Y-101951555D01*
X58064362Y-101956000D01*
X57325638Y-101956000D01*
X57280501Y-101951555D01*
X57243005Y-101940180D01*
X57208446Y-101921708D01*
X57178153Y-101896847D01*
X57153292Y-101866554D01*
X57134820Y-101831995D01*
X57123445Y-101794499D01*
X57119000Y-101749362D01*
X57119000Y-101110638D01*
X57123445Y-101065501D01*
X57134820Y-101028005D01*
X57153292Y-100993446D01*
X57178153Y-100963153D01*
X57208446Y-100938292D01*
X57243005Y-100919820D01*
X57280501Y-100908445D01*
X57325638Y-100904000D01*
X58064362Y-100904000D01*
X58109499Y-100908445D01*
G37*
G36*
X50941000Y-101466000D02*
G01*
X47439000Y-101466000D01*
X47439000Y-91864000D01*
X50941000Y-91864000D01*
X50941000Y-101466000D01*
G37*
G36*
X52641000Y-101141000D02*
G01*
X51439000Y-101141000D01*
X51439000Y-92189000D01*
X52641000Y-92189000D01*
X52641000Y-101141000D01*
G37*
G36*
X46941000Y-101141000D02*
G01*
X45739000Y-101141000D01*
X45739000Y-92189000D01*
X46941000Y-92189000D01*
X46941000Y-101141000D01*
G37*
G36*
X58169499Y-98978445D02*
G01*
X58206995Y-98989820D01*
X58241554Y-99008292D01*
X58271847Y-99033153D01*
X58296708Y-99063446D01*
X58315180Y-99098005D01*
X58326555Y-99135501D01*
X58331000Y-99180638D01*
X58331000Y-99819362D01*
X58326555Y-99864499D01*
X58315180Y-99901995D01*
X58296708Y-99936554D01*
X58271847Y-99966847D01*
X58241554Y-99991708D01*
X58206995Y-100010180D01*
X58169499Y-100021555D01*
X58124362Y-100026000D01*
X57385638Y-100026000D01*
X57340501Y-100021555D01*
X57303005Y-100010180D01*
X57268446Y-99991708D01*
X57238153Y-99966847D01*
X57213292Y-99936554D01*
X57194820Y-99901995D01*
X57183445Y-99864499D01*
X57179000Y-99819362D01*
X57179000Y-99180638D01*
X57183445Y-99135501D01*
X57194820Y-99098005D01*
X57213292Y-99063446D01*
X57238153Y-99033153D01*
X57268446Y-99008292D01*
X57303005Y-98989820D01*
X57340501Y-98978445D01*
X57385638Y-98974000D01*
X58124362Y-98974000D01*
X58169499Y-98978445D01*
G37*
G36*
X59919499Y-98978445D02*
G01*
X59956995Y-98989820D01*
X59991554Y-99008292D01*
X60021847Y-99033153D01*
X60046708Y-99063446D01*
X60065180Y-99098005D01*
X60076555Y-99135501D01*
X60081000Y-99180638D01*
X60081000Y-99819362D01*
X60076555Y-99864499D01*
X60065180Y-99901995D01*
X60046708Y-99936554D01*
X60021847Y-99966847D01*
X59991554Y-99991708D01*
X59956995Y-100010180D01*
X59919499Y-100021555D01*
X59874362Y-100026000D01*
X59135638Y-100026000D01*
X59090501Y-100021555D01*
X59053005Y-100010180D01*
X59018446Y-99991708D01*
X58988153Y-99966847D01*
X58963292Y-99936554D01*
X58944820Y-99901995D01*
X58933445Y-99864499D01*
X58929000Y-99819362D01*
X58929000Y-99180638D01*
X58933445Y-99135501D01*
X58944820Y-99098005D01*
X58963292Y-99063446D01*
X58988153Y-99033153D01*
X59018446Y-99008292D01*
X59053005Y-98989820D01*
X59090501Y-98978445D01*
X59135638Y-98974000D01*
X59874362Y-98974000D01*
X59919499Y-98978445D01*
G37*
G36*
X43239499Y-98428445D02*
G01*
X43276995Y-98439820D01*
X43311554Y-98458292D01*
X43341847Y-98483153D01*
X43366708Y-98513446D01*
X43385180Y-98548005D01*
X43396555Y-98585501D01*
X43401000Y-98630638D01*
X43401000Y-99269362D01*
X43396555Y-99314499D01*
X43385180Y-99351995D01*
X43366708Y-99386554D01*
X43341847Y-99416847D01*
X43311554Y-99441708D01*
X43276995Y-99460180D01*
X43239499Y-99471555D01*
X43194362Y-99476000D01*
X42455638Y-99476000D01*
X42410501Y-99471555D01*
X42373005Y-99460180D01*
X42338446Y-99441708D01*
X42308153Y-99416847D01*
X42283292Y-99386554D01*
X42264820Y-99351995D01*
X42253445Y-99314499D01*
X42249000Y-99269362D01*
X42249000Y-98630638D01*
X42253445Y-98585501D01*
X42264820Y-98548005D01*
X42283292Y-98513446D01*
X42308153Y-98483153D01*
X42338446Y-98458292D01*
X42373005Y-98439820D01*
X42410501Y-98428445D01*
X42455638Y-98424000D01*
X43194362Y-98424000D01*
X43239499Y-98428445D01*
G37*
G36*
X41489499Y-98428445D02*
G01*
X41526995Y-98439820D01*
X41561554Y-98458292D01*
X41591847Y-98483153D01*
X41616708Y-98513446D01*
X41635180Y-98548005D01*
X41646555Y-98585501D01*
X41651000Y-98630638D01*
X41651000Y-99269362D01*
X41646555Y-99314499D01*
X41635180Y-99351995D01*
X41616708Y-99386554D01*
X41591847Y-99416847D01*
X41561554Y-99441708D01*
X41526995Y-99460180D01*
X41489499Y-99471555D01*
X41444362Y-99476000D01*
X40705638Y-99476000D01*
X40660501Y-99471555D01*
X40623005Y-99460180D01*
X40588446Y-99441708D01*
X40558153Y-99416847D01*
X40533292Y-99386554D01*
X40514820Y-99351995D01*
X40503445Y-99314499D01*
X40499000Y-99269362D01*
X40499000Y-98630638D01*
X40503445Y-98585501D01*
X40514820Y-98548005D01*
X40533292Y-98513446D01*
X40558153Y-98483153D01*
X40588446Y-98458292D01*
X40623005Y-98439820D01*
X40660501Y-98428445D01*
X40705638Y-98424000D01*
X41444362Y-98424000D01*
X41489499Y-98428445D01*
G37*
G36*
X58129499Y-97168445D02*
G01*
X58166995Y-97179820D01*
X58201554Y-97198292D01*
X58231847Y-97223153D01*
X58256708Y-97253446D01*
X58275180Y-97288005D01*
X58286555Y-97325501D01*
X58291000Y-97370638D01*
X58291000Y-98009362D01*
X58286555Y-98054499D01*
X58275180Y-98091995D01*
X58256708Y-98126554D01*
X58231847Y-98156847D01*
X58201554Y-98181708D01*
X58166995Y-98200180D01*
X58129499Y-98211555D01*
X58084362Y-98216000D01*
X57345638Y-98216000D01*
X57300501Y-98211555D01*
X57263005Y-98200180D01*
X57228446Y-98181708D01*
X57198153Y-98156847D01*
X57173292Y-98126554D01*
X57154820Y-98091995D01*
X57143445Y-98054499D01*
X57139000Y-98009362D01*
X57139000Y-97370638D01*
X57143445Y-97325501D01*
X57154820Y-97288005D01*
X57173292Y-97253446D01*
X57198153Y-97223153D01*
X57228446Y-97198292D01*
X57263005Y-97179820D01*
X57300501Y-97168445D01*
X57345638Y-97164000D01*
X58084362Y-97164000D01*
X58129499Y-97168445D01*
G37*
G36*
X59879499Y-97168445D02*
G01*
X59916995Y-97179820D01*
X59951554Y-97198292D01*
X59981847Y-97223153D01*
X60006708Y-97253446D01*
X60025180Y-97288005D01*
X60036555Y-97325501D01*
X60041000Y-97370638D01*
X60041000Y-98009362D01*
X60036555Y-98054499D01*
X60025180Y-98091995D01*
X60006708Y-98126554D01*
X59981847Y-98156847D01*
X59951554Y-98181708D01*
X59916995Y-98200180D01*
X59879499Y-98211555D01*
X59834362Y-98216000D01*
X59095638Y-98216000D01*
X59050501Y-98211555D01*
X59013005Y-98200180D01*
X58978446Y-98181708D01*
X58948153Y-98156847D01*
X58923292Y-98126554D01*
X58904820Y-98091995D01*
X58893445Y-98054499D01*
X58889000Y-98009362D01*
X58889000Y-97370638D01*
X58893445Y-97325501D01*
X58904820Y-97288005D01*
X58923292Y-97253446D01*
X58948153Y-97223153D01*
X58978446Y-97198292D01*
X59013005Y-97179820D01*
X59050501Y-97168445D01*
X59095638Y-97164000D01*
X59834362Y-97164000D01*
X59879499Y-97168445D01*
G37*
G36*
X95242048Y-94790122D02*
G01*
X95276387Y-94800539D01*
X95308036Y-94817456D01*
X95335778Y-94840222D01*
X95358544Y-94867964D01*
X95375461Y-94899613D01*
X95385878Y-94933952D01*
X95390000Y-94975807D01*
X95390000Y-97048193D01*
X95385878Y-97090048D01*
X95375461Y-97124387D01*
X95358544Y-97156036D01*
X95335778Y-97183778D01*
X95308036Y-97206544D01*
X95276387Y-97223461D01*
X95242048Y-97233878D01*
X95200193Y-97238000D01*
X93977807Y-97238000D01*
X93935952Y-97233878D01*
X93901613Y-97223461D01*
X93869964Y-97206544D01*
X93842222Y-97183778D01*
X93819456Y-97156036D01*
X93802539Y-97124387D01*
X93792122Y-97090048D01*
X93788000Y-97048193D01*
X93788000Y-94975807D01*
X93792122Y-94933952D01*
X93802539Y-94899613D01*
X93819456Y-94867964D01*
X93842222Y-94840222D01*
X93869964Y-94817456D01*
X93901613Y-94800539D01*
X93935952Y-94790122D01*
X93977807Y-94786000D01*
X95200193Y-94786000D01*
X95242048Y-94790122D01*
G37*
G36*
X91992048Y-94790122D02*
G01*
X92026387Y-94800539D01*
X92058036Y-94817456D01*
X92085778Y-94840222D01*
X92108544Y-94867964D01*
X92125461Y-94899613D01*
X92135878Y-94933952D01*
X92140000Y-94975807D01*
X92140000Y-97048193D01*
X92135878Y-97090048D01*
X92125461Y-97124387D01*
X92108544Y-97156036D01*
X92085778Y-97183778D01*
X92058036Y-97206544D01*
X92026387Y-97223461D01*
X91992048Y-97233878D01*
X91950193Y-97238000D01*
X90727807Y-97238000D01*
X90685952Y-97233878D01*
X90651613Y-97223461D01*
X90619964Y-97206544D01*
X90592222Y-97183778D01*
X90569456Y-97156036D01*
X90552539Y-97124387D01*
X90542122Y-97090048D01*
X90538000Y-97048193D01*
X90538000Y-94975807D01*
X90542122Y-94933952D01*
X90552539Y-94899613D01*
X90569456Y-94867964D01*
X90592222Y-94840222D01*
X90619964Y-94817456D01*
X90651613Y-94800539D01*
X90685952Y-94790122D01*
X90727807Y-94786000D01*
X91950193Y-94786000D01*
X91992048Y-94790122D01*
G37*
G36*
X41709499Y-95108445D02*
G01*
X41746995Y-95119820D01*
X41781554Y-95138292D01*
X41811847Y-95163153D01*
X41836708Y-95193446D01*
X41855180Y-95228005D01*
X41866555Y-95265501D01*
X41871000Y-95310638D01*
X41871000Y-95949362D01*
X41866555Y-95994499D01*
X41855180Y-96031995D01*
X41836708Y-96066554D01*
X41811847Y-96096847D01*
X41781554Y-96121708D01*
X41746995Y-96140180D01*
X41709499Y-96151555D01*
X41664362Y-96156000D01*
X40925638Y-96156000D01*
X40880501Y-96151555D01*
X40843005Y-96140180D01*
X40808446Y-96121708D01*
X40778153Y-96096847D01*
X40753292Y-96066554D01*
X40734820Y-96031995D01*
X40723445Y-95994499D01*
X40719000Y-95949362D01*
X40719000Y-95310638D01*
X40723445Y-95265501D01*
X40734820Y-95228005D01*
X40753292Y-95193446D01*
X40778153Y-95163153D01*
X40808446Y-95138292D01*
X40843005Y-95119820D01*
X40880501Y-95108445D01*
X40925638Y-95104000D01*
X41664362Y-95104000D01*
X41709499Y-95108445D01*
G37*
G36*
X39959499Y-95108445D02*
G01*
X39996995Y-95119820D01*
X40031554Y-95138292D01*
X40061847Y-95163153D01*
X40086708Y-95193446D01*
X40105180Y-95228005D01*
X40116555Y-95265501D01*
X40121000Y-95310638D01*
X40121000Y-95949362D01*
X40116555Y-95994499D01*
X40105180Y-96031995D01*
X40086708Y-96066554D01*
X40061847Y-96096847D01*
X40031554Y-96121708D01*
X39996995Y-96140180D01*
X39959499Y-96151555D01*
X39914362Y-96156000D01*
X39175638Y-96156000D01*
X39130501Y-96151555D01*
X39093005Y-96140180D01*
X39058446Y-96121708D01*
X39028153Y-96096847D01*
X39003292Y-96066554D01*
X38984820Y-96031995D01*
X38973445Y-95994499D01*
X38969000Y-95949362D01*
X38969000Y-95310638D01*
X38973445Y-95265501D01*
X38984820Y-95228005D01*
X39003292Y-95193446D01*
X39028153Y-95163153D01*
X39058446Y-95138292D01*
X39093005Y-95119820D01*
X39130501Y-95108445D01*
X39175638Y-95104000D01*
X39914362Y-95104000D01*
X39959499Y-95108445D01*
G37*
G36*
X81898499Y-94029445D02*
G01*
X81935995Y-94040820D01*
X81970554Y-94059292D01*
X82000847Y-94084153D01*
X82025708Y-94114446D01*
X82044180Y-94149005D01*
X82055555Y-94186501D01*
X82060000Y-94231638D01*
X82060000Y-94970362D01*
X82055555Y-95015499D01*
X82044180Y-95052995D01*
X82025708Y-95087554D01*
X82000847Y-95117847D01*
X81970554Y-95142708D01*
X81935995Y-95161180D01*
X81898499Y-95172555D01*
X81853362Y-95177000D01*
X81214638Y-95177000D01*
X81169501Y-95172555D01*
X81132005Y-95161180D01*
X81097446Y-95142708D01*
X81067153Y-95117847D01*
X81042292Y-95087554D01*
X81023820Y-95052995D01*
X81012445Y-95015499D01*
X81008000Y-94970362D01*
X81008000Y-94231638D01*
X81012445Y-94186501D01*
X81023820Y-94149005D01*
X81042292Y-94114446D01*
X81067153Y-94084153D01*
X81097446Y-94059292D01*
X81132005Y-94040820D01*
X81169501Y-94029445D01*
X81214638Y-94025000D01*
X81853362Y-94025000D01*
X81898499Y-94029445D01*
G37*
G36*
X87903499Y-93966445D02*
G01*
X87940995Y-93977820D01*
X87975554Y-93996292D01*
X88005847Y-94021153D01*
X88030708Y-94051446D01*
X88049180Y-94086005D01*
X88060555Y-94123501D01*
X88065000Y-94168638D01*
X88065000Y-94807362D01*
X88060555Y-94852499D01*
X88049180Y-94889995D01*
X88030708Y-94924554D01*
X88005847Y-94954847D01*
X87975554Y-94979708D01*
X87940995Y-94998180D01*
X87903499Y-95009555D01*
X87858362Y-95014000D01*
X87119638Y-95014000D01*
X87074501Y-95009555D01*
X87037005Y-94998180D01*
X87002446Y-94979708D01*
X86972153Y-94954847D01*
X86947292Y-94924554D01*
X86928820Y-94889995D01*
X86917445Y-94852499D01*
X86913000Y-94807362D01*
X86913000Y-94168638D01*
X86917445Y-94123501D01*
X86928820Y-94086005D01*
X86947292Y-94051446D01*
X86972153Y-94021153D01*
X87002446Y-93996292D01*
X87037005Y-93977820D01*
X87074501Y-93966445D01*
X87119638Y-93962000D01*
X87858362Y-93962000D01*
X87903499Y-93966445D01*
G37*
G36*
X86153499Y-93966445D02*
G01*
X86190995Y-93977820D01*
X86225554Y-93996292D01*
X86255847Y-94021153D01*
X86280708Y-94051446D01*
X86299180Y-94086005D01*
X86310555Y-94123501D01*
X86315000Y-94168638D01*
X86315000Y-94807362D01*
X86310555Y-94852499D01*
X86299180Y-94889995D01*
X86280708Y-94924554D01*
X86255847Y-94954847D01*
X86225554Y-94979708D01*
X86190995Y-94998180D01*
X86153499Y-95009555D01*
X86108362Y-95014000D01*
X85369638Y-95014000D01*
X85324501Y-95009555D01*
X85287005Y-94998180D01*
X85252446Y-94979708D01*
X85222153Y-94954847D01*
X85197292Y-94924554D01*
X85178820Y-94889995D01*
X85167445Y-94852499D01*
X85163000Y-94807362D01*
X85163000Y-94168638D01*
X85167445Y-94123501D01*
X85178820Y-94086005D01*
X85197292Y-94051446D01*
X85222153Y-94021153D01*
X85252446Y-93996292D01*
X85287005Y-93977820D01*
X85324501Y-93966445D01*
X85369638Y-93962000D01*
X86108362Y-93962000D01*
X86153499Y-93966445D01*
G37*
G36*
X41749499Y-92828445D02*
G01*
X41786995Y-92839820D01*
X41821554Y-92858292D01*
X41851847Y-92883153D01*
X41876708Y-92913446D01*
X41895180Y-92948005D01*
X41906555Y-92985501D01*
X41911000Y-93030638D01*
X41911000Y-93669362D01*
X41906555Y-93714499D01*
X41895180Y-93751995D01*
X41876708Y-93786554D01*
X41851847Y-93816847D01*
X41821554Y-93841708D01*
X41786995Y-93860180D01*
X41749499Y-93871555D01*
X41704362Y-93876000D01*
X40965638Y-93876000D01*
X40920501Y-93871555D01*
X40883005Y-93860180D01*
X40848446Y-93841708D01*
X40818153Y-93816847D01*
X40793292Y-93786554D01*
X40774820Y-93751995D01*
X40763445Y-93714499D01*
X40759000Y-93669362D01*
X40759000Y-93030638D01*
X40763445Y-92985501D01*
X40774820Y-92948005D01*
X40793292Y-92913446D01*
X40818153Y-92883153D01*
X40848446Y-92858292D01*
X40883005Y-92839820D01*
X40920501Y-92828445D01*
X40965638Y-92824000D01*
X41704362Y-92824000D01*
X41749499Y-92828445D01*
G37*
G36*
X39999499Y-92828445D02*
G01*
X40036995Y-92839820D01*
X40071554Y-92858292D01*
X40101847Y-92883153D01*
X40126708Y-92913446D01*
X40145180Y-92948005D01*
X40156555Y-92985501D01*
X40161000Y-93030638D01*
X40161000Y-93669362D01*
X40156555Y-93714499D01*
X40145180Y-93751995D01*
X40126708Y-93786554D01*
X40101847Y-93816847D01*
X40071554Y-93841708D01*
X40036995Y-93860180D01*
X39999499Y-93871555D01*
X39954362Y-93876000D01*
X39215638Y-93876000D01*
X39170501Y-93871555D01*
X39133005Y-93860180D01*
X39098446Y-93841708D01*
X39068153Y-93816847D01*
X39043292Y-93786554D01*
X39024820Y-93751995D01*
X39013445Y-93714499D01*
X39009000Y-93669362D01*
X39009000Y-93030638D01*
X39013445Y-92985501D01*
X39024820Y-92948005D01*
X39043292Y-92913446D01*
X39068153Y-92883153D01*
X39098446Y-92858292D01*
X39133005Y-92839820D01*
X39170501Y-92828445D01*
X39215638Y-92824000D01*
X39954362Y-92824000D01*
X39999499Y-92828445D01*
G37*
G36*
X81898499Y-92279445D02*
G01*
X81935995Y-92290820D01*
X81970554Y-92309292D01*
X82000847Y-92334153D01*
X82025708Y-92364446D01*
X82044180Y-92399005D01*
X82055555Y-92436501D01*
X82060000Y-92481638D01*
X82060000Y-93220362D01*
X82055555Y-93265499D01*
X82044180Y-93302995D01*
X82025708Y-93337554D01*
X82000847Y-93367847D01*
X81970554Y-93392708D01*
X81935995Y-93411180D01*
X81898499Y-93422555D01*
X81853362Y-93427000D01*
X81214638Y-93427000D01*
X81169501Y-93422555D01*
X81132005Y-93411180D01*
X81097446Y-93392708D01*
X81067153Y-93367847D01*
X81042292Y-93337554D01*
X81023820Y-93302995D01*
X81012445Y-93265499D01*
X81008000Y-93220362D01*
X81008000Y-92481638D01*
X81012445Y-92436501D01*
X81023820Y-92399005D01*
X81042292Y-92364446D01*
X81067153Y-92334153D01*
X81097446Y-92309292D01*
X81132005Y-92290820D01*
X81169501Y-92279445D01*
X81214638Y-92275000D01*
X81853362Y-92275000D01*
X81898499Y-92279445D01*
G37*
G36*
X87790499Y-91680445D02*
G01*
X87827995Y-91691820D01*
X87862554Y-91710292D01*
X87892847Y-91735153D01*
X87917708Y-91765446D01*
X87936180Y-91800005D01*
X87947555Y-91837501D01*
X87952000Y-91882638D01*
X87952000Y-92521362D01*
X87947555Y-92566499D01*
X87936180Y-92603995D01*
X87917708Y-92638554D01*
X87892847Y-92668847D01*
X87862554Y-92693708D01*
X87827995Y-92712180D01*
X87790499Y-92723555D01*
X87745362Y-92728000D01*
X87006638Y-92728000D01*
X86961501Y-92723555D01*
X86924005Y-92712180D01*
X86889446Y-92693708D01*
X86859153Y-92668847D01*
X86834292Y-92638554D01*
X86815820Y-92603995D01*
X86804445Y-92566499D01*
X86800000Y-92521362D01*
X86800000Y-91882638D01*
X86804445Y-91837501D01*
X86815820Y-91800005D01*
X86834292Y-91765446D01*
X86859153Y-91735153D01*
X86889446Y-91710292D01*
X86924005Y-91691820D01*
X86961501Y-91680445D01*
X87006638Y-91676000D01*
X87745362Y-91676000D01*
X87790499Y-91680445D01*
G37*
G36*
X89709499Y-91680445D02*
G01*
X89746995Y-91691820D01*
X89781554Y-91710292D01*
X89811847Y-91735153D01*
X89836708Y-91765446D01*
X89855180Y-91800005D01*
X89866555Y-91837501D01*
X89871000Y-91882638D01*
X89871000Y-92521362D01*
X89866555Y-92566499D01*
X89855180Y-92603995D01*
X89836708Y-92638554D01*
X89811847Y-92668847D01*
X89781554Y-92693708D01*
X89746995Y-92712180D01*
X89709499Y-92723555D01*
X89664362Y-92728000D01*
X88925638Y-92728000D01*
X88880501Y-92723555D01*
X88843005Y-92712180D01*
X88808446Y-92693708D01*
X88778153Y-92668847D01*
X88753292Y-92638554D01*
X88734820Y-92603995D01*
X88723445Y-92566499D01*
X88719000Y-92521362D01*
X88719000Y-91882638D01*
X88723445Y-91837501D01*
X88734820Y-91800005D01*
X88753292Y-91765446D01*
X88778153Y-91735153D01*
X88808446Y-91710292D01*
X88843005Y-91691820D01*
X88880501Y-91680445D01*
X88925638Y-91676000D01*
X89664362Y-91676000D01*
X89709499Y-91680445D01*
G37*
G36*
X91459499Y-91680445D02*
G01*
X91496995Y-91691820D01*
X91531554Y-91710292D01*
X91561847Y-91735153D01*
X91586708Y-91765446D01*
X91605180Y-91800005D01*
X91616555Y-91837501D01*
X91621000Y-91882638D01*
X91621000Y-92521362D01*
X91616555Y-92566499D01*
X91605180Y-92603995D01*
X91586708Y-92638554D01*
X91561847Y-92668847D01*
X91531554Y-92693708D01*
X91496995Y-92712180D01*
X91459499Y-92723555D01*
X91414362Y-92728000D01*
X90675638Y-92728000D01*
X90630501Y-92723555D01*
X90593005Y-92712180D01*
X90558446Y-92693708D01*
X90528153Y-92668847D01*
X90503292Y-92638554D01*
X90484820Y-92603995D01*
X90473445Y-92566499D01*
X90469000Y-92521362D01*
X90469000Y-91882638D01*
X90473445Y-91837501D01*
X90484820Y-91800005D01*
X90503292Y-91765446D01*
X90528153Y-91735153D01*
X90558446Y-91710292D01*
X90593005Y-91691820D01*
X90630501Y-91680445D01*
X90675638Y-91676000D01*
X91414362Y-91676000D01*
X91459499Y-91680445D01*
G37*
G36*
X86040499Y-91680445D02*
G01*
X86077995Y-91691820D01*
X86112554Y-91710292D01*
X86142847Y-91735153D01*
X86167708Y-91765446D01*
X86186180Y-91800005D01*
X86197555Y-91837501D01*
X86202000Y-91882638D01*
X86202000Y-92521362D01*
X86197555Y-92566499D01*
X86186180Y-92603995D01*
X86167708Y-92638554D01*
X86142847Y-92668847D01*
X86112554Y-92693708D01*
X86077995Y-92712180D01*
X86040499Y-92723555D01*
X85995362Y-92728000D01*
X85256638Y-92728000D01*
X85211501Y-92723555D01*
X85174005Y-92712180D01*
X85139446Y-92693708D01*
X85109153Y-92668847D01*
X85084292Y-92638554D01*
X85065820Y-92603995D01*
X85054445Y-92566499D01*
X85050000Y-92521362D01*
X85050000Y-91882638D01*
X85054445Y-91837501D01*
X85065820Y-91800005D01*
X85084292Y-91765446D01*
X85109153Y-91735153D01*
X85139446Y-91710292D01*
X85174005Y-91691820D01*
X85211501Y-91680445D01*
X85256638Y-91676000D01*
X85995362Y-91676000D01*
X86040499Y-91680445D01*
G37*
G36*
X93699000Y-90399000D02*
G01*
X90197000Y-90399000D01*
X90197000Y-80797000D01*
X93699000Y-80797000D01*
X93699000Y-90399000D01*
G37*
G36*
X106282499Y-89203445D02*
G01*
X106319995Y-89214820D01*
X106354554Y-89233292D01*
X106384847Y-89258153D01*
X106409708Y-89288446D01*
X106428180Y-89323005D01*
X106439555Y-89360501D01*
X106444000Y-89405638D01*
X106444000Y-90144362D01*
X106439555Y-90189499D01*
X106428180Y-90226995D01*
X106409708Y-90261554D01*
X106384847Y-90291847D01*
X106354554Y-90316708D01*
X106319995Y-90335180D01*
X106282499Y-90346555D01*
X106237362Y-90351000D01*
X105598638Y-90351000D01*
X105553501Y-90346555D01*
X105516005Y-90335180D01*
X105481446Y-90316708D01*
X105451153Y-90291847D01*
X105426292Y-90261554D01*
X105407820Y-90226995D01*
X105396445Y-90189499D01*
X105392000Y-90144362D01*
X105392000Y-89405638D01*
X105396445Y-89360501D01*
X105407820Y-89323005D01*
X105426292Y-89288446D01*
X105451153Y-89258153D01*
X105481446Y-89233292D01*
X105516005Y-89214820D01*
X105553501Y-89203445D01*
X105598638Y-89199000D01*
X106237362Y-89199000D01*
X106282499Y-89203445D01*
G37*
G36*
X58649821Y-88433193D02*
G01*
X58802812Y-88463624D01*
X58966784Y-88531544D01*
X59114354Y-88630147D01*
X59239853Y-88755646D01*
X59338456Y-88903216D01*
X59406376Y-89067188D01*
X59433599Y-89204053D01*
X59436577Y-89219020D01*
X59441000Y-89241259D01*
X59441000Y-89418741D01*
X59406376Y-89592812D01*
X59338456Y-89756784D01*
X59239853Y-89904354D01*
X59114354Y-90029853D01*
X58966784Y-90128456D01*
X58802812Y-90196376D01*
X58653512Y-90226073D01*
X58628742Y-90231000D01*
X58451258Y-90231000D01*
X58426488Y-90226073D01*
X58277188Y-90196376D01*
X58113216Y-90128456D01*
X57965646Y-90029853D01*
X57840147Y-89904354D01*
X57741544Y-89756784D01*
X57673624Y-89592812D01*
X57639000Y-89418741D01*
X57639000Y-89241259D01*
X57643424Y-89219020D01*
X57646401Y-89204053D01*
X57673624Y-89067188D01*
X57741544Y-88903216D01*
X57840147Y-88755646D01*
X57965646Y-88630147D01*
X58113216Y-88531544D01*
X58277188Y-88463624D01*
X58430179Y-88433193D01*
X58451258Y-88429000D01*
X58628742Y-88429000D01*
X58649821Y-88433193D01*
G37*
G36*
X53649821Y-88433193D02*
G01*
X53802812Y-88463624D01*
X53966784Y-88531544D01*
X54114354Y-88630147D01*
X54239853Y-88755646D01*
X54338456Y-88903216D01*
X54406376Y-89067188D01*
X54433599Y-89204053D01*
X54436577Y-89219020D01*
X54441000Y-89241259D01*
X54441000Y-89418741D01*
X54406376Y-89592812D01*
X54338456Y-89756784D01*
X54239853Y-89904354D01*
X54114354Y-90029853D01*
X53966784Y-90128456D01*
X53802812Y-90196376D01*
X53653512Y-90226073D01*
X53628742Y-90231000D01*
X53451258Y-90231000D01*
X53426488Y-90226073D01*
X53277188Y-90196376D01*
X53113216Y-90128456D01*
X52965646Y-90029853D01*
X52840147Y-89904354D01*
X52741544Y-89756784D01*
X52673624Y-89592812D01*
X52639000Y-89418741D01*
X52639000Y-89241259D01*
X52643424Y-89219020D01*
X52646401Y-89204053D01*
X52673624Y-89067188D01*
X52741544Y-88903216D01*
X52840147Y-88755646D01*
X52965646Y-88630147D01*
X53113216Y-88531544D01*
X53277188Y-88463624D01*
X53430179Y-88433193D01*
X53451258Y-88429000D01*
X53628742Y-88429000D01*
X53649821Y-88433193D01*
G37*
G36*
X56149821Y-88433193D02*
G01*
X56302812Y-88463624D01*
X56466784Y-88531544D01*
X56614354Y-88630147D01*
X56739853Y-88755646D01*
X56838456Y-88903216D01*
X56906376Y-89067188D01*
X56933599Y-89204053D01*
X56936577Y-89219020D01*
X56941000Y-89241259D01*
X56941000Y-89418741D01*
X56906376Y-89592812D01*
X56838456Y-89756784D01*
X56739853Y-89904354D01*
X56614354Y-90029853D01*
X56466784Y-90128456D01*
X56302812Y-90196376D01*
X56153512Y-90226073D01*
X56128742Y-90231000D01*
X55951258Y-90231000D01*
X55926488Y-90226073D01*
X55777188Y-90196376D01*
X55613216Y-90128456D01*
X55465646Y-90029853D01*
X55340147Y-89904354D01*
X55241544Y-89756784D01*
X55173624Y-89592812D01*
X55139000Y-89418741D01*
X55139000Y-89241259D01*
X55143424Y-89219020D01*
X55146401Y-89204053D01*
X55173624Y-89067188D01*
X55241544Y-88903216D01*
X55340147Y-88755646D01*
X55465646Y-88630147D01*
X55613216Y-88531544D01*
X55777188Y-88463624D01*
X55930179Y-88433193D01*
X55951258Y-88429000D01*
X56128742Y-88429000D01*
X56149821Y-88433193D01*
G37*
G36*
X95399000Y-90074000D02*
G01*
X94197000Y-90074000D01*
X94197000Y-81122000D01*
X95399000Y-81122000D01*
X95399000Y-90074000D01*
G37*
G36*
X89699000Y-90074000D02*
G01*
X88497000Y-90074000D01*
X88497000Y-81122000D01*
X89699000Y-81122000D01*
X89699000Y-90074000D01*
G37*
G36*
X51729499Y-88978445D02*
G01*
X51766995Y-88989820D01*
X51801554Y-89008292D01*
X51831847Y-89033153D01*
X51856708Y-89063446D01*
X51875180Y-89098005D01*
X51886555Y-89135501D01*
X51891000Y-89180638D01*
X51891000Y-89819362D01*
X51886555Y-89864499D01*
X51875180Y-89901995D01*
X51856708Y-89936554D01*
X51831847Y-89966847D01*
X51801554Y-89991708D01*
X51766995Y-90010180D01*
X51729499Y-90021555D01*
X51684362Y-90026000D01*
X50945638Y-90026000D01*
X50900501Y-90021555D01*
X50863005Y-90010180D01*
X50828446Y-89991708D01*
X50798153Y-89966847D01*
X50773292Y-89936554D01*
X50754820Y-89901995D01*
X50743445Y-89864499D01*
X50739000Y-89819362D01*
X50739000Y-89180638D01*
X50743445Y-89135501D01*
X50754820Y-89098005D01*
X50773292Y-89063446D01*
X50798153Y-89033153D01*
X50828446Y-89008292D01*
X50863005Y-88989820D01*
X50900501Y-88978445D01*
X50945638Y-88974000D01*
X51684362Y-88974000D01*
X51729499Y-88978445D01*
G37*
G36*
X49979499Y-88978445D02*
G01*
X50016995Y-88989820D01*
X50051554Y-89008292D01*
X50081847Y-89033153D01*
X50106708Y-89063446D01*
X50125180Y-89098005D01*
X50136555Y-89135501D01*
X50141000Y-89180638D01*
X50141000Y-89819362D01*
X50136555Y-89864499D01*
X50125180Y-89901995D01*
X50106708Y-89936554D01*
X50081847Y-89966847D01*
X50051554Y-89991708D01*
X50016995Y-90010180D01*
X49979499Y-90021555D01*
X49934362Y-90026000D01*
X49195638Y-90026000D01*
X49150501Y-90021555D01*
X49113005Y-90010180D01*
X49078446Y-89991708D01*
X49048153Y-89966847D01*
X49023292Y-89936554D01*
X49004820Y-89901995D01*
X48993445Y-89864499D01*
X48989000Y-89819362D01*
X48989000Y-89180638D01*
X48993445Y-89135501D01*
X49004820Y-89098005D01*
X49023292Y-89063446D01*
X49048153Y-89033153D01*
X49078446Y-89008292D01*
X49113005Y-88989820D01*
X49150501Y-88978445D01*
X49195638Y-88974000D01*
X49934362Y-88974000D01*
X49979499Y-88978445D01*
G37*
G36*
X46094499Y-88918445D02*
G01*
X46131995Y-88929820D01*
X46166554Y-88948292D01*
X46196847Y-88973153D01*
X46221708Y-89003446D01*
X46240180Y-89038005D01*
X46251555Y-89075501D01*
X46256000Y-89120638D01*
X46256000Y-89759362D01*
X46251555Y-89804499D01*
X46240180Y-89841995D01*
X46221708Y-89876554D01*
X46196847Y-89906847D01*
X46166554Y-89931708D01*
X46131995Y-89950180D01*
X46094499Y-89961555D01*
X46049362Y-89966000D01*
X45310638Y-89966000D01*
X45265501Y-89961555D01*
X45228005Y-89950180D01*
X45193446Y-89931708D01*
X45163153Y-89906847D01*
X45138292Y-89876554D01*
X45119820Y-89841995D01*
X45108445Y-89804499D01*
X45104000Y-89759362D01*
X45104000Y-89120638D01*
X45108445Y-89075501D01*
X45119820Y-89038005D01*
X45138292Y-89003446D01*
X45163153Y-88973153D01*
X45193446Y-88948292D01*
X45228005Y-88929820D01*
X45265501Y-88918445D01*
X45310638Y-88914000D01*
X46049362Y-88914000D01*
X46094499Y-88918445D01*
G37*
G36*
X47844499Y-88918445D02*
G01*
X47881995Y-88929820D01*
X47916554Y-88948292D01*
X47946847Y-88973153D01*
X47971708Y-89003446D01*
X47990180Y-89038005D01*
X48001555Y-89075501D01*
X48006000Y-89120638D01*
X48006000Y-89759362D01*
X48001555Y-89804499D01*
X47990180Y-89841995D01*
X47971708Y-89876554D01*
X47946847Y-89906847D01*
X47916554Y-89931708D01*
X47881995Y-89950180D01*
X47844499Y-89961555D01*
X47799362Y-89966000D01*
X47060638Y-89966000D01*
X47015501Y-89961555D01*
X46978005Y-89950180D01*
X46943446Y-89931708D01*
X46913153Y-89906847D01*
X46888292Y-89876554D01*
X46869820Y-89841995D01*
X46858445Y-89804499D01*
X46854000Y-89759362D01*
X46854000Y-89120638D01*
X46858445Y-89075501D01*
X46869820Y-89038005D01*
X46888292Y-89003446D01*
X46913153Y-88973153D01*
X46943446Y-88948292D01*
X46978005Y-88929820D01*
X47015501Y-88918445D01*
X47060638Y-88914000D01*
X47799362Y-88914000D01*
X47844499Y-88918445D01*
G37*
G36*
X40608410Y-88365525D02*
G01*
X40693426Y-88391314D01*
X40771775Y-88433193D01*
X40840449Y-88489551D01*
X40896807Y-88558225D01*
X40938686Y-88636574D01*
X40964475Y-88721590D01*
X40973182Y-88810000D01*
X40964475Y-88898410D01*
X40938686Y-88983426D01*
X40896807Y-89061775D01*
X40840449Y-89130449D01*
X40771775Y-89186807D01*
X40693426Y-89228686D01*
X40608410Y-89254475D01*
X40542158Y-89261000D01*
X39997842Y-89261000D01*
X39931590Y-89254475D01*
X39846574Y-89228686D01*
X39768225Y-89186807D01*
X39699551Y-89130449D01*
X39643193Y-89061775D01*
X39601314Y-88983426D01*
X39575525Y-88898410D01*
X39566818Y-88810000D01*
X39575525Y-88721590D01*
X39601314Y-88636574D01*
X39643193Y-88558225D01*
X39699551Y-88489551D01*
X39768225Y-88433193D01*
X39846574Y-88391314D01*
X39931590Y-88365525D01*
X39997842Y-88359000D01*
X40542158Y-88359000D01*
X40608410Y-88365525D01*
G37*
G36*
X106282499Y-87453445D02*
G01*
X106319995Y-87464820D01*
X106354554Y-87483292D01*
X106384847Y-87508153D01*
X106409708Y-87538446D01*
X106428180Y-87573005D01*
X106439555Y-87610501D01*
X106444000Y-87655638D01*
X106444000Y-88394362D01*
X106439555Y-88439499D01*
X106428180Y-88476995D01*
X106409708Y-88511554D01*
X106384847Y-88541847D01*
X106354554Y-88566708D01*
X106319995Y-88585180D01*
X106282499Y-88596555D01*
X106237362Y-88601000D01*
X105598638Y-88601000D01*
X105553501Y-88596555D01*
X105516005Y-88585180D01*
X105481446Y-88566708D01*
X105451153Y-88541847D01*
X105426292Y-88511554D01*
X105407820Y-88476995D01*
X105396445Y-88439499D01*
X105392000Y-88394362D01*
X105392000Y-87655638D01*
X105396445Y-87610501D01*
X105407820Y-87573005D01*
X105426292Y-87538446D01*
X105451153Y-87508153D01*
X105481446Y-87483292D01*
X105516005Y-87464820D01*
X105553501Y-87453445D01*
X105598638Y-87449000D01*
X106237362Y-87449000D01*
X106282499Y-87453445D01*
G37*
G36*
X82858410Y-87235525D02*
G01*
X82943426Y-87261314D01*
X83021775Y-87303193D01*
X83090449Y-87359551D01*
X83146807Y-87428225D01*
X83188686Y-87506574D01*
X83214475Y-87591590D01*
X83223182Y-87680000D01*
X83214475Y-87768410D01*
X83188686Y-87853426D01*
X83146807Y-87931775D01*
X83090449Y-88000449D01*
X83021775Y-88056807D01*
X82943426Y-88098686D01*
X82858410Y-88124475D01*
X82792158Y-88131000D01*
X82247842Y-88131000D01*
X82181590Y-88124475D01*
X82096574Y-88098686D01*
X82018225Y-88056807D01*
X81949551Y-88000449D01*
X81893193Y-87931775D01*
X81851314Y-87853426D01*
X81825525Y-87768410D01*
X81816818Y-87680000D01*
X81825525Y-87591590D01*
X81851314Y-87506574D01*
X81893193Y-87428225D01*
X81949551Y-87359551D01*
X82018225Y-87303193D01*
X82096574Y-87261314D01*
X82181590Y-87235525D01*
X82247842Y-87229000D01*
X82792158Y-87229000D01*
X82858410Y-87235525D01*
G37*
G36*
X40608410Y-87115525D02*
G01*
X40693426Y-87141314D01*
X40771775Y-87183193D01*
X40840449Y-87239551D01*
X40896807Y-87308225D01*
X40938686Y-87386574D01*
X40964475Y-87471590D01*
X40973182Y-87560000D01*
X40964475Y-87648410D01*
X40938686Y-87733426D01*
X40896807Y-87811775D01*
X40840449Y-87880449D01*
X40771775Y-87936807D01*
X40693426Y-87978686D01*
X40608410Y-88004475D01*
X40542158Y-88011000D01*
X39997842Y-88011000D01*
X39931590Y-88004475D01*
X39846574Y-87978686D01*
X39768225Y-87936807D01*
X39699551Y-87880449D01*
X39643193Y-87811775D01*
X39601314Y-87733426D01*
X39575525Y-87648410D01*
X39566818Y-87560000D01*
X39575525Y-87471590D01*
X39601314Y-87386574D01*
X39643193Y-87308225D01*
X39699551Y-87239551D01*
X39768225Y-87183193D01*
X39846574Y-87141314D01*
X39931590Y-87115525D01*
X39997842Y-87109000D01*
X40542158Y-87109000D01*
X40608410Y-87115525D01*
G37*
G36*
X82858410Y-85985525D02*
G01*
X82943426Y-86011314D01*
X83021775Y-86053193D01*
X83090449Y-86109551D01*
X83146807Y-86178225D01*
X83188686Y-86256574D01*
X83214475Y-86341590D01*
X83223182Y-86430000D01*
X83214475Y-86518410D01*
X83188686Y-86603426D01*
X83146807Y-86681775D01*
X83090449Y-86750449D01*
X83021775Y-86806807D01*
X82943426Y-86848686D01*
X82858410Y-86874475D01*
X82792158Y-86881000D01*
X82247842Y-86881000D01*
X82181590Y-86874475D01*
X82096574Y-86848686D01*
X82018225Y-86806807D01*
X81949551Y-86750449D01*
X81893193Y-86681775D01*
X81851314Y-86603426D01*
X81825525Y-86518410D01*
X81816818Y-86430000D01*
X81825525Y-86341590D01*
X81851314Y-86256574D01*
X81893193Y-86178225D01*
X81949551Y-86109551D01*
X82018225Y-86053193D01*
X82096574Y-86011314D01*
X82181590Y-85985525D01*
X82247842Y-85979000D01*
X82792158Y-85979000D01*
X82858410Y-85985525D01*
G37*
G36*
X40608410Y-85865525D02*
G01*
X40693426Y-85891314D01*
X40771775Y-85933193D01*
X40840449Y-85989551D01*
X40896807Y-86058225D01*
X40938686Y-86136574D01*
X40964475Y-86221590D01*
X40973182Y-86310000D01*
X40964475Y-86398410D01*
X40938686Y-86483426D01*
X40896807Y-86561775D01*
X40840449Y-86630449D01*
X40771775Y-86686807D01*
X40693426Y-86728686D01*
X40608410Y-86754475D01*
X40542158Y-86761000D01*
X39997842Y-86761000D01*
X39931590Y-86754475D01*
X39846574Y-86728686D01*
X39768225Y-86686807D01*
X39699551Y-86630449D01*
X39643193Y-86561775D01*
X39601314Y-86483426D01*
X39575525Y-86398410D01*
X39566818Y-86310000D01*
X39575525Y-86221590D01*
X39601314Y-86136574D01*
X39643193Y-86058225D01*
X39699551Y-85989551D01*
X39768225Y-85933193D01*
X39846574Y-85891314D01*
X39931590Y-85865525D01*
X39997842Y-85859000D01*
X40542158Y-85859000D01*
X40608410Y-85865525D01*
G37*
G36*
X82858410Y-84735525D02*
G01*
X82943426Y-84761314D01*
X83021775Y-84803193D01*
X83090449Y-84859551D01*
X83146807Y-84928225D01*
X83188686Y-85006574D01*
X83214475Y-85091590D01*
X83223182Y-85180000D01*
X83214475Y-85268410D01*
X83188686Y-85353426D01*
X83146807Y-85431775D01*
X83090449Y-85500449D01*
X83021775Y-85556807D01*
X82943426Y-85598686D01*
X82858410Y-85624475D01*
X82792158Y-85631000D01*
X82247842Y-85631000D01*
X82181590Y-85624475D01*
X82096574Y-85598686D01*
X82018225Y-85556807D01*
X81949551Y-85500449D01*
X81893193Y-85431775D01*
X81851314Y-85353426D01*
X81825525Y-85268410D01*
X81816818Y-85180000D01*
X81825525Y-85091590D01*
X81851314Y-85006574D01*
X81893193Y-84928225D01*
X81949551Y-84859551D01*
X82018225Y-84803193D01*
X82096574Y-84761314D01*
X82181590Y-84735525D01*
X82247842Y-84729000D01*
X82792158Y-84729000D01*
X82858410Y-84735525D01*
G37*
G36*
X40839683Y-84612725D02*
G01*
X40870143Y-84621966D01*
X40898223Y-84636974D01*
X40922831Y-84657169D01*
X40943026Y-84681777D01*
X40958034Y-84709857D01*
X40967275Y-84740317D01*
X40971000Y-84778140D01*
X40971000Y-85341860D01*
X40967275Y-85379683D01*
X40958034Y-85410143D01*
X40943026Y-85438223D01*
X40922831Y-85462831D01*
X40898223Y-85483026D01*
X40870143Y-85498034D01*
X40839683Y-85507275D01*
X40801860Y-85511000D01*
X39738140Y-85511000D01*
X39700317Y-85507275D01*
X39669857Y-85498034D01*
X39641777Y-85483026D01*
X39617169Y-85462831D01*
X39596974Y-85438223D01*
X39581966Y-85410143D01*
X39572725Y-85379683D01*
X39569000Y-85341860D01*
X39569000Y-84778140D01*
X39572725Y-84740317D01*
X39581966Y-84709857D01*
X39596974Y-84681777D01*
X39617169Y-84657169D01*
X39641777Y-84636974D01*
X39669857Y-84621966D01*
X39700317Y-84612725D01*
X39738140Y-84609000D01*
X40801860Y-84609000D01*
X40839683Y-84612725D01*
G37*
G36*
X83089683Y-83482725D02*
G01*
X83120143Y-83491966D01*
X83148223Y-83506974D01*
X83172831Y-83527169D01*
X83193026Y-83551777D01*
X83208034Y-83579857D01*
X83217275Y-83610317D01*
X83221000Y-83648140D01*
X83221000Y-84211860D01*
X83217275Y-84249683D01*
X83208034Y-84280143D01*
X83193026Y-84308223D01*
X83172831Y-84332831D01*
X83148223Y-84353026D01*
X83120143Y-84368034D01*
X83089683Y-84377275D01*
X83051860Y-84381000D01*
X81988140Y-84381000D01*
X81950317Y-84377275D01*
X81919857Y-84368034D01*
X81891777Y-84353026D01*
X81867169Y-84332831D01*
X81846974Y-84308223D01*
X81831966Y-84280143D01*
X81822725Y-84249683D01*
X81819000Y-84211860D01*
X81819000Y-83648140D01*
X81822725Y-83610317D01*
X81831966Y-83579857D01*
X81846974Y-83551777D01*
X81867169Y-83527169D01*
X81891777Y-83506974D01*
X81919857Y-83491966D01*
X81950317Y-83482725D01*
X81988140Y-83479000D01*
X83051860Y-83479000D01*
X83089683Y-83482725D01*
G37*
G36*
X69713512Y-82403927D02*
G01*
X69862812Y-82433624D01*
X70026784Y-82501544D01*
X70174354Y-82600147D01*
X70299853Y-82725646D01*
X70398456Y-82873216D01*
X70466376Y-83037188D01*
X70501000Y-83211259D01*
X70501000Y-83388741D01*
X70466376Y-83562812D01*
X70398456Y-83726784D01*
X70299853Y-83874354D01*
X70174354Y-83999853D01*
X70026784Y-84098456D01*
X69862812Y-84166376D01*
X69713512Y-84196073D01*
X69688742Y-84201000D01*
X69511258Y-84201000D01*
X69486488Y-84196073D01*
X69337188Y-84166376D01*
X69173216Y-84098456D01*
X69025646Y-83999853D01*
X68900147Y-83874354D01*
X68801544Y-83726784D01*
X68733624Y-83562812D01*
X68699000Y-83388741D01*
X68699000Y-83211259D01*
X68733624Y-83037188D01*
X68801544Y-82873216D01*
X68900147Y-82725646D01*
X69025646Y-82600147D01*
X69173216Y-82501544D01*
X69337188Y-82433624D01*
X69486488Y-82403927D01*
X69511258Y-82399000D01*
X69688742Y-82399000D01*
X69713512Y-82403927D01*
G37*
G36*
X69703849Y-79862005D02*
G01*
X69862812Y-79893624D01*
X70026784Y-79961544D01*
X70174354Y-80060147D01*
X70299853Y-80185646D01*
X70398456Y-80333216D01*
X70466376Y-80497188D01*
X70501000Y-80671259D01*
X70501000Y-80848741D01*
X70466376Y-81022812D01*
X70398456Y-81186784D01*
X70299853Y-81334354D01*
X70174354Y-81459853D01*
X70026784Y-81558456D01*
X69862812Y-81626376D01*
X69713512Y-81656073D01*
X69688742Y-81661000D01*
X69511258Y-81661000D01*
X69486488Y-81656073D01*
X69337188Y-81626376D01*
X69173216Y-81558456D01*
X69025646Y-81459853D01*
X68900147Y-81334354D01*
X68801544Y-81186784D01*
X68733624Y-81022812D01*
X68699000Y-80848741D01*
X68699000Y-80671259D01*
X68733624Y-80497188D01*
X68801544Y-80333216D01*
X68900147Y-80185646D01*
X69025646Y-80060147D01*
X69173216Y-79961544D01*
X69337188Y-79893624D01*
X69496151Y-79862005D01*
X69511258Y-79859000D01*
X69688742Y-79859000D01*
X69703849Y-79862005D01*
G37*
G36*
X85645499Y-79742445D02*
G01*
X85682995Y-79753820D01*
X85717554Y-79772292D01*
X85747847Y-79797153D01*
X85772708Y-79827446D01*
X85791180Y-79862005D01*
X85802555Y-79899501D01*
X85807000Y-79944638D01*
X85807000Y-80583362D01*
X85802555Y-80628499D01*
X85791180Y-80665995D01*
X85772708Y-80700554D01*
X85747847Y-80730847D01*
X85717554Y-80755708D01*
X85682995Y-80774180D01*
X85645499Y-80785555D01*
X85600362Y-80790000D01*
X84861638Y-80790000D01*
X84816501Y-80785555D01*
X84779005Y-80774180D01*
X84744446Y-80755708D01*
X84714153Y-80730847D01*
X84689292Y-80700554D01*
X84670820Y-80665995D01*
X84659445Y-80628499D01*
X84655000Y-80583362D01*
X84655000Y-79944638D01*
X84659445Y-79899501D01*
X84670820Y-79862005D01*
X84689292Y-79827446D01*
X84714153Y-79797153D01*
X84744446Y-79772292D01*
X84779005Y-79753820D01*
X84816501Y-79742445D01*
X84861638Y-79738000D01*
X85600362Y-79738000D01*
X85645499Y-79742445D01*
G37*
G36*
X87395499Y-79742445D02*
G01*
X87432995Y-79753820D01*
X87467554Y-79772292D01*
X87497847Y-79797153D01*
X87522708Y-79827446D01*
X87541180Y-79862005D01*
X87552555Y-79899501D01*
X87557000Y-79944638D01*
X87557000Y-80583362D01*
X87552555Y-80628499D01*
X87541180Y-80665995D01*
X87522708Y-80700554D01*
X87497847Y-80730847D01*
X87467554Y-80755708D01*
X87432995Y-80774180D01*
X87395499Y-80785555D01*
X87350362Y-80790000D01*
X86611638Y-80790000D01*
X86566501Y-80785555D01*
X86529005Y-80774180D01*
X86494446Y-80755708D01*
X86464153Y-80730847D01*
X86439292Y-80700554D01*
X86420820Y-80665995D01*
X86409445Y-80628499D01*
X86405000Y-80583362D01*
X86405000Y-79944638D01*
X86409445Y-79899501D01*
X86420820Y-79862005D01*
X86439292Y-79827446D01*
X86464153Y-79797153D01*
X86494446Y-79772292D01*
X86529005Y-79753820D01*
X86566501Y-79742445D01*
X86611638Y-79738000D01*
X87350362Y-79738000D01*
X87395499Y-79742445D01*
G37*
G36*
X69713512Y-77323927D02*
G01*
X69862812Y-77353624D01*
X70026784Y-77421544D01*
X70174354Y-77520147D01*
X70299853Y-77645646D01*
X70398456Y-77793216D01*
X70466376Y-77957188D01*
X70501000Y-78131259D01*
X70501000Y-78308741D01*
X70466376Y-78482812D01*
X70398456Y-78646784D01*
X70299853Y-78794354D01*
X70174354Y-78919853D01*
X70026784Y-79018456D01*
X69862812Y-79086376D01*
X69713512Y-79116073D01*
X69688742Y-79121000D01*
X69511258Y-79121000D01*
X69486488Y-79116073D01*
X69337188Y-79086376D01*
X69173216Y-79018456D01*
X69025646Y-78919853D01*
X68900147Y-78794354D01*
X68801544Y-78646784D01*
X68733624Y-78482812D01*
X68699000Y-78308741D01*
X68699000Y-78131259D01*
X68733624Y-77957188D01*
X68801544Y-77793216D01*
X68900147Y-77645646D01*
X69025646Y-77520147D01*
X69173216Y-77421544D01*
X69337188Y-77353624D01*
X69486488Y-77323927D01*
X69511258Y-77319000D01*
X69688742Y-77319000D01*
X69713512Y-77323927D01*
G37*
G36*
X83359499Y-77964445D02*
G01*
X83396995Y-77975820D01*
X83431554Y-77994292D01*
X83461847Y-78019153D01*
X83486708Y-78049446D01*
X83505180Y-78084005D01*
X83516555Y-78121501D01*
X83521000Y-78166638D01*
X83521000Y-78805362D01*
X83516555Y-78850499D01*
X83505180Y-78887995D01*
X83486708Y-78922554D01*
X83461847Y-78952847D01*
X83431554Y-78977708D01*
X83396995Y-78996180D01*
X83359499Y-79007555D01*
X83314362Y-79012000D01*
X82575638Y-79012000D01*
X82530501Y-79007555D01*
X82493005Y-78996180D01*
X82458446Y-78977708D01*
X82428153Y-78952847D01*
X82403292Y-78922554D01*
X82384820Y-78887995D01*
X82373445Y-78850499D01*
X82369000Y-78805362D01*
X82369000Y-78166638D01*
X82373445Y-78121501D01*
X82384820Y-78084005D01*
X82403292Y-78049446D01*
X82428153Y-78019153D01*
X82458446Y-77994292D01*
X82493005Y-77975820D01*
X82530501Y-77964445D01*
X82575638Y-77960000D01*
X83314362Y-77960000D01*
X83359499Y-77964445D01*
G37*
G36*
X89427499Y-77964445D02*
G01*
X89464995Y-77975820D01*
X89499554Y-77994292D01*
X89529847Y-78019153D01*
X89554708Y-78049446D01*
X89573180Y-78084005D01*
X89584555Y-78121501D01*
X89589000Y-78166638D01*
X89589000Y-78805362D01*
X89584555Y-78850499D01*
X89573180Y-78887995D01*
X89554708Y-78922554D01*
X89529847Y-78952847D01*
X89499554Y-78977708D01*
X89464995Y-78996180D01*
X89427499Y-79007555D01*
X89382362Y-79012000D01*
X88643638Y-79012000D01*
X88598501Y-79007555D01*
X88561005Y-78996180D01*
X88526446Y-78977708D01*
X88496153Y-78952847D01*
X88471292Y-78922554D01*
X88452820Y-78887995D01*
X88441445Y-78850499D01*
X88437000Y-78805362D01*
X88437000Y-78166638D01*
X88441445Y-78121501D01*
X88452820Y-78084005D01*
X88471292Y-78049446D01*
X88496153Y-78019153D01*
X88526446Y-77994292D01*
X88561005Y-77975820D01*
X88598501Y-77964445D01*
X88643638Y-77960000D01*
X89382362Y-77960000D01*
X89427499Y-77964445D01*
G37*
G36*
X87677499Y-77964445D02*
G01*
X87714995Y-77975820D01*
X87749554Y-77994292D01*
X87779847Y-78019153D01*
X87804708Y-78049446D01*
X87823180Y-78084005D01*
X87834555Y-78121501D01*
X87839000Y-78166638D01*
X87839000Y-78805362D01*
X87834555Y-78850499D01*
X87823180Y-78887995D01*
X87804708Y-78922554D01*
X87779847Y-78952847D01*
X87749554Y-78977708D01*
X87714995Y-78996180D01*
X87677499Y-79007555D01*
X87632362Y-79012000D01*
X86893638Y-79012000D01*
X86848501Y-79007555D01*
X86811005Y-78996180D01*
X86776446Y-78977708D01*
X86746153Y-78952847D01*
X86721292Y-78922554D01*
X86702820Y-78887995D01*
X86691445Y-78850499D01*
X86687000Y-78805362D01*
X86687000Y-78166638D01*
X86691445Y-78121501D01*
X86702820Y-78084005D01*
X86721292Y-78049446D01*
X86746153Y-78019153D01*
X86776446Y-77994292D01*
X86811005Y-77975820D01*
X86848501Y-77964445D01*
X86893638Y-77960000D01*
X87632362Y-77960000D01*
X87677499Y-77964445D01*
G37*
G36*
X85109499Y-77964445D02*
G01*
X85146995Y-77975820D01*
X85181554Y-77994292D01*
X85211847Y-78019153D01*
X85236708Y-78049446D01*
X85255180Y-78084005D01*
X85266555Y-78121501D01*
X85271000Y-78166638D01*
X85271000Y-78805362D01*
X85266555Y-78850499D01*
X85255180Y-78887995D01*
X85236708Y-78922554D01*
X85211847Y-78952847D01*
X85181554Y-78977708D01*
X85146995Y-78996180D01*
X85109499Y-79007555D01*
X85064362Y-79012000D01*
X84325638Y-79012000D01*
X84280501Y-79007555D01*
X84243005Y-78996180D01*
X84208446Y-78977708D01*
X84178153Y-78952847D01*
X84153292Y-78922554D01*
X84134820Y-78887995D01*
X84123445Y-78850499D01*
X84119000Y-78805362D01*
X84119000Y-78166638D01*
X84123445Y-78121501D01*
X84134820Y-78084005D01*
X84153292Y-78049446D01*
X84178153Y-78019153D01*
X84208446Y-77994292D01*
X84243005Y-77975820D01*
X84280501Y-77964445D01*
X84325638Y-77960000D01*
X85064362Y-77960000D01*
X85109499Y-77964445D01*
G37*
G36*
X79549499Y-77710445D02*
G01*
X79586995Y-77721820D01*
X79621554Y-77740292D01*
X79651847Y-77765153D01*
X79676708Y-77795446D01*
X79695180Y-77830005D01*
X79706555Y-77867501D01*
X79711000Y-77912638D01*
X79711000Y-78551362D01*
X79706555Y-78596499D01*
X79695180Y-78633995D01*
X79676708Y-78668554D01*
X79651847Y-78698847D01*
X79621554Y-78723708D01*
X79586995Y-78742180D01*
X79549499Y-78753555D01*
X79504362Y-78758000D01*
X78765638Y-78758000D01*
X78720501Y-78753555D01*
X78683005Y-78742180D01*
X78648446Y-78723708D01*
X78618153Y-78698847D01*
X78593292Y-78668554D01*
X78574820Y-78633995D01*
X78563445Y-78596499D01*
X78559000Y-78551362D01*
X78559000Y-77912638D01*
X78563445Y-77867501D01*
X78574820Y-77830005D01*
X78593292Y-77795446D01*
X78618153Y-77765153D01*
X78648446Y-77740292D01*
X78683005Y-77721820D01*
X78720501Y-77710445D01*
X78765638Y-77706000D01*
X79504362Y-77706000D01*
X79549499Y-77710445D01*
G37*
G36*
X81299499Y-77710445D02*
G01*
X81336995Y-77721820D01*
X81371554Y-77740292D01*
X81401847Y-77765153D01*
X81426708Y-77795446D01*
X81445180Y-77830005D01*
X81456555Y-77867501D01*
X81461000Y-77912638D01*
X81461000Y-78551362D01*
X81456555Y-78596499D01*
X81445180Y-78633995D01*
X81426708Y-78668554D01*
X81401847Y-78698847D01*
X81371554Y-78723708D01*
X81336995Y-78742180D01*
X81299499Y-78753555D01*
X81254362Y-78758000D01*
X80515638Y-78758000D01*
X80470501Y-78753555D01*
X80433005Y-78742180D01*
X80398446Y-78723708D01*
X80368153Y-78698847D01*
X80343292Y-78668554D01*
X80324820Y-78633995D01*
X80313445Y-78596499D01*
X80309000Y-78551362D01*
X80309000Y-77912638D01*
X80313445Y-77867501D01*
X80324820Y-77830005D01*
X80343292Y-77795446D01*
X80368153Y-77765153D01*
X80398446Y-77740292D01*
X80433005Y-77721820D01*
X80470501Y-77710445D01*
X80515638Y-77706000D01*
X81254362Y-77706000D01*
X81299499Y-77710445D01*
G37*
G36*
X99841499Y-77456445D02*
G01*
X99878995Y-77467820D01*
X99913554Y-77486292D01*
X99943847Y-77511153D01*
X99968708Y-77541446D01*
X99987180Y-77576005D01*
X99998555Y-77613501D01*
X100003000Y-77658638D01*
X100003000Y-78297362D01*
X99998555Y-78342499D01*
X99987180Y-78379995D01*
X99968708Y-78414554D01*
X99943847Y-78444847D01*
X99913554Y-78469708D01*
X99878995Y-78488180D01*
X99841499Y-78499555D01*
X99796362Y-78504000D01*
X99057638Y-78504000D01*
X99012501Y-78499555D01*
X98975005Y-78488180D01*
X98940446Y-78469708D01*
X98910153Y-78444847D01*
X98885292Y-78414554D01*
X98866820Y-78379995D01*
X98855445Y-78342499D01*
X98851000Y-78297362D01*
X98851000Y-77658638D01*
X98855445Y-77613501D01*
X98866820Y-77576005D01*
X98885292Y-77541446D01*
X98910153Y-77511153D01*
X98940446Y-77486292D01*
X98975005Y-77467820D01*
X99012501Y-77456445D01*
X99057638Y-77452000D01*
X99796362Y-77452000D01*
X99841499Y-77456445D01*
G37*
G36*
X93773499Y-77456445D02*
G01*
X93810995Y-77467820D01*
X93845554Y-77486292D01*
X93875847Y-77511153D01*
X93900708Y-77541446D01*
X93919180Y-77576005D01*
X93930555Y-77613501D01*
X93935000Y-77658638D01*
X93935000Y-78297362D01*
X93930555Y-78342499D01*
X93919180Y-78379995D01*
X93900708Y-78414554D01*
X93875847Y-78444847D01*
X93845554Y-78469708D01*
X93810995Y-78488180D01*
X93773499Y-78499555D01*
X93728362Y-78504000D01*
X92989638Y-78504000D01*
X92944501Y-78499555D01*
X92907005Y-78488180D01*
X92872446Y-78469708D01*
X92842153Y-78444847D01*
X92817292Y-78414554D01*
X92798820Y-78379995D01*
X92787445Y-78342499D01*
X92783000Y-78297362D01*
X92783000Y-77658638D01*
X92787445Y-77613501D01*
X92798820Y-77576005D01*
X92817292Y-77541446D01*
X92842153Y-77511153D01*
X92872446Y-77486292D01*
X92907005Y-77467820D01*
X92944501Y-77456445D01*
X92989638Y-77452000D01*
X93728362Y-77452000D01*
X93773499Y-77456445D01*
G37*
G36*
X98091499Y-77456445D02*
G01*
X98128995Y-77467820D01*
X98163554Y-77486292D01*
X98193847Y-77511153D01*
X98218708Y-77541446D01*
X98237180Y-77576005D01*
X98248555Y-77613501D01*
X98253000Y-77658638D01*
X98253000Y-78297362D01*
X98248555Y-78342499D01*
X98237180Y-78379995D01*
X98218708Y-78414554D01*
X98193847Y-78444847D01*
X98163554Y-78469708D01*
X98128995Y-78488180D01*
X98091499Y-78499555D01*
X98046362Y-78504000D01*
X97307638Y-78504000D01*
X97262501Y-78499555D01*
X97225005Y-78488180D01*
X97190446Y-78469708D01*
X97160153Y-78444847D01*
X97135292Y-78414554D01*
X97116820Y-78379995D01*
X97105445Y-78342499D01*
X97101000Y-78297362D01*
X97101000Y-77658638D01*
X97105445Y-77613501D01*
X97116820Y-77576005D01*
X97135292Y-77541446D01*
X97160153Y-77511153D01*
X97190446Y-77486292D01*
X97225005Y-77467820D01*
X97262501Y-77456445D01*
X97307638Y-77452000D01*
X98046362Y-77452000D01*
X98091499Y-77456445D01*
G37*
G36*
X95523499Y-77456445D02*
G01*
X95560995Y-77467820D01*
X95595554Y-77486292D01*
X95625847Y-77511153D01*
X95650708Y-77541446D01*
X95669180Y-77576005D01*
X95680555Y-77613501D01*
X95685000Y-77658638D01*
X95685000Y-78297362D01*
X95680555Y-78342499D01*
X95669180Y-78379995D01*
X95650708Y-78414554D01*
X95625847Y-78444847D01*
X95595554Y-78469708D01*
X95560995Y-78488180D01*
X95523499Y-78499555D01*
X95478362Y-78504000D01*
X94739638Y-78504000D01*
X94694501Y-78499555D01*
X94657005Y-78488180D01*
X94622446Y-78469708D01*
X94592153Y-78444847D01*
X94567292Y-78414554D01*
X94548820Y-78379995D01*
X94537445Y-78342499D01*
X94533000Y-78297362D01*
X94533000Y-77658638D01*
X94537445Y-77613501D01*
X94548820Y-77576005D01*
X94567292Y-77541446D01*
X94592153Y-77511153D01*
X94622446Y-77486292D01*
X94657005Y-77467820D01*
X94694501Y-77456445D01*
X94739638Y-77452000D01*
X95478362Y-77452000D01*
X95523499Y-77456445D01*
G37*
G36*
X29673512Y-76703927D02*
G01*
X29822812Y-76733624D01*
X29986784Y-76801544D01*
X30134354Y-76900147D01*
X30259853Y-77025646D01*
X30358456Y-77173216D01*
X30426376Y-77337188D01*
X30461000Y-77511259D01*
X30461000Y-77688741D01*
X30426376Y-77862812D01*
X30358456Y-78026784D01*
X30259853Y-78174354D01*
X30134354Y-78299853D01*
X29986784Y-78398456D01*
X29822812Y-78466376D01*
X29678906Y-78495000D01*
X29648742Y-78501000D01*
X29471258Y-78501000D01*
X29441094Y-78495000D01*
X29297188Y-78466376D01*
X29133216Y-78398456D01*
X28985646Y-78299853D01*
X28860147Y-78174354D01*
X28761544Y-78026784D01*
X28693624Y-77862812D01*
X28659000Y-77688741D01*
X28659000Y-77511259D01*
X28693624Y-77337188D01*
X28761544Y-77173216D01*
X28860147Y-77025646D01*
X28985646Y-76900147D01*
X29133216Y-76801544D01*
X29297188Y-76733624D01*
X29446488Y-76703927D01*
X29471258Y-76699000D01*
X29648742Y-76699000D01*
X29673512Y-76703927D01*
G37*
G36*
X33001000Y-78501000D02*
G01*
X31199000Y-78501000D01*
X31199000Y-76699000D01*
X33001000Y-76699000D01*
X33001000Y-78501000D01*
G37*
G36*
X74540721Y-72530174D02*
G01*
X74640995Y-72571709D01*
X74640996Y-72571710D01*
X74731242Y-72632010D01*
X74807990Y-72708758D01*
X74810970Y-72713218D01*
X74868291Y-72799005D01*
X74899516Y-72874389D01*
X74911067Y-72896000D01*
X74926612Y-72914941D01*
X74945554Y-72930487D01*
X74967165Y-72942038D01*
X74990614Y-72949151D01*
X75015000Y-72951553D01*
X75039386Y-72949151D01*
X75062835Y-72942038D01*
X75084446Y-72930487D01*
X75103387Y-72914942D01*
X75118933Y-72896000D01*
X75130484Y-72874389D01*
X75161709Y-72799005D01*
X75219030Y-72713218D01*
X75222010Y-72708758D01*
X75298758Y-72632010D01*
X75389004Y-72571710D01*
X75389005Y-72571709D01*
X75489279Y-72530174D01*
X75595730Y-72509000D01*
X75704270Y-72509000D01*
X75810721Y-72530174D01*
X75910995Y-72571709D01*
X75910996Y-72571710D01*
X76001242Y-72632010D01*
X76077990Y-72708758D01*
X76080970Y-72713218D01*
X76138291Y-72799005D01*
X76179826Y-72899279D01*
X76201000Y-73005730D01*
X76201000Y-73114270D01*
X76179826Y-73220721D01*
X76138291Y-73320995D01*
X76138290Y-73320996D01*
X76077990Y-73411242D01*
X76001242Y-73487990D01*
X75955812Y-73518345D01*
X75910995Y-73548291D01*
X75835611Y-73579516D01*
X75814000Y-73591067D01*
X75795059Y-73606612D01*
X75779513Y-73625554D01*
X75767962Y-73647165D01*
X75760849Y-73670614D01*
X75758447Y-73695000D01*
X75760849Y-73719386D01*
X75767962Y-73742835D01*
X75779513Y-73764446D01*
X75795058Y-73783387D01*
X75814000Y-73798933D01*
X75835611Y-73810484D01*
X75910995Y-73841709D01*
X75910996Y-73841710D01*
X76001242Y-73902010D01*
X76077990Y-73978758D01*
X76108345Y-74024188D01*
X76138291Y-74069005D01*
X76179826Y-74169279D01*
X76201000Y-74275730D01*
X76201000Y-74384270D01*
X76179826Y-74490721D01*
X76138291Y-74590995D01*
X76138290Y-74590996D01*
X76077990Y-74681242D01*
X76001242Y-74757990D01*
X75969798Y-74779000D01*
X75910995Y-74818291D01*
X75835611Y-74849516D01*
X75814000Y-74861067D01*
X75795059Y-74876612D01*
X75779513Y-74895554D01*
X75767962Y-74917165D01*
X75760849Y-74940614D01*
X75758447Y-74965000D01*
X75760849Y-74989386D01*
X75767962Y-75012835D01*
X75779513Y-75034446D01*
X75795058Y-75053387D01*
X75814000Y-75068933D01*
X75835611Y-75080484D01*
X75910995Y-75111709D01*
X75910996Y-75111710D01*
X76001242Y-75172010D01*
X76077990Y-75248758D01*
X76080970Y-75253218D01*
X76138291Y-75339005D01*
X76179826Y-75439279D01*
X76201000Y-75545730D01*
X76201000Y-75654270D01*
X76179826Y-75760721D01*
X76138291Y-75860995D01*
X76138290Y-75860996D01*
X76077990Y-75951242D01*
X76001242Y-76027990D01*
X75969816Y-76048988D01*
X75908336Y-76090068D01*
X75889394Y-76105614D01*
X75873849Y-76124556D01*
X75862298Y-76146167D01*
X75855185Y-76169615D01*
X75852783Y-76194002D01*
X75855185Y-76218388D01*
X75862298Y-76241837D01*
X75873849Y-76263447D01*
X75889395Y-76282389D01*
X75908337Y-76297934D01*
X75929948Y-76309485D01*
X75953396Y-76316598D01*
X75977782Y-76319000D01*
X76201000Y-76319000D01*
X76201000Y-77421000D01*
X75099000Y-77421000D01*
X75099000Y-77197782D01*
X75096598Y-77173396D01*
X75089485Y-77149947D01*
X75077934Y-77128336D01*
X75062389Y-77109394D01*
X75043447Y-77093849D01*
X75021836Y-77082298D01*
X74998387Y-77075185D01*
X74974001Y-77072783D01*
X74949615Y-77075185D01*
X74926166Y-77082298D01*
X74904555Y-77093849D01*
X74885613Y-77109394D01*
X74870068Y-77128336D01*
X74828988Y-77189816D01*
X74807990Y-77221242D01*
X74731242Y-77297990D01*
X74699798Y-77319000D01*
X74640995Y-77358291D01*
X74540721Y-77399826D01*
X74434270Y-77421000D01*
X74325730Y-77421000D01*
X74219279Y-77399826D01*
X74119005Y-77358291D01*
X74060202Y-77319000D01*
X74028758Y-77297990D01*
X73952010Y-77221242D01*
X73919920Y-77173216D01*
X73891709Y-77130995D01*
X73850174Y-77030721D01*
X73829000Y-76924270D01*
X73829000Y-76815730D01*
X73850174Y-76709279D01*
X73891709Y-76609005D01*
X73921655Y-76564188D01*
X73952010Y-76518758D01*
X74028758Y-76442010D01*
X74119004Y-76381710D01*
X74119005Y-76381709D01*
X74194389Y-76350484D01*
X74216000Y-76338933D01*
X74234941Y-76323388D01*
X74250487Y-76304446D01*
X74262038Y-76282835D01*
X74269151Y-76259386D01*
X74271553Y-76235000D01*
X74488447Y-76235000D01*
X74490849Y-76259386D01*
X74497962Y-76282835D01*
X74509513Y-76304446D01*
X74525058Y-76323387D01*
X74544000Y-76338933D01*
X74565611Y-76350484D01*
X74640995Y-76381709D01*
X74640996Y-76381710D01*
X74731242Y-76442010D01*
X74807990Y-76518758D01*
X74807991Y-76518760D01*
X74870068Y-76611664D01*
X74885614Y-76630606D01*
X74904556Y-76646151D01*
X74926167Y-76657702D01*
X74949615Y-76664815D01*
X74974002Y-76667217D01*
X74998388Y-76664815D01*
X75021837Y-76657702D01*
X75043447Y-76646151D01*
X75062389Y-76630605D01*
X75077934Y-76611663D01*
X75089485Y-76590052D01*
X75096598Y-76566604D01*
X75099000Y-76542218D01*
X75099000Y-76319000D01*
X75322218Y-76319000D01*
X75346604Y-76316598D01*
X75370053Y-76309485D01*
X75391664Y-76297934D01*
X75410606Y-76282389D01*
X75426151Y-76263447D01*
X75437702Y-76241836D01*
X75444815Y-76218387D01*
X75447217Y-76194001D01*
X75444815Y-76169615D01*
X75437702Y-76146166D01*
X75426151Y-76124555D01*
X75410606Y-76105613D01*
X75391664Y-76090068D01*
X75330184Y-76048988D01*
X75298758Y-76027990D01*
X75222010Y-75951242D01*
X75161710Y-75860996D01*
X75161709Y-75860995D01*
X75130484Y-75785611D01*
X75118933Y-75764000D01*
X75103388Y-75745059D01*
X75084446Y-75729513D01*
X75062835Y-75717962D01*
X75039386Y-75710849D01*
X75015000Y-75708447D01*
X74990614Y-75710849D01*
X74967165Y-75717962D01*
X74945554Y-75729513D01*
X74926613Y-75745058D01*
X74911067Y-75764000D01*
X74899516Y-75785611D01*
X74868291Y-75860995D01*
X74868290Y-75860996D01*
X74807990Y-75951242D01*
X74731242Y-76027990D01*
X74685812Y-76058345D01*
X74640995Y-76088291D01*
X74565611Y-76119516D01*
X74544000Y-76131067D01*
X74525059Y-76146612D01*
X74509513Y-76165554D01*
X74497962Y-76187165D01*
X74490849Y-76210614D01*
X74488447Y-76235000D01*
X74271553Y-76235000D01*
X74269151Y-76210614D01*
X74262038Y-76187165D01*
X74250487Y-76165554D01*
X74234942Y-76146613D01*
X74216000Y-76131067D01*
X74194389Y-76119516D01*
X74119005Y-76088291D01*
X74074188Y-76058345D01*
X74028758Y-76027990D01*
X73952010Y-75951242D01*
X73891710Y-75860996D01*
X73891709Y-75860995D01*
X73850174Y-75760721D01*
X73829000Y-75654270D01*
X73829000Y-75545730D01*
X73850174Y-75439279D01*
X73891709Y-75339005D01*
X73949030Y-75253218D01*
X73952010Y-75248758D01*
X74028758Y-75172010D01*
X74119004Y-75111710D01*
X74119005Y-75111709D01*
X74194389Y-75080484D01*
X74216000Y-75068933D01*
X74234941Y-75053388D01*
X74250487Y-75034446D01*
X74262038Y-75012835D01*
X74269151Y-74989386D01*
X74271553Y-74965000D01*
X74488447Y-74965000D01*
X74490849Y-74989386D01*
X74497962Y-75012835D01*
X74509513Y-75034446D01*
X74525058Y-75053387D01*
X74544000Y-75068933D01*
X74565611Y-75080484D01*
X74640995Y-75111709D01*
X74640996Y-75111710D01*
X74731242Y-75172010D01*
X74807990Y-75248758D01*
X74810970Y-75253218D01*
X74868291Y-75339005D01*
X74899516Y-75414389D01*
X74911067Y-75436000D01*
X74926612Y-75454941D01*
X74945554Y-75470487D01*
X74967165Y-75482038D01*
X74990614Y-75489151D01*
X75015000Y-75491553D01*
X75039386Y-75489151D01*
X75062835Y-75482038D01*
X75084446Y-75470487D01*
X75103387Y-75454942D01*
X75118933Y-75436000D01*
X75130484Y-75414389D01*
X75161709Y-75339005D01*
X75219030Y-75253218D01*
X75222010Y-75248758D01*
X75298758Y-75172010D01*
X75389004Y-75111710D01*
X75389005Y-75111709D01*
X75464389Y-75080484D01*
X75486000Y-75068933D01*
X75504941Y-75053388D01*
X75520487Y-75034446D01*
X75532038Y-75012835D01*
X75539151Y-74989386D01*
X75541553Y-74965000D01*
X75539151Y-74940614D01*
X75532038Y-74917165D01*
X75520487Y-74895554D01*
X75504942Y-74876613D01*
X75486000Y-74861067D01*
X75464389Y-74849516D01*
X75389005Y-74818291D01*
X75330202Y-74779000D01*
X75298758Y-74757990D01*
X75222010Y-74681242D01*
X75161710Y-74590996D01*
X75161709Y-74590995D01*
X75130484Y-74515611D01*
X75118933Y-74494000D01*
X75103388Y-74475059D01*
X75084446Y-74459513D01*
X75062835Y-74447962D01*
X75039386Y-74440849D01*
X75015000Y-74438447D01*
X74990614Y-74440849D01*
X74967165Y-74447962D01*
X74945554Y-74459513D01*
X74926613Y-74475058D01*
X74911067Y-74494000D01*
X74899516Y-74515611D01*
X74868291Y-74590995D01*
X74868290Y-74590996D01*
X74807990Y-74681242D01*
X74731242Y-74757990D01*
X74699798Y-74779000D01*
X74640995Y-74818291D01*
X74565611Y-74849516D01*
X74544000Y-74861067D01*
X74525059Y-74876612D01*
X74509513Y-74895554D01*
X74497962Y-74917165D01*
X74490849Y-74940614D01*
X74488447Y-74965000D01*
X74271553Y-74965000D01*
X74269151Y-74940614D01*
X74262038Y-74917165D01*
X74250487Y-74895554D01*
X74234942Y-74876613D01*
X74216000Y-74861067D01*
X74194389Y-74849516D01*
X74119005Y-74818291D01*
X74060202Y-74779000D01*
X74028758Y-74757990D01*
X73952010Y-74681242D01*
X73891710Y-74590996D01*
X73891709Y-74590995D01*
X73850174Y-74490721D01*
X73829000Y-74384270D01*
X73829000Y-74275730D01*
X73850174Y-74169279D01*
X73891709Y-74069005D01*
X73921655Y-74024188D01*
X73952010Y-73978758D01*
X74028758Y-73902010D01*
X74119004Y-73841710D01*
X74119005Y-73841709D01*
X74194389Y-73810484D01*
X74216000Y-73798933D01*
X74234941Y-73783388D01*
X74250487Y-73764446D01*
X74262038Y-73742835D01*
X74269151Y-73719386D01*
X74271553Y-73695000D01*
X74488447Y-73695000D01*
X74490849Y-73719386D01*
X74497962Y-73742835D01*
X74509513Y-73764446D01*
X74525058Y-73783387D01*
X74544000Y-73798933D01*
X74565611Y-73810484D01*
X74640995Y-73841709D01*
X74640996Y-73841710D01*
X74731242Y-73902010D01*
X74807990Y-73978758D01*
X74838345Y-74024188D01*
X74868291Y-74069005D01*
X74899516Y-74144389D01*
X74911067Y-74166000D01*
X74926612Y-74184941D01*
X74945554Y-74200487D01*
X74967165Y-74212038D01*
X74990614Y-74219151D01*
X75015000Y-74221553D01*
X75039386Y-74219151D01*
X75062835Y-74212038D01*
X75084446Y-74200487D01*
X75103387Y-74184942D01*
X75118933Y-74166000D01*
X75130484Y-74144389D01*
X75161709Y-74069005D01*
X75191655Y-74024188D01*
X75222010Y-73978758D01*
X75298758Y-73902010D01*
X75389004Y-73841710D01*
X75389005Y-73841709D01*
X75464389Y-73810484D01*
X75486000Y-73798933D01*
X75504941Y-73783388D01*
X75520487Y-73764446D01*
X75532038Y-73742835D01*
X75539151Y-73719386D01*
X75541553Y-73695000D01*
X75539151Y-73670614D01*
X75532038Y-73647165D01*
X75520487Y-73625554D01*
X75504942Y-73606613D01*
X75486000Y-73591067D01*
X75464389Y-73579516D01*
X75389005Y-73548291D01*
X75344188Y-73518345D01*
X75298758Y-73487990D01*
X75222010Y-73411242D01*
X75161710Y-73320996D01*
X75161709Y-73320995D01*
X75130484Y-73245611D01*
X75118933Y-73224000D01*
X75103388Y-73205059D01*
X75084446Y-73189513D01*
X75062835Y-73177962D01*
X75039386Y-73170849D01*
X75015000Y-73168447D01*
X74990614Y-73170849D01*
X74967165Y-73177962D01*
X74945554Y-73189513D01*
X74926613Y-73205058D01*
X74911067Y-73224000D01*
X74899516Y-73245611D01*
X74868291Y-73320995D01*
X74868290Y-73320996D01*
X74807990Y-73411242D01*
X74731242Y-73487990D01*
X74685812Y-73518345D01*
X74640995Y-73548291D01*
X74565611Y-73579516D01*
X74544000Y-73591067D01*
X74525059Y-73606612D01*
X74509513Y-73625554D01*
X74497962Y-73647165D01*
X74490849Y-73670614D01*
X74488447Y-73695000D01*
X74271553Y-73695000D01*
X74269151Y-73670614D01*
X74262038Y-73647165D01*
X74250487Y-73625554D01*
X74234942Y-73606613D01*
X74216000Y-73591067D01*
X74194389Y-73579516D01*
X74119005Y-73548291D01*
X74074188Y-73518345D01*
X74028758Y-73487990D01*
X73952010Y-73411242D01*
X73891710Y-73320996D01*
X73891709Y-73320995D01*
X73850174Y-73220721D01*
X73829000Y-73114270D01*
X73829000Y-73005730D01*
X73850174Y-72899279D01*
X73891709Y-72799005D01*
X73949030Y-72713218D01*
X73952010Y-72708758D01*
X74028758Y-72632010D01*
X74119004Y-72571710D01*
X74119005Y-72571709D01*
X74219279Y-72530174D01*
X74325730Y-72509000D01*
X74434270Y-72509000D01*
X74540721Y-72530174D01*
G37*
G36*
X69713512Y-74783927D02*
G01*
X69862812Y-74813624D01*
X70026784Y-74881544D01*
X70174354Y-74980147D01*
X70299853Y-75105646D01*
X70398456Y-75253216D01*
X70466376Y-75417188D01*
X70501000Y-75591259D01*
X70501000Y-75768741D01*
X70466376Y-75942812D01*
X70398456Y-76106784D01*
X70299853Y-76254354D01*
X70174354Y-76379853D01*
X70026784Y-76478456D01*
X69862812Y-76546376D01*
X69713512Y-76576073D01*
X69688742Y-76581000D01*
X69511258Y-76581000D01*
X69486488Y-76576073D01*
X69337188Y-76546376D01*
X69173216Y-76478456D01*
X69025646Y-76379853D01*
X68900147Y-76254354D01*
X68801544Y-76106784D01*
X68733624Y-75942812D01*
X68699000Y-75768741D01*
X68699000Y-75591259D01*
X68733624Y-75417188D01*
X68801544Y-75253216D01*
X68900147Y-75105646D01*
X69025646Y-74980147D01*
X69173216Y-74881544D01*
X69337188Y-74813624D01*
X69486488Y-74783927D01*
X69511258Y-74779000D01*
X69688742Y-74779000D01*
X69713512Y-74783927D01*
G37*
G36*
X87786823Y-74345313D02*
G01*
X87947242Y-74393976D01*
X88069853Y-74459513D01*
X88095078Y-74472996D01*
X88224659Y-74579341D01*
X88331004Y-74708922D01*
X88331005Y-74708924D01*
X88410024Y-74856758D01*
X88458687Y-75017177D01*
X88475117Y-75184000D01*
X88458687Y-75350823D01*
X88410024Y-75511242D01*
X88367254Y-75591259D01*
X88331004Y-75659078D01*
X88224659Y-75788659D01*
X88095078Y-75895004D01*
X88095076Y-75895005D01*
X87947242Y-75974024D01*
X87786823Y-76022687D01*
X87661804Y-76035000D01*
X86778196Y-76035000D01*
X86653177Y-76022687D01*
X86492758Y-75974024D01*
X86344924Y-75895005D01*
X86344922Y-75895004D01*
X86215341Y-75788659D01*
X86108996Y-75659078D01*
X86072746Y-75591259D01*
X86029976Y-75511242D01*
X85981313Y-75350823D01*
X85964883Y-75184000D01*
X85981313Y-75017177D01*
X86029976Y-74856758D01*
X86108995Y-74708924D01*
X86108996Y-74708922D01*
X86215341Y-74579341D01*
X86344922Y-74472996D01*
X86370147Y-74459513D01*
X86492758Y-74393976D01*
X86653177Y-74345313D01*
X86778196Y-74333000D01*
X87661804Y-74333000D01*
X87786823Y-74345313D01*
G37*
G36*
X80166823Y-74345313D02*
G01*
X80327242Y-74393976D01*
X80449853Y-74459513D01*
X80475078Y-74472996D01*
X80604659Y-74579341D01*
X80711004Y-74708922D01*
X80711005Y-74708924D01*
X80790024Y-74856758D01*
X80838687Y-75017177D01*
X80855117Y-75184000D01*
X80838687Y-75350823D01*
X80790024Y-75511242D01*
X80747254Y-75591259D01*
X80711004Y-75659078D01*
X80604659Y-75788659D01*
X80475078Y-75895004D01*
X80475076Y-75895005D01*
X80327242Y-75974024D01*
X80166823Y-76022687D01*
X80041804Y-76035000D01*
X79158196Y-76035000D01*
X79033177Y-76022687D01*
X78872758Y-75974024D01*
X78724924Y-75895005D01*
X78724922Y-75895004D01*
X78595341Y-75788659D01*
X78488996Y-75659078D01*
X78452746Y-75591259D01*
X78409976Y-75511242D01*
X78361313Y-75350823D01*
X78344883Y-75184000D01*
X78361313Y-75017177D01*
X78409976Y-74856758D01*
X78488995Y-74708924D01*
X78488996Y-74708922D01*
X78595341Y-74579341D01*
X78724922Y-74472996D01*
X78750147Y-74459513D01*
X78872758Y-74393976D01*
X79033177Y-74345313D01*
X79158196Y-74333000D01*
X80041804Y-74333000D01*
X80166823Y-74345313D01*
G37*
G36*
X94027499Y-74916445D02*
G01*
X94064995Y-74927820D01*
X94099554Y-74946292D01*
X94129847Y-74971153D01*
X94154708Y-75001446D01*
X94173180Y-75036005D01*
X94184555Y-75073501D01*
X94189000Y-75118638D01*
X94189000Y-75757362D01*
X94184555Y-75802499D01*
X94173180Y-75839995D01*
X94154708Y-75874554D01*
X94129847Y-75904847D01*
X94099554Y-75929708D01*
X94064995Y-75948180D01*
X94027499Y-75959555D01*
X93982362Y-75964000D01*
X93243638Y-75964000D01*
X93198501Y-75959555D01*
X93161005Y-75948180D01*
X93126446Y-75929708D01*
X93096153Y-75904847D01*
X93071292Y-75874554D01*
X93052820Y-75839995D01*
X93041445Y-75802499D01*
X93037000Y-75757362D01*
X93037000Y-75118638D01*
X93041445Y-75073501D01*
X93052820Y-75036005D01*
X93071292Y-75001446D01*
X93096153Y-74971153D01*
X93126446Y-74946292D01*
X93161005Y-74927820D01*
X93198501Y-74916445D01*
X93243638Y-74912000D01*
X93982362Y-74912000D01*
X94027499Y-74916445D01*
G37*
G36*
X95777499Y-74916445D02*
G01*
X95814995Y-74927820D01*
X95849554Y-74946292D01*
X95879847Y-74971153D01*
X95904708Y-75001446D01*
X95923180Y-75036005D01*
X95934555Y-75073501D01*
X95939000Y-75118638D01*
X95939000Y-75757362D01*
X95934555Y-75802499D01*
X95923180Y-75839995D01*
X95904708Y-75874554D01*
X95879847Y-75904847D01*
X95849554Y-75929708D01*
X95814995Y-75948180D01*
X95777499Y-75959555D01*
X95732362Y-75964000D01*
X94993638Y-75964000D01*
X94948501Y-75959555D01*
X94911005Y-75948180D01*
X94876446Y-75929708D01*
X94846153Y-75904847D01*
X94821292Y-75874554D01*
X94802820Y-75839995D01*
X94791445Y-75802499D01*
X94787000Y-75757362D01*
X94787000Y-75118638D01*
X94791445Y-75073501D01*
X94802820Y-75036005D01*
X94821292Y-75001446D01*
X94846153Y-74971153D01*
X94876446Y-74946292D01*
X94911005Y-74927820D01*
X94948501Y-74916445D01*
X94993638Y-74912000D01*
X95732362Y-74912000D01*
X95777499Y-74916445D01*
G37*
G36*
X29673512Y-74163927D02*
G01*
X29822812Y-74193624D01*
X29986784Y-74261544D01*
X30134354Y-74360147D01*
X30259853Y-74485646D01*
X30358456Y-74633216D01*
X30426376Y-74797188D01*
X30461000Y-74971259D01*
X30461000Y-75148741D01*
X30426376Y-75322812D01*
X30358456Y-75486784D01*
X30259853Y-75634354D01*
X30134354Y-75759853D01*
X29986784Y-75858456D01*
X29822812Y-75926376D01*
X29673512Y-75956073D01*
X29648742Y-75961000D01*
X29471258Y-75961000D01*
X29446488Y-75956073D01*
X29297188Y-75926376D01*
X29133216Y-75858456D01*
X28985646Y-75759853D01*
X28860147Y-75634354D01*
X28761544Y-75486784D01*
X28693624Y-75322812D01*
X28659000Y-75148741D01*
X28659000Y-74971259D01*
X28693624Y-74797188D01*
X28761544Y-74633216D01*
X28860147Y-74485646D01*
X28985646Y-74360147D01*
X29133216Y-74261544D01*
X29297188Y-74193624D01*
X29446488Y-74163927D01*
X29471258Y-74159000D01*
X29648742Y-74159000D01*
X29673512Y-74163927D01*
G37*
G36*
X32213512Y-74163927D02*
G01*
X32362812Y-74193624D01*
X32526784Y-74261544D01*
X32674354Y-74360147D01*
X32799853Y-74485646D01*
X32898456Y-74633216D01*
X32966376Y-74797188D01*
X33001000Y-74971259D01*
X33001000Y-75148741D01*
X32966376Y-75322812D01*
X32898456Y-75486784D01*
X32799853Y-75634354D01*
X32674354Y-75759853D01*
X32526784Y-75858456D01*
X32362812Y-75926376D01*
X32213512Y-75956073D01*
X32188742Y-75961000D01*
X32011258Y-75961000D01*
X31986488Y-75956073D01*
X31837188Y-75926376D01*
X31673216Y-75858456D01*
X31525646Y-75759853D01*
X31400147Y-75634354D01*
X31301544Y-75486784D01*
X31233624Y-75322812D01*
X31199000Y-75148741D01*
X31199000Y-74971259D01*
X31233624Y-74797188D01*
X31301544Y-74633216D01*
X31400147Y-74485646D01*
X31525646Y-74360147D01*
X31673216Y-74261544D01*
X31837188Y-74193624D01*
X31986488Y-74163927D01*
X32011258Y-74159000D01*
X32188742Y-74159000D01*
X32213512Y-74163927D01*
G37*
G36*
X69713512Y-72243927D02*
G01*
X69862812Y-72273624D01*
X70026784Y-72341544D01*
X70174354Y-72440147D01*
X70299853Y-72565646D01*
X70398456Y-72713216D01*
X70466376Y-72877188D01*
X70501000Y-73051259D01*
X70501000Y-73228741D01*
X70466376Y-73402812D01*
X70398456Y-73566784D01*
X70299853Y-73714354D01*
X70174354Y-73839853D01*
X70026784Y-73938456D01*
X69862812Y-74006376D01*
X69713512Y-74036073D01*
X69688742Y-74041000D01*
X69511258Y-74041000D01*
X69486488Y-74036073D01*
X69337188Y-74006376D01*
X69173216Y-73938456D01*
X69025646Y-73839853D01*
X68900147Y-73714354D01*
X68801544Y-73566784D01*
X68733624Y-73402812D01*
X68699000Y-73228741D01*
X68699000Y-73051259D01*
X68733624Y-72877188D01*
X68801544Y-72713216D01*
X68900147Y-72565646D01*
X69025646Y-72440147D01*
X69173216Y-72341544D01*
X69337188Y-72273624D01*
X69486488Y-72243927D01*
X69511258Y-72239000D01*
X69688742Y-72239000D01*
X69713512Y-72243927D01*
G37*
G36*
X80166823Y-71805313D02*
G01*
X80327242Y-71853976D01*
X80459906Y-71924886D01*
X80475078Y-71932996D01*
X80604659Y-72039341D01*
X80711004Y-72168922D01*
X80711005Y-72168924D01*
X80790024Y-72316758D01*
X80838687Y-72477177D01*
X80855117Y-72644000D01*
X80838687Y-72810823D01*
X80790024Y-72971242D01*
X80747254Y-73051259D01*
X80711004Y-73119078D01*
X80604659Y-73248659D01*
X80475078Y-73355004D01*
X80475076Y-73355005D01*
X80327242Y-73434024D01*
X80166823Y-73482687D01*
X80041804Y-73495000D01*
X79158196Y-73495000D01*
X79033177Y-73482687D01*
X78872758Y-73434024D01*
X78724924Y-73355005D01*
X78724922Y-73355004D01*
X78595341Y-73248659D01*
X78488996Y-73119078D01*
X78452746Y-73051259D01*
X78409976Y-72971242D01*
X78361313Y-72810823D01*
X78344883Y-72644000D01*
X78361313Y-72477177D01*
X78409976Y-72316758D01*
X78488995Y-72168924D01*
X78488996Y-72168922D01*
X78595341Y-72039341D01*
X78724922Y-71932996D01*
X78740094Y-71924886D01*
X78872758Y-71853976D01*
X79033177Y-71805313D01*
X79158196Y-71793000D01*
X80041804Y-71793000D01*
X80166823Y-71805313D01*
G37*
G36*
X87786823Y-71805313D02*
G01*
X87947242Y-71853976D01*
X88079906Y-71924886D01*
X88095078Y-71932996D01*
X88224659Y-72039341D01*
X88331004Y-72168922D01*
X88331005Y-72168924D01*
X88410024Y-72316758D01*
X88458687Y-72477177D01*
X88475117Y-72644000D01*
X88458687Y-72810823D01*
X88410024Y-72971242D01*
X88367254Y-73051259D01*
X88331004Y-73119078D01*
X88224659Y-73248659D01*
X88095078Y-73355004D01*
X88095076Y-73355005D01*
X87947242Y-73434024D01*
X87786823Y-73482687D01*
X87661804Y-73495000D01*
X86778196Y-73495000D01*
X86653177Y-73482687D01*
X86492758Y-73434024D01*
X86344924Y-73355005D01*
X86344922Y-73355004D01*
X86215341Y-73248659D01*
X86108996Y-73119078D01*
X86072746Y-73051259D01*
X86029976Y-72971242D01*
X85981313Y-72810823D01*
X85964883Y-72644000D01*
X85981313Y-72477177D01*
X86029976Y-72316758D01*
X86108995Y-72168924D01*
X86108996Y-72168922D01*
X86215341Y-72039341D01*
X86344922Y-71932996D01*
X86360094Y-71924886D01*
X86492758Y-71853976D01*
X86653177Y-71805313D01*
X86778196Y-71793000D01*
X87661804Y-71793000D01*
X87786823Y-71805313D01*
G37*
G36*
X29673512Y-71623927D02*
G01*
X29822812Y-71653624D01*
X29986784Y-71721544D01*
X30134354Y-71820147D01*
X30259853Y-71945646D01*
X30358456Y-72093216D01*
X30426376Y-72257188D01*
X30461000Y-72431259D01*
X30461000Y-72608741D01*
X30426376Y-72782812D01*
X30358456Y-72946784D01*
X30259853Y-73094354D01*
X30134354Y-73219853D01*
X29986784Y-73318456D01*
X29822812Y-73386376D01*
X29673512Y-73416073D01*
X29648742Y-73421000D01*
X29471258Y-73421000D01*
X29446488Y-73416073D01*
X29297188Y-73386376D01*
X29133216Y-73318456D01*
X28985646Y-73219853D01*
X28860147Y-73094354D01*
X28761544Y-72946784D01*
X28693624Y-72782812D01*
X28659000Y-72608741D01*
X28659000Y-72431259D01*
X28693624Y-72257188D01*
X28761544Y-72093216D01*
X28860147Y-71945646D01*
X28985646Y-71820147D01*
X29133216Y-71721544D01*
X29297188Y-71653624D01*
X29446488Y-71623927D01*
X29471258Y-71619000D01*
X29648742Y-71619000D01*
X29673512Y-71623927D01*
G37*
G36*
X32213512Y-71623927D02*
G01*
X32362812Y-71653624D01*
X32526784Y-71721544D01*
X32674354Y-71820147D01*
X32799853Y-71945646D01*
X32898456Y-72093216D01*
X32966376Y-72257188D01*
X33001000Y-72431259D01*
X33001000Y-72608741D01*
X32966376Y-72782812D01*
X32898456Y-72946784D01*
X32799853Y-73094354D01*
X32674354Y-73219853D01*
X32526784Y-73318456D01*
X32362812Y-73386376D01*
X32213512Y-73416073D01*
X32188742Y-73421000D01*
X32011258Y-73421000D01*
X31986488Y-73416073D01*
X31837188Y-73386376D01*
X31673216Y-73318456D01*
X31525646Y-73219853D01*
X31400147Y-73094354D01*
X31301544Y-72946784D01*
X31233624Y-72782812D01*
X31199000Y-72608741D01*
X31199000Y-72431259D01*
X31233624Y-72257188D01*
X31301544Y-72093216D01*
X31400147Y-71945646D01*
X31525646Y-71820147D01*
X31673216Y-71721544D01*
X31837188Y-71653624D01*
X31986488Y-71623927D01*
X32011258Y-71619000D01*
X32188742Y-71619000D01*
X32213512Y-71623927D01*
G37*
G36*
X69713512Y-69703927D02*
G01*
X69862812Y-69733624D01*
X70026784Y-69801544D01*
X70174354Y-69900147D01*
X70299853Y-70025646D01*
X70398456Y-70173216D01*
X70466376Y-70337188D01*
X70501000Y-70511259D01*
X70501000Y-70688741D01*
X70466376Y-70862812D01*
X70398456Y-71026784D01*
X70299853Y-71174354D01*
X70174354Y-71299853D01*
X70026784Y-71398456D01*
X69862812Y-71466376D01*
X69713512Y-71496073D01*
X69688742Y-71501000D01*
X69511258Y-71501000D01*
X69486488Y-71496073D01*
X69337188Y-71466376D01*
X69173216Y-71398456D01*
X69025646Y-71299853D01*
X68900147Y-71174354D01*
X68801544Y-71026784D01*
X68733624Y-70862812D01*
X68699000Y-70688741D01*
X68699000Y-70511259D01*
X68733624Y-70337188D01*
X68801544Y-70173216D01*
X68900147Y-70025646D01*
X69025646Y-69900147D01*
X69173216Y-69801544D01*
X69337188Y-69733624D01*
X69486488Y-69703927D01*
X69511258Y-69699000D01*
X69688742Y-69699000D01*
X69713512Y-69703927D01*
G37*
G36*
X80166823Y-69265313D02*
G01*
X80327242Y-69313976D01*
X80459906Y-69384886D01*
X80475078Y-69392996D01*
X80604659Y-69499341D01*
X80711004Y-69628922D01*
X80711005Y-69628924D01*
X80790024Y-69776758D01*
X80838687Y-69937177D01*
X80855117Y-70104000D01*
X80838687Y-70270823D01*
X80790024Y-70431242D01*
X80747254Y-70511259D01*
X80711004Y-70579078D01*
X80604659Y-70708659D01*
X80475078Y-70815004D01*
X80475076Y-70815005D01*
X80327242Y-70894024D01*
X80166823Y-70942687D01*
X80041804Y-70955000D01*
X79158196Y-70955000D01*
X79033177Y-70942687D01*
X78872758Y-70894024D01*
X78724924Y-70815005D01*
X78724922Y-70815004D01*
X78595341Y-70708659D01*
X78488996Y-70579078D01*
X78452746Y-70511259D01*
X78409976Y-70431242D01*
X78361313Y-70270823D01*
X78344883Y-70104000D01*
X78361313Y-69937177D01*
X78409976Y-69776758D01*
X78488995Y-69628924D01*
X78488996Y-69628922D01*
X78595341Y-69499341D01*
X78724922Y-69392996D01*
X78740094Y-69384886D01*
X78872758Y-69313976D01*
X79033177Y-69265313D01*
X79158196Y-69253000D01*
X80041804Y-69253000D01*
X80166823Y-69265313D01*
G37*
G36*
X87786823Y-69265313D02*
G01*
X87947242Y-69313976D01*
X88079906Y-69384886D01*
X88095078Y-69392996D01*
X88224659Y-69499341D01*
X88331004Y-69628922D01*
X88331005Y-69628924D01*
X88410024Y-69776758D01*
X88458687Y-69937177D01*
X88475117Y-70104000D01*
X88458687Y-70270823D01*
X88410024Y-70431242D01*
X88367254Y-70511259D01*
X88331004Y-70579078D01*
X88224659Y-70708659D01*
X88095078Y-70815004D01*
X88095076Y-70815005D01*
X87947242Y-70894024D01*
X87786823Y-70942687D01*
X87661804Y-70955000D01*
X86778196Y-70955000D01*
X86653177Y-70942687D01*
X86492758Y-70894024D01*
X86344924Y-70815005D01*
X86344922Y-70815004D01*
X86215341Y-70708659D01*
X86108996Y-70579078D01*
X86072746Y-70511259D01*
X86029976Y-70431242D01*
X85981313Y-70270823D01*
X85964883Y-70104000D01*
X85981313Y-69937177D01*
X86029976Y-69776758D01*
X86108995Y-69628924D01*
X86108996Y-69628922D01*
X86215341Y-69499341D01*
X86344922Y-69392996D01*
X86360094Y-69384886D01*
X86492758Y-69313976D01*
X86653177Y-69265313D01*
X86778196Y-69253000D01*
X87661804Y-69253000D01*
X87786823Y-69265313D01*
G37*
G36*
X70501000Y-68961000D02*
G01*
X68699000Y-68961000D01*
X68699000Y-67159000D01*
X70501000Y-67159000D01*
X70501000Y-68961000D01*
G37*
G36*
X87786823Y-66725313D02*
G01*
X87947242Y-66773976D01*
X88079906Y-66844886D01*
X88095078Y-66852996D01*
X88224659Y-66959341D01*
X88331004Y-67088922D01*
X88331005Y-67088924D01*
X88410024Y-67236758D01*
X88458687Y-67397177D01*
X88475117Y-67564000D01*
X88458687Y-67730823D01*
X88410024Y-67891242D01*
X88339114Y-68023906D01*
X88331004Y-68039078D01*
X88224659Y-68168659D01*
X88095078Y-68275004D01*
X88095076Y-68275005D01*
X87947242Y-68354024D01*
X87786823Y-68402687D01*
X87661804Y-68415000D01*
X86778196Y-68415000D01*
X86653177Y-68402687D01*
X86492758Y-68354024D01*
X86344924Y-68275005D01*
X86344922Y-68275004D01*
X86215341Y-68168659D01*
X86108996Y-68039078D01*
X86100886Y-68023906D01*
X86029976Y-67891242D01*
X85981313Y-67730823D01*
X85964883Y-67564000D01*
X85981313Y-67397177D01*
X86029976Y-67236758D01*
X86108995Y-67088924D01*
X86108996Y-67088922D01*
X86215341Y-66959341D01*
X86344922Y-66852996D01*
X86360094Y-66844886D01*
X86492758Y-66773976D01*
X86653177Y-66725313D01*
X86778196Y-66713000D01*
X87661804Y-66713000D01*
X87786823Y-66725313D01*
G37*
G36*
X80851000Y-68415000D02*
G01*
X78349000Y-68415000D01*
X78349000Y-66713000D01*
X80851000Y-66713000D01*
X80851000Y-68415000D01*
G37*
G36*
X38713512Y-64723927D02*
G01*
X38862812Y-64753624D01*
X39026784Y-64821544D01*
X39174354Y-64920147D01*
X39299853Y-65045646D01*
X39398456Y-65193216D01*
X39466376Y-65357188D01*
X39501000Y-65531259D01*
X39501000Y-65708741D01*
X39466376Y-65882812D01*
X39398456Y-66046784D01*
X39299853Y-66194354D01*
X39174354Y-66319853D01*
X39026784Y-66418456D01*
X38862812Y-66486376D01*
X38713512Y-66516073D01*
X38688742Y-66521000D01*
X38511258Y-66521000D01*
X38486488Y-66516073D01*
X38337188Y-66486376D01*
X38173216Y-66418456D01*
X38025646Y-66319853D01*
X37900147Y-66194354D01*
X37801544Y-66046784D01*
X37733624Y-65882812D01*
X37699000Y-65708741D01*
X37699000Y-65531259D01*
X37733624Y-65357188D01*
X37801544Y-65193216D01*
X37900147Y-65045646D01*
X38025646Y-64920147D01*
X38173216Y-64821544D01*
X38337188Y-64753624D01*
X38486488Y-64723927D01*
X38511258Y-64719000D01*
X38688742Y-64719000D01*
X38713512Y-64723927D01*
G37*
G36*
X92729499Y-64756445D02*
G01*
X92766995Y-64767820D01*
X92801554Y-64786292D01*
X92831847Y-64811153D01*
X92856708Y-64841446D01*
X92875180Y-64876005D01*
X92886555Y-64913501D01*
X92891000Y-64958638D01*
X92891000Y-65597362D01*
X92886555Y-65642499D01*
X92875180Y-65679995D01*
X92856708Y-65714554D01*
X92831847Y-65744847D01*
X92801554Y-65769708D01*
X92766995Y-65788180D01*
X92729499Y-65799555D01*
X92684362Y-65804000D01*
X91945638Y-65804000D01*
X91900501Y-65799555D01*
X91863005Y-65788180D01*
X91828446Y-65769708D01*
X91798153Y-65744847D01*
X91773292Y-65714554D01*
X91754820Y-65679995D01*
X91743445Y-65642499D01*
X91739000Y-65597362D01*
X91739000Y-64958638D01*
X91743445Y-64913501D01*
X91754820Y-64876005D01*
X91773292Y-64841446D01*
X91798153Y-64811153D01*
X91828446Y-64786292D01*
X91863005Y-64767820D01*
X91900501Y-64756445D01*
X91945638Y-64752000D01*
X92684362Y-64752000D01*
X92729499Y-64756445D01*
G37*
G36*
X90979499Y-64756445D02*
G01*
X91016995Y-64767820D01*
X91051554Y-64786292D01*
X91081847Y-64811153D01*
X91106708Y-64841446D01*
X91125180Y-64876005D01*
X91136555Y-64913501D01*
X91141000Y-64958638D01*
X91141000Y-65597362D01*
X91136555Y-65642499D01*
X91125180Y-65679995D01*
X91106708Y-65714554D01*
X91081847Y-65744847D01*
X91051554Y-65769708D01*
X91016995Y-65788180D01*
X90979499Y-65799555D01*
X90934362Y-65804000D01*
X90195638Y-65804000D01*
X90150501Y-65799555D01*
X90113005Y-65788180D01*
X90078446Y-65769708D01*
X90048153Y-65744847D01*
X90023292Y-65714554D01*
X90004820Y-65679995D01*
X89993445Y-65642499D01*
X89989000Y-65597362D01*
X89989000Y-64958638D01*
X89993445Y-64913501D01*
X90004820Y-64876005D01*
X90023292Y-64841446D01*
X90048153Y-64811153D01*
X90078446Y-64786292D01*
X90113005Y-64767820D01*
X90150501Y-64756445D01*
X90195638Y-64752000D01*
X90934362Y-64752000D01*
X90979499Y-64756445D01*
G37*
G36*
X65696000Y-64391000D02*
G01*
X63154000Y-64391000D01*
X63154000Y-63169000D01*
X65696000Y-63169000D01*
X65696000Y-64391000D01*
G37*
G36*
X74306000Y-64391000D02*
G01*
X71764000Y-64391000D01*
X71764000Y-63169000D01*
X74306000Y-63169000D01*
X74306000Y-64391000D01*
G37*
G36*
X38713512Y-62183927D02*
G01*
X38862812Y-62213624D01*
X39026784Y-62281544D01*
X39174354Y-62380147D01*
X39299853Y-62505646D01*
X39398456Y-62653216D01*
X39466376Y-62817188D01*
X39496073Y-62966488D01*
X39501000Y-62991258D01*
X39501000Y-63168742D01*
X39496073Y-63193512D01*
X39466376Y-63342812D01*
X39398456Y-63506784D01*
X39299853Y-63654354D01*
X39174354Y-63779853D01*
X39026784Y-63878456D01*
X38862812Y-63946376D01*
X38713512Y-63976073D01*
X38688742Y-63981000D01*
X38511258Y-63981000D01*
X38486488Y-63976073D01*
X38337188Y-63946376D01*
X38173216Y-63878456D01*
X38025646Y-63779853D01*
X37900147Y-63654354D01*
X37801544Y-63506784D01*
X37733624Y-63342812D01*
X37703927Y-63193512D01*
X37699000Y-63168742D01*
X37699000Y-62991258D01*
X37703927Y-62966488D01*
X37733624Y-62817188D01*
X37801544Y-62653216D01*
X37900147Y-62505646D01*
X38025646Y-62380147D01*
X38173216Y-62281544D01*
X38337188Y-62213624D01*
X38486488Y-62183927D01*
X38511258Y-62179000D01*
X38688742Y-62179000D01*
X38713512Y-62183927D01*
G37*
G36*
X74306000Y-61851000D02*
G01*
X71764000Y-61851000D01*
X71764000Y-60629000D01*
X74306000Y-60629000D01*
X74306000Y-61851000D01*
G37*
G36*
X65696000Y-61851000D02*
G01*
X63154000Y-61851000D01*
X63154000Y-60629000D01*
X65696000Y-60629000D01*
X65696000Y-61851000D01*
G37*
G36*
X38713512Y-59643927D02*
G01*
X38862812Y-59673624D01*
X39026784Y-59741544D01*
X39174354Y-59840147D01*
X39299853Y-59965646D01*
X39398456Y-60113216D01*
X39466376Y-60277188D01*
X39496073Y-60426488D01*
X39501000Y-60451258D01*
X39501000Y-60628742D01*
X39499844Y-60634554D01*
X39466376Y-60802812D01*
X39398456Y-60966784D01*
X39299853Y-61114354D01*
X39174354Y-61239853D01*
X39026784Y-61338456D01*
X38862812Y-61406376D01*
X38713512Y-61436073D01*
X38688742Y-61441000D01*
X38511258Y-61441000D01*
X38486488Y-61436073D01*
X38337188Y-61406376D01*
X38173216Y-61338456D01*
X38025646Y-61239853D01*
X37900147Y-61114354D01*
X37801544Y-60966784D01*
X37733624Y-60802812D01*
X37700156Y-60634554D01*
X37699000Y-60628742D01*
X37699000Y-60451258D01*
X37703927Y-60426488D01*
X37733624Y-60277188D01*
X37801544Y-60113216D01*
X37900147Y-59965646D01*
X38025646Y-59840147D01*
X38173216Y-59741544D01*
X38337188Y-59673624D01*
X38486488Y-59643927D01*
X38511258Y-59639000D01*
X38688742Y-59639000D01*
X38713512Y-59643927D01*
G37*
G36*
X93464048Y-58976122D02*
G01*
X93498387Y-58986539D01*
X93530036Y-59003456D01*
X93557778Y-59026222D01*
X93580544Y-59053964D01*
X93597461Y-59085613D01*
X93607878Y-59119952D01*
X93612000Y-59161807D01*
X93612000Y-61234193D01*
X93607878Y-61276048D01*
X93597461Y-61310387D01*
X93580544Y-61342036D01*
X93557778Y-61369778D01*
X93530036Y-61392544D01*
X93498387Y-61409461D01*
X93464048Y-61419878D01*
X93422193Y-61424000D01*
X92199807Y-61424000D01*
X92157952Y-61419878D01*
X92123613Y-61409461D01*
X92091964Y-61392544D01*
X92064222Y-61369778D01*
X92041456Y-61342036D01*
X92024539Y-61310387D01*
X92014122Y-61276048D01*
X92010000Y-61234193D01*
X92010000Y-59161807D01*
X92014122Y-59119952D01*
X92024539Y-59085613D01*
X92041456Y-59053964D01*
X92064222Y-59026222D01*
X92091964Y-59003456D01*
X92123613Y-58986539D01*
X92157952Y-58976122D01*
X92199807Y-58972000D01*
X93422193Y-58972000D01*
X93464048Y-58976122D01*
G37*
G36*
X90214048Y-58976122D02*
G01*
X90248387Y-58986539D01*
X90280036Y-59003456D01*
X90307778Y-59026222D01*
X90330544Y-59053964D01*
X90347461Y-59085613D01*
X90357878Y-59119952D01*
X90362000Y-59161807D01*
X90362000Y-61234193D01*
X90357878Y-61276048D01*
X90347461Y-61310387D01*
X90330544Y-61342036D01*
X90307778Y-61369778D01*
X90280036Y-61392544D01*
X90248387Y-61409461D01*
X90214048Y-61419878D01*
X90172193Y-61424000D01*
X88949807Y-61424000D01*
X88907952Y-61419878D01*
X88873613Y-61409461D01*
X88841964Y-61392544D01*
X88814222Y-61369778D01*
X88791456Y-61342036D01*
X88774539Y-61310387D01*
X88764122Y-61276048D01*
X88760000Y-61234193D01*
X88760000Y-59161807D01*
X88764122Y-59119952D01*
X88774539Y-59085613D01*
X88791456Y-59053964D01*
X88814222Y-59026222D01*
X88841964Y-59003456D01*
X88873613Y-58986539D01*
X88907952Y-58976122D01*
X88949807Y-58972000D01*
X90172193Y-58972000D01*
X90214048Y-58976122D01*
G37*
G36*
X84262499Y-59676445D02*
G01*
X84299995Y-59687820D01*
X84334554Y-59706292D01*
X84364847Y-59731153D01*
X84389708Y-59761446D01*
X84408180Y-59796005D01*
X84419555Y-59833501D01*
X84424000Y-59878638D01*
X84424000Y-60517362D01*
X84419555Y-60562499D01*
X84408180Y-60599995D01*
X84389708Y-60634554D01*
X84364847Y-60664847D01*
X84334554Y-60689708D01*
X84299995Y-60708180D01*
X84262499Y-60719555D01*
X84217362Y-60724000D01*
X83478638Y-60724000D01*
X83433501Y-60719555D01*
X83396005Y-60708180D01*
X83361446Y-60689708D01*
X83331153Y-60664847D01*
X83306292Y-60634554D01*
X83287820Y-60599995D01*
X83276445Y-60562499D01*
X83272000Y-60517362D01*
X83272000Y-59878638D01*
X83276445Y-59833501D01*
X83287820Y-59796005D01*
X83306292Y-59761446D01*
X83331153Y-59731153D01*
X83361446Y-59706292D01*
X83396005Y-59687820D01*
X83433501Y-59676445D01*
X83478638Y-59672000D01*
X84217362Y-59672000D01*
X84262499Y-59676445D01*
G37*
G36*
X86012499Y-59676445D02*
G01*
X86049995Y-59687820D01*
X86084554Y-59706292D01*
X86114847Y-59731153D01*
X86139708Y-59761446D01*
X86158180Y-59796005D01*
X86169555Y-59833501D01*
X86174000Y-59878638D01*
X86174000Y-60517362D01*
X86169555Y-60562499D01*
X86158180Y-60599995D01*
X86139708Y-60634554D01*
X86114847Y-60664847D01*
X86084554Y-60689708D01*
X86049995Y-60708180D01*
X86012499Y-60719555D01*
X85967362Y-60724000D01*
X85228638Y-60724000D01*
X85183501Y-60719555D01*
X85146005Y-60708180D01*
X85111446Y-60689708D01*
X85081153Y-60664847D01*
X85056292Y-60634554D01*
X85037820Y-60599995D01*
X85026445Y-60562499D01*
X85022000Y-60517362D01*
X85022000Y-59878638D01*
X85026445Y-59833501D01*
X85037820Y-59796005D01*
X85056292Y-59761446D01*
X85081153Y-59731153D01*
X85111446Y-59706292D01*
X85146005Y-59687820D01*
X85183501Y-59676445D01*
X85228638Y-59672000D01*
X85967362Y-59672000D01*
X86012499Y-59676445D01*
G37*
G36*
X76613512Y-39603927D02*
G01*
X76762812Y-39633624D01*
X76926784Y-39701544D01*
X77074354Y-39800147D01*
X77199853Y-39925646D01*
X77298456Y-40073216D01*
X77366376Y-40237188D01*
X77401000Y-40411259D01*
X77401000Y-40588741D01*
X77366376Y-40762812D01*
X77298456Y-40926784D01*
X77199853Y-41074354D01*
X77074354Y-41199853D01*
X76926784Y-41298456D01*
X76762812Y-41366376D01*
X76707362Y-41377405D01*
X76683922Y-41384516D01*
X76662311Y-41396067D01*
X76643369Y-41411613D01*
X76627824Y-41430555D01*
X76616273Y-41452165D01*
X76609160Y-41475614D01*
X76606758Y-41500000D01*
X76609160Y-41524387D01*
X76616273Y-41547835D01*
X76627824Y-41569446D01*
X76643370Y-41588388D01*
X76662312Y-41603933D01*
X76683922Y-41615484D01*
X76707362Y-41622595D01*
X76762812Y-41633624D01*
X76926784Y-41701544D01*
X77074354Y-41800147D01*
X77199853Y-41925646D01*
X77298456Y-42073216D01*
X77366376Y-42237188D01*
X77388610Y-42348969D01*
X77400786Y-42410180D01*
X77401000Y-42411259D01*
X77401000Y-42588741D01*
X77366376Y-42762812D01*
X77298456Y-42926784D01*
X77199853Y-43074354D01*
X77074354Y-43199853D01*
X76926784Y-43298456D01*
X76762812Y-43366376D01*
X76707362Y-43377405D01*
X76683922Y-43384516D01*
X76662311Y-43396067D01*
X76643369Y-43411613D01*
X76627824Y-43430555D01*
X76616273Y-43452165D01*
X76609160Y-43475614D01*
X76606758Y-43500000D01*
X76609160Y-43524387D01*
X76616273Y-43547835D01*
X76627824Y-43569446D01*
X76643370Y-43588388D01*
X76662312Y-43603933D01*
X76683922Y-43615484D01*
X76707362Y-43622595D01*
X76762812Y-43633624D01*
X76926784Y-43701544D01*
X77074354Y-43800147D01*
X77199853Y-43925646D01*
X77298456Y-44073216D01*
X77366376Y-44237188D01*
X77395089Y-44381544D01*
X77401000Y-44411258D01*
X77401000Y-44588742D01*
X77397637Y-44605647D01*
X77366376Y-44762812D01*
X77298456Y-44926784D01*
X77199853Y-45074354D01*
X77074354Y-45199853D01*
X76926784Y-45298456D01*
X76762812Y-45366376D01*
X76707362Y-45377405D01*
X76683922Y-45384516D01*
X76662311Y-45396067D01*
X76643369Y-45411613D01*
X76627824Y-45430555D01*
X76616273Y-45452165D01*
X76609160Y-45475614D01*
X76606758Y-45500000D01*
X76609160Y-45524387D01*
X76616273Y-45547835D01*
X76627824Y-45569446D01*
X76643370Y-45588388D01*
X76662312Y-45603933D01*
X76683922Y-45615484D01*
X76707362Y-45622595D01*
X76762812Y-45633624D01*
X76926784Y-45701544D01*
X77074354Y-45800147D01*
X77199853Y-45925646D01*
X77298456Y-46073216D01*
X77366376Y-46237188D01*
X77401000Y-46411259D01*
X77401000Y-46588741D01*
X77366376Y-46762812D01*
X77298456Y-46926784D01*
X77199853Y-47074354D01*
X77074354Y-47199853D01*
X76926784Y-47298456D01*
X76762812Y-47366376D01*
X76707362Y-47377405D01*
X76683922Y-47384516D01*
X76662311Y-47396067D01*
X76643369Y-47411613D01*
X76627824Y-47430555D01*
X76616273Y-47452165D01*
X76609160Y-47475614D01*
X76606758Y-47500000D01*
X76609160Y-47524387D01*
X76616273Y-47547835D01*
X76627824Y-47569446D01*
X76643370Y-47588388D01*
X76662312Y-47603933D01*
X76683922Y-47615484D01*
X76707362Y-47622595D01*
X76762812Y-47633624D01*
X76926784Y-47701544D01*
X77074354Y-47800147D01*
X77199853Y-47925646D01*
X77298456Y-48073216D01*
X77366376Y-48237188D01*
X77401000Y-48411259D01*
X77401000Y-48588741D01*
X77366376Y-48762812D01*
X77298456Y-48926784D01*
X77199853Y-49074354D01*
X77074354Y-49199853D01*
X76926784Y-49298456D01*
X76762812Y-49366376D01*
X76707362Y-49377405D01*
X76683922Y-49384516D01*
X76662311Y-49396067D01*
X76643369Y-49411613D01*
X76627824Y-49430555D01*
X76616273Y-49452165D01*
X76609160Y-49475614D01*
X76606758Y-49500000D01*
X76609160Y-49524387D01*
X76616273Y-49547835D01*
X76627824Y-49569446D01*
X76643370Y-49588388D01*
X76662312Y-49603933D01*
X76683922Y-49615484D01*
X76707362Y-49622595D01*
X76762812Y-49633624D01*
X76926784Y-49701544D01*
X77074354Y-49800147D01*
X77199853Y-49925646D01*
X77298456Y-50073216D01*
X77366376Y-50237188D01*
X77385349Y-50332574D01*
X77401000Y-50411258D01*
X77401000Y-50588742D01*
X77399872Y-50594411D01*
X77366376Y-50762812D01*
X77298456Y-50926784D01*
X77199853Y-51074354D01*
X77074354Y-51199853D01*
X76926784Y-51298456D01*
X76762812Y-51366376D01*
X76707362Y-51377405D01*
X76683922Y-51384516D01*
X76662311Y-51396067D01*
X76643369Y-51411613D01*
X76627824Y-51430555D01*
X76616273Y-51452165D01*
X76609160Y-51475614D01*
X76606758Y-51500000D01*
X76609160Y-51524387D01*
X76616273Y-51547835D01*
X76627824Y-51569446D01*
X76643370Y-51588388D01*
X76662312Y-51603933D01*
X76683922Y-51615484D01*
X76707362Y-51622595D01*
X76762812Y-51633624D01*
X76926784Y-51701544D01*
X77074354Y-51800147D01*
X77199853Y-51925646D01*
X77298456Y-52073216D01*
X77366376Y-52237188D01*
X77401000Y-52411259D01*
X77401000Y-52588741D01*
X77366376Y-52762812D01*
X77298456Y-52926784D01*
X77199853Y-53074354D01*
X77074354Y-53199853D01*
X76926784Y-53298456D01*
X76762812Y-53366376D01*
X76707362Y-53377405D01*
X76683922Y-53384516D01*
X76662311Y-53396067D01*
X76643369Y-53411613D01*
X76627824Y-53430555D01*
X76616273Y-53452165D01*
X76609160Y-53475614D01*
X76606758Y-53500000D01*
X76609160Y-53524387D01*
X76616273Y-53547835D01*
X76627824Y-53569446D01*
X76643370Y-53588388D01*
X76662312Y-53603933D01*
X76683922Y-53615484D01*
X76707362Y-53622595D01*
X76762812Y-53633624D01*
X76926784Y-53701544D01*
X77074354Y-53800147D01*
X77199853Y-53925646D01*
X77298456Y-54073216D01*
X77366376Y-54237188D01*
X77401000Y-54411259D01*
X77401000Y-54588741D01*
X77366376Y-54762812D01*
X77298456Y-54926784D01*
X77199853Y-55074354D01*
X77074354Y-55199853D01*
X76926784Y-55298456D01*
X76762812Y-55366376D01*
X76707362Y-55377405D01*
X76683922Y-55384516D01*
X76662311Y-55396067D01*
X76643369Y-55411613D01*
X76627824Y-55430555D01*
X76616273Y-55452165D01*
X76609160Y-55475614D01*
X76606758Y-55500000D01*
X76609160Y-55524387D01*
X76616273Y-55547835D01*
X76627824Y-55569446D01*
X76643370Y-55588388D01*
X76662312Y-55603933D01*
X76683922Y-55615484D01*
X76707362Y-55622595D01*
X76762812Y-55633624D01*
X76926784Y-55701544D01*
X77074354Y-55800147D01*
X77199853Y-55925646D01*
X77298456Y-56073216D01*
X77366376Y-56237188D01*
X77401000Y-56411259D01*
X77401000Y-56588741D01*
X77366376Y-56762812D01*
X77298456Y-56926784D01*
X77199853Y-57074354D01*
X77074354Y-57199853D01*
X76926784Y-57298456D01*
X76762812Y-57366376D01*
X76707362Y-57377405D01*
X76683922Y-57384516D01*
X76662311Y-57396067D01*
X76643369Y-57411613D01*
X76627824Y-57430555D01*
X76616273Y-57452165D01*
X76609160Y-57475614D01*
X76606758Y-57500000D01*
X76609160Y-57524387D01*
X76616273Y-57547835D01*
X76627824Y-57569446D01*
X76643370Y-57588388D01*
X76662312Y-57603933D01*
X76683922Y-57615484D01*
X76707362Y-57622595D01*
X76762812Y-57633624D01*
X76926784Y-57701544D01*
X77074354Y-57800147D01*
X77199853Y-57925646D01*
X77298456Y-58073216D01*
X77366376Y-58237188D01*
X77401000Y-58411259D01*
X77401000Y-58588741D01*
X77366376Y-58762812D01*
X77298456Y-58926784D01*
X77199853Y-59074354D01*
X77074354Y-59199853D01*
X76926784Y-59298456D01*
X76762812Y-59366376D01*
X76613512Y-59396073D01*
X76588742Y-59401000D01*
X76411258Y-59401000D01*
X76386488Y-59396073D01*
X76237188Y-59366376D01*
X76073216Y-59298456D01*
X75925646Y-59199853D01*
X75800147Y-59074354D01*
X75701544Y-58926784D01*
X75633624Y-58762812D01*
X75599000Y-58588741D01*
X75599000Y-58411259D01*
X75633624Y-58237188D01*
X75701544Y-58073216D01*
X75800147Y-57925646D01*
X75925646Y-57800147D01*
X76073216Y-57701544D01*
X76237188Y-57633624D01*
X76292638Y-57622595D01*
X76316078Y-57615484D01*
X76337689Y-57603933D01*
X76356631Y-57588387D01*
X76372176Y-57569445D01*
X76383727Y-57547835D01*
X76390840Y-57524386D01*
X76393242Y-57500000D01*
X76390840Y-57475613D01*
X76383727Y-57452165D01*
X76372176Y-57430554D01*
X76356630Y-57411612D01*
X76337688Y-57396067D01*
X76316078Y-57384516D01*
X76292638Y-57377405D01*
X76237188Y-57366376D01*
X76073216Y-57298456D01*
X75925646Y-57199853D01*
X75800147Y-57074354D01*
X75701544Y-56926784D01*
X75633624Y-56762812D01*
X75599000Y-56588741D01*
X75599000Y-56411259D01*
X75633624Y-56237188D01*
X75701544Y-56073216D01*
X75800147Y-55925646D01*
X75925646Y-55800147D01*
X76073216Y-55701544D01*
X76237188Y-55633624D01*
X76292638Y-55622595D01*
X76316078Y-55615484D01*
X76337689Y-55603933D01*
X76356631Y-55588387D01*
X76372176Y-55569445D01*
X76383727Y-55547835D01*
X76390840Y-55524386D01*
X76393242Y-55500000D01*
X76390840Y-55475613D01*
X76383727Y-55452165D01*
X76372176Y-55430554D01*
X76356630Y-55411612D01*
X76337688Y-55396067D01*
X76316078Y-55384516D01*
X76292638Y-55377405D01*
X76237188Y-55366376D01*
X76073216Y-55298456D01*
X75925646Y-55199853D01*
X75800147Y-55074354D01*
X75701544Y-54926784D01*
X75633624Y-54762812D01*
X75599000Y-54588741D01*
X75599000Y-54411259D01*
X75633624Y-54237188D01*
X75701544Y-54073216D01*
X75800147Y-53925646D01*
X75925646Y-53800147D01*
X76073216Y-53701544D01*
X76237188Y-53633624D01*
X76292638Y-53622595D01*
X76316078Y-53615484D01*
X76337689Y-53603933D01*
X76356631Y-53588387D01*
X76372176Y-53569445D01*
X76383727Y-53547835D01*
X76390840Y-53524386D01*
X76393242Y-53500000D01*
X76390840Y-53475613D01*
X76383727Y-53452165D01*
X76372176Y-53430554D01*
X76356630Y-53411612D01*
X76337688Y-53396067D01*
X76316078Y-53384516D01*
X76292638Y-53377405D01*
X76237188Y-53366376D01*
X76073216Y-53298456D01*
X75925646Y-53199853D01*
X75800147Y-53074354D01*
X75701544Y-52926784D01*
X75633624Y-52762812D01*
X75599000Y-52588741D01*
X75599000Y-52411259D01*
X75633624Y-52237188D01*
X75701544Y-52073216D01*
X75800147Y-51925646D01*
X75925646Y-51800147D01*
X76073216Y-51701544D01*
X76237188Y-51633624D01*
X76292638Y-51622595D01*
X76316078Y-51615484D01*
X76337689Y-51603933D01*
X76356631Y-51588387D01*
X76372176Y-51569445D01*
X76383727Y-51547835D01*
X76390840Y-51524386D01*
X76393242Y-51500000D01*
X76390840Y-51475613D01*
X76383727Y-51452165D01*
X76372176Y-51430554D01*
X76356630Y-51411612D01*
X76337688Y-51396067D01*
X76316078Y-51384516D01*
X76292638Y-51377405D01*
X76237188Y-51366376D01*
X76073216Y-51298456D01*
X75925646Y-51199853D01*
X75800147Y-51074354D01*
X75701544Y-50926784D01*
X75633624Y-50762812D01*
X75600128Y-50594411D01*
X75599000Y-50588742D01*
X75599000Y-50411258D01*
X75614651Y-50332574D01*
X75633624Y-50237188D01*
X75701544Y-50073216D01*
X75800147Y-49925646D01*
X75925646Y-49800147D01*
X76073216Y-49701544D01*
X76237188Y-49633624D01*
X76292638Y-49622595D01*
X76316078Y-49615484D01*
X76337689Y-49603933D01*
X76356631Y-49588387D01*
X76372176Y-49569445D01*
X76383727Y-49547835D01*
X76390840Y-49524386D01*
X76393242Y-49500000D01*
X76390840Y-49475613D01*
X76383727Y-49452165D01*
X76372176Y-49430554D01*
X76356630Y-49411612D01*
X76337688Y-49396067D01*
X76316078Y-49384516D01*
X76292638Y-49377405D01*
X76237188Y-49366376D01*
X76073216Y-49298456D01*
X75925646Y-49199853D01*
X75800147Y-49074354D01*
X75701544Y-48926784D01*
X75633624Y-48762812D01*
X75599000Y-48588741D01*
X75599000Y-48411259D01*
X75633624Y-48237188D01*
X75701544Y-48073216D01*
X75800147Y-47925646D01*
X75925646Y-47800147D01*
X76073216Y-47701544D01*
X76237188Y-47633624D01*
X76292638Y-47622595D01*
X76316078Y-47615484D01*
X76337689Y-47603933D01*
X76356631Y-47588387D01*
X76372176Y-47569445D01*
X76383727Y-47547835D01*
X76390840Y-47524386D01*
X76393242Y-47500000D01*
X76390840Y-47475613D01*
X76383727Y-47452165D01*
X76372176Y-47430554D01*
X76356630Y-47411612D01*
X76337688Y-47396067D01*
X76316078Y-47384516D01*
X76292638Y-47377405D01*
X76237188Y-47366376D01*
X76073216Y-47298456D01*
X75925646Y-47199853D01*
X75800147Y-47074354D01*
X75701544Y-46926784D01*
X75633624Y-46762812D01*
X75599000Y-46588741D01*
X75599000Y-46411259D01*
X75633624Y-46237188D01*
X75701544Y-46073216D01*
X75800147Y-45925646D01*
X75925646Y-45800147D01*
X76073216Y-45701544D01*
X76237188Y-45633624D01*
X76292638Y-45622595D01*
X76316078Y-45615484D01*
X76337689Y-45603933D01*
X76356631Y-45588387D01*
X76372176Y-45569445D01*
X76383727Y-45547835D01*
X76390840Y-45524386D01*
X76393242Y-45500000D01*
X76390840Y-45475613D01*
X76383727Y-45452165D01*
X76372176Y-45430554D01*
X76356630Y-45411612D01*
X76337688Y-45396067D01*
X76316078Y-45384516D01*
X76292638Y-45377405D01*
X76237188Y-45366376D01*
X76073216Y-45298456D01*
X75925646Y-45199853D01*
X75800147Y-45074354D01*
X75701544Y-44926784D01*
X75633624Y-44762812D01*
X75602363Y-44605647D01*
X75599000Y-44588742D01*
X75599000Y-44411258D01*
X75604911Y-44381544D01*
X75633624Y-44237188D01*
X75701544Y-44073216D01*
X75800147Y-43925646D01*
X75925646Y-43800147D01*
X76073216Y-43701544D01*
X76237188Y-43633624D01*
X76292638Y-43622595D01*
X76316078Y-43615484D01*
X76337689Y-43603933D01*
X76356631Y-43588387D01*
X76372176Y-43569445D01*
X76383727Y-43547835D01*
X76390840Y-43524386D01*
X76393242Y-43500000D01*
X76390840Y-43475613D01*
X76383727Y-43452165D01*
X76372176Y-43430554D01*
X76356630Y-43411612D01*
X76337688Y-43396067D01*
X76316078Y-43384516D01*
X76292638Y-43377405D01*
X76237188Y-43366376D01*
X76073216Y-43298456D01*
X75925646Y-43199853D01*
X75800147Y-43074354D01*
X75701544Y-42926784D01*
X75633624Y-42762812D01*
X75599000Y-42588741D01*
X75599000Y-42411259D01*
X75599215Y-42410180D01*
X75611390Y-42348969D01*
X75633624Y-42237188D01*
X75701544Y-42073216D01*
X75800147Y-41925646D01*
X75925646Y-41800147D01*
X76073216Y-41701544D01*
X76237188Y-41633624D01*
X76292638Y-41622595D01*
X76316078Y-41615484D01*
X76337689Y-41603933D01*
X76356631Y-41588387D01*
X76372176Y-41569445D01*
X76383727Y-41547835D01*
X76390840Y-41524386D01*
X76393242Y-41500000D01*
X76390840Y-41475613D01*
X76383727Y-41452165D01*
X76372176Y-41430554D01*
X76356630Y-41411612D01*
X76337688Y-41396067D01*
X76316078Y-41384516D01*
X76292638Y-41377405D01*
X76237188Y-41366376D01*
X76073216Y-41298456D01*
X75925646Y-41199853D01*
X75800147Y-41074354D01*
X75701544Y-40926784D01*
X75633624Y-40762812D01*
X75599000Y-40588741D01*
X75599000Y-40411259D01*
X75633624Y-40237188D01*
X75701544Y-40073216D01*
X75800147Y-39925646D01*
X75925646Y-39800147D01*
X76073216Y-39701544D01*
X76237188Y-39633624D01*
X76386488Y-39603927D01*
X76411258Y-39599000D01*
X76588742Y-39599000D01*
X76613512Y-39603927D01*
G37*
G36*
X98613512Y-39603927D02*
G01*
X98762812Y-39633624D01*
X98926784Y-39701544D01*
X99074354Y-39800147D01*
X99199853Y-39925646D01*
X99298456Y-40073216D01*
X99366376Y-40237188D01*
X99401000Y-40411259D01*
X99401000Y-40588741D01*
X99366376Y-40762812D01*
X99298456Y-40926784D01*
X99199853Y-41074354D01*
X99074354Y-41199853D01*
X98926784Y-41298456D01*
X98762812Y-41366376D01*
X98707362Y-41377405D01*
X98683922Y-41384516D01*
X98662311Y-41396067D01*
X98643369Y-41411613D01*
X98627824Y-41430555D01*
X98616273Y-41452165D01*
X98609160Y-41475614D01*
X98606758Y-41500000D01*
X98609160Y-41524387D01*
X98616273Y-41547835D01*
X98627824Y-41569446D01*
X98643370Y-41588388D01*
X98662312Y-41603933D01*
X98683922Y-41615484D01*
X98707362Y-41622595D01*
X98762812Y-41633624D01*
X98926784Y-41701544D01*
X99074354Y-41800147D01*
X99199853Y-41925646D01*
X99298456Y-42073216D01*
X99366376Y-42237188D01*
X99388610Y-42348969D01*
X99400786Y-42410180D01*
X99401000Y-42411259D01*
X99401000Y-42588741D01*
X99366376Y-42762812D01*
X99298456Y-42926784D01*
X99199853Y-43074354D01*
X99074354Y-43199853D01*
X98926784Y-43298456D01*
X98762812Y-43366376D01*
X98707362Y-43377405D01*
X98683922Y-43384516D01*
X98662311Y-43396067D01*
X98643369Y-43411613D01*
X98627824Y-43430555D01*
X98616273Y-43452165D01*
X98609160Y-43475614D01*
X98606758Y-43500000D01*
X98609160Y-43524387D01*
X98616273Y-43547835D01*
X98627824Y-43569446D01*
X98643370Y-43588388D01*
X98662312Y-43603933D01*
X98683922Y-43615484D01*
X98707362Y-43622595D01*
X98762812Y-43633624D01*
X98926784Y-43701544D01*
X99074354Y-43800147D01*
X99199853Y-43925646D01*
X99298456Y-44073216D01*
X99366376Y-44237188D01*
X99395089Y-44381544D01*
X99401000Y-44411258D01*
X99401000Y-44588742D01*
X99397637Y-44605647D01*
X99366376Y-44762812D01*
X99298456Y-44926784D01*
X99199853Y-45074354D01*
X99074354Y-45199853D01*
X98926784Y-45298456D01*
X98762812Y-45366376D01*
X98707362Y-45377405D01*
X98683922Y-45384516D01*
X98662311Y-45396067D01*
X98643369Y-45411613D01*
X98627824Y-45430555D01*
X98616273Y-45452165D01*
X98609160Y-45475614D01*
X98606758Y-45500000D01*
X98609160Y-45524387D01*
X98616273Y-45547835D01*
X98627824Y-45569446D01*
X98643370Y-45588388D01*
X98662312Y-45603933D01*
X98683922Y-45615484D01*
X98707362Y-45622595D01*
X98762812Y-45633624D01*
X98926784Y-45701544D01*
X99074354Y-45800147D01*
X99199853Y-45925646D01*
X99298456Y-46073216D01*
X99366376Y-46237188D01*
X99401000Y-46411259D01*
X99401000Y-46588741D01*
X99366376Y-46762812D01*
X99298456Y-46926784D01*
X99199853Y-47074354D01*
X99074354Y-47199853D01*
X98926784Y-47298456D01*
X98762812Y-47366376D01*
X98707362Y-47377405D01*
X98683922Y-47384516D01*
X98662311Y-47396067D01*
X98643369Y-47411613D01*
X98627824Y-47430555D01*
X98616273Y-47452165D01*
X98609160Y-47475614D01*
X98606758Y-47500000D01*
X98609160Y-47524387D01*
X98616273Y-47547835D01*
X98627824Y-47569446D01*
X98643370Y-47588388D01*
X98662312Y-47603933D01*
X98683922Y-47615484D01*
X98707362Y-47622595D01*
X98762812Y-47633624D01*
X98926784Y-47701544D01*
X99074354Y-47800147D01*
X99199853Y-47925646D01*
X99298456Y-48073216D01*
X99366376Y-48237188D01*
X99401000Y-48411259D01*
X99401000Y-48588741D01*
X99366376Y-48762812D01*
X99298456Y-48926784D01*
X99199853Y-49074354D01*
X99074354Y-49199853D01*
X98926784Y-49298456D01*
X98762812Y-49366376D01*
X98707362Y-49377405D01*
X98683922Y-49384516D01*
X98662311Y-49396067D01*
X98643369Y-49411613D01*
X98627824Y-49430555D01*
X98616273Y-49452165D01*
X98609160Y-49475614D01*
X98606758Y-49500000D01*
X98609160Y-49524387D01*
X98616273Y-49547835D01*
X98627824Y-49569446D01*
X98643370Y-49588388D01*
X98662312Y-49603933D01*
X98683922Y-49615484D01*
X98707362Y-49622595D01*
X98762812Y-49633624D01*
X98926784Y-49701544D01*
X99074354Y-49800147D01*
X99199853Y-49925646D01*
X99298456Y-50073216D01*
X99366376Y-50237188D01*
X99385349Y-50332574D01*
X99401000Y-50411258D01*
X99401000Y-50588742D01*
X99399872Y-50594411D01*
X99366376Y-50762812D01*
X99298456Y-50926784D01*
X99199853Y-51074354D01*
X99074354Y-51199853D01*
X98926784Y-51298456D01*
X98762812Y-51366376D01*
X98707362Y-51377405D01*
X98683922Y-51384516D01*
X98662311Y-51396067D01*
X98643369Y-51411613D01*
X98627824Y-51430555D01*
X98616273Y-51452165D01*
X98609160Y-51475614D01*
X98606758Y-51500000D01*
X98609160Y-51524387D01*
X98616273Y-51547835D01*
X98627824Y-51569446D01*
X98643370Y-51588388D01*
X98662312Y-51603933D01*
X98683922Y-51615484D01*
X98707362Y-51622595D01*
X98762812Y-51633624D01*
X98926784Y-51701544D01*
X99074354Y-51800147D01*
X99199853Y-51925646D01*
X99298456Y-52073216D01*
X99366376Y-52237188D01*
X99401000Y-52411259D01*
X99401000Y-52588741D01*
X99366376Y-52762812D01*
X99298456Y-52926784D01*
X99199853Y-53074354D01*
X99074354Y-53199853D01*
X98926784Y-53298456D01*
X98762812Y-53366376D01*
X98707362Y-53377405D01*
X98683922Y-53384516D01*
X98662311Y-53396067D01*
X98643369Y-53411613D01*
X98627824Y-53430555D01*
X98616273Y-53452165D01*
X98609160Y-53475614D01*
X98606758Y-53500000D01*
X98609160Y-53524387D01*
X98616273Y-53547835D01*
X98627824Y-53569446D01*
X98643370Y-53588388D01*
X98662312Y-53603933D01*
X98683922Y-53615484D01*
X98707362Y-53622595D01*
X98762812Y-53633624D01*
X98926784Y-53701544D01*
X99074354Y-53800147D01*
X99199853Y-53925646D01*
X99298456Y-54073216D01*
X99366376Y-54237188D01*
X99401000Y-54411259D01*
X99401000Y-54588741D01*
X99366376Y-54762812D01*
X99298456Y-54926784D01*
X99199853Y-55074354D01*
X99074354Y-55199853D01*
X98926784Y-55298456D01*
X98762812Y-55366376D01*
X98707362Y-55377405D01*
X98683922Y-55384516D01*
X98662311Y-55396067D01*
X98643369Y-55411613D01*
X98627824Y-55430555D01*
X98616273Y-55452165D01*
X98609160Y-55475614D01*
X98606758Y-55500000D01*
X98609160Y-55524387D01*
X98616273Y-55547835D01*
X98627824Y-55569446D01*
X98643370Y-55588388D01*
X98662312Y-55603933D01*
X98683922Y-55615484D01*
X98707362Y-55622595D01*
X98762812Y-55633624D01*
X98926784Y-55701544D01*
X99074354Y-55800147D01*
X99199853Y-55925646D01*
X99298456Y-56073216D01*
X99366376Y-56237188D01*
X99401000Y-56411259D01*
X99401000Y-56588741D01*
X99366376Y-56762812D01*
X99298456Y-56926784D01*
X99199853Y-57074354D01*
X99074354Y-57199853D01*
X98926784Y-57298456D01*
X98762812Y-57366376D01*
X98707362Y-57377405D01*
X98683922Y-57384516D01*
X98662311Y-57396067D01*
X98643369Y-57411613D01*
X98627824Y-57430555D01*
X98616273Y-57452165D01*
X98609160Y-57475614D01*
X98606758Y-57500000D01*
X98609160Y-57524387D01*
X98616273Y-57547835D01*
X98627824Y-57569446D01*
X98643370Y-57588388D01*
X98662312Y-57603933D01*
X98683922Y-57615484D01*
X98707362Y-57622595D01*
X98762812Y-57633624D01*
X98926784Y-57701544D01*
X99074354Y-57800147D01*
X99199853Y-57925646D01*
X99298456Y-58073216D01*
X99366376Y-58237188D01*
X99401000Y-58411259D01*
X99401000Y-58588741D01*
X99366376Y-58762812D01*
X99298456Y-58926784D01*
X99199853Y-59074354D01*
X99074354Y-59199853D01*
X98926784Y-59298456D01*
X98762812Y-59366376D01*
X98613512Y-59396073D01*
X98588742Y-59401000D01*
X98411258Y-59401000D01*
X98386488Y-59396073D01*
X98237188Y-59366376D01*
X98073216Y-59298456D01*
X97925646Y-59199853D01*
X97800147Y-59074354D01*
X97701544Y-58926784D01*
X97633624Y-58762812D01*
X97599000Y-58588741D01*
X97599000Y-58411259D01*
X97633624Y-58237188D01*
X97701544Y-58073216D01*
X97800147Y-57925646D01*
X97925646Y-57800147D01*
X98073216Y-57701544D01*
X98237188Y-57633624D01*
X98292638Y-57622595D01*
X98316078Y-57615484D01*
X98337689Y-57603933D01*
X98356631Y-57588387D01*
X98372176Y-57569445D01*
X98383727Y-57547835D01*
X98390840Y-57524386D01*
X98393242Y-57500000D01*
X98390840Y-57475613D01*
X98383727Y-57452165D01*
X98372176Y-57430554D01*
X98356630Y-57411612D01*
X98337688Y-57396067D01*
X98316078Y-57384516D01*
X98292638Y-57377405D01*
X98237188Y-57366376D01*
X98073216Y-57298456D01*
X97925646Y-57199853D01*
X97800147Y-57074354D01*
X97701544Y-56926784D01*
X97633624Y-56762812D01*
X97599000Y-56588741D01*
X97599000Y-56411259D01*
X97633624Y-56237188D01*
X97701544Y-56073216D01*
X97800147Y-55925646D01*
X97925646Y-55800147D01*
X98073216Y-55701544D01*
X98237188Y-55633624D01*
X98292638Y-55622595D01*
X98316078Y-55615484D01*
X98337689Y-55603933D01*
X98356631Y-55588387D01*
X98372176Y-55569445D01*
X98383727Y-55547835D01*
X98390840Y-55524386D01*
X98393242Y-55500000D01*
X98390840Y-55475613D01*
X98383727Y-55452165D01*
X98372176Y-55430554D01*
X98356630Y-55411612D01*
X98337688Y-55396067D01*
X98316078Y-55384516D01*
X98292638Y-55377405D01*
X98237188Y-55366376D01*
X98073216Y-55298456D01*
X97925646Y-55199853D01*
X97800147Y-55074354D01*
X97701544Y-54926784D01*
X97633624Y-54762812D01*
X97599000Y-54588741D01*
X97599000Y-54411259D01*
X97633624Y-54237188D01*
X97701544Y-54073216D01*
X97800147Y-53925646D01*
X97925646Y-53800147D01*
X98073216Y-53701544D01*
X98237188Y-53633624D01*
X98292638Y-53622595D01*
X98316078Y-53615484D01*
X98337689Y-53603933D01*
X98356631Y-53588387D01*
X98372176Y-53569445D01*
X98383727Y-53547835D01*
X98390840Y-53524386D01*
X98393242Y-53500000D01*
X98390840Y-53475613D01*
X98383727Y-53452165D01*
X98372176Y-53430554D01*
X98356630Y-53411612D01*
X98337688Y-53396067D01*
X98316078Y-53384516D01*
X98292638Y-53377405D01*
X98237188Y-53366376D01*
X98073216Y-53298456D01*
X97925646Y-53199853D01*
X97800147Y-53074354D01*
X97701544Y-52926784D01*
X97633624Y-52762812D01*
X97599000Y-52588741D01*
X97599000Y-52411259D01*
X97633624Y-52237188D01*
X97701544Y-52073216D01*
X97800147Y-51925646D01*
X97925646Y-51800147D01*
X98073216Y-51701544D01*
X98237188Y-51633624D01*
X98292638Y-51622595D01*
X98316078Y-51615484D01*
X98337689Y-51603933D01*
X98356631Y-51588387D01*
X98372176Y-51569445D01*
X98383727Y-51547835D01*
X98390840Y-51524386D01*
X98393242Y-51500000D01*
X98390840Y-51475613D01*
X98383727Y-51452165D01*
X98372176Y-51430554D01*
X98356630Y-51411612D01*
X98337688Y-51396067D01*
X98316078Y-51384516D01*
X98292638Y-51377405D01*
X98237188Y-51366376D01*
X98073216Y-51298456D01*
X97925646Y-51199853D01*
X97800147Y-51074354D01*
X97701544Y-50926784D01*
X97633624Y-50762812D01*
X97600128Y-50594411D01*
X97599000Y-50588742D01*
X97599000Y-50411258D01*
X97614651Y-50332574D01*
X97633624Y-50237188D01*
X97701544Y-50073216D01*
X97800147Y-49925646D01*
X97925646Y-49800147D01*
X98073216Y-49701544D01*
X98237188Y-49633624D01*
X98292638Y-49622595D01*
X98316078Y-49615484D01*
X98337689Y-49603933D01*
X98356631Y-49588387D01*
X98372176Y-49569445D01*
X98383727Y-49547835D01*
X98390840Y-49524386D01*
X98393242Y-49500000D01*
X98390840Y-49475613D01*
X98383727Y-49452165D01*
X98372176Y-49430554D01*
X98356630Y-49411612D01*
X98337688Y-49396067D01*
X98316078Y-49384516D01*
X98292638Y-49377405D01*
X98237188Y-49366376D01*
X98073216Y-49298456D01*
X97925646Y-49199853D01*
X97800147Y-49074354D01*
X97701544Y-48926784D01*
X97633624Y-48762812D01*
X97599000Y-48588741D01*
X97599000Y-48411259D01*
X97633624Y-48237188D01*
X97701544Y-48073216D01*
X97800147Y-47925646D01*
X97925646Y-47800147D01*
X98073216Y-47701544D01*
X98237188Y-47633624D01*
X98292638Y-47622595D01*
X98316078Y-47615484D01*
X98337689Y-47603933D01*
X98356631Y-47588387D01*
X98372176Y-47569445D01*
X98383727Y-47547835D01*
X98390840Y-47524386D01*
X98393242Y-47500000D01*
X98390840Y-47475613D01*
X98383727Y-47452165D01*
X98372176Y-47430554D01*
X98356630Y-47411612D01*
X98337688Y-47396067D01*
X98316078Y-47384516D01*
X98292638Y-47377405D01*
X98237188Y-47366376D01*
X98073216Y-47298456D01*
X97925646Y-47199853D01*
X97800147Y-47074354D01*
X97701544Y-46926784D01*
X97633624Y-46762812D01*
X97599000Y-46588741D01*
X97599000Y-46411259D01*
X97633624Y-46237188D01*
X97701544Y-46073216D01*
X97800147Y-45925646D01*
X97925646Y-45800147D01*
X98073216Y-45701544D01*
X98237188Y-45633624D01*
X98292638Y-45622595D01*
X98316078Y-45615484D01*
X98337689Y-45603933D01*
X98356631Y-45588387D01*
X98372176Y-45569445D01*
X98383727Y-45547835D01*
X98390840Y-45524386D01*
X98393242Y-45500000D01*
X98390840Y-45475613D01*
X98383727Y-45452165D01*
X98372176Y-45430554D01*
X98356630Y-45411612D01*
X98337688Y-45396067D01*
X98316078Y-45384516D01*
X98292638Y-45377405D01*
X98237188Y-45366376D01*
X98073216Y-45298456D01*
X97925646Y-45199853D01*
X97800147Y-45074354D01*
X97701544Y-44926784D01*
X97633624Y-44762812D01*
X97602363Y-44605647D01*
X97599000Y-44588742D01*
X97599000Y-44411258D01*
X97604911Y-44381544D01*
X97633624Y-44237188D01*
X97701544Y-44073216D01*
X97800147Y-43925646D01*
X97925646Y-43800147D01*
X98073216Y-43701544D01*
X98237188Y-43633624D01*
X98292638Y-43622595D01*
X98316078Y-43615484D01*
X98337689Y-43603933D01*
X98356631Y-43588387D01*
X98372176Y-43569445D01*
X98383727Y-43547835D01*
X98390840Y-43524386D01*
X98393242Y-43500000D01*
X98390840Y-43475613D01*
X98383727Y-43452165D01*
X98372176Y-43430554D01*
X98356630Y-43411612D01*
X98337688Y-43396067D01*
X98316078Y-43384516D01*
X98292638Y-43377405D01*
X98237188Y-43366376D01*
X98073216Y-43298456D01*
X97925646Y-43199853D01*
X97800147Y-43074354D01*
X97701544Y-42926784D01*
X97633624Y-42762812D01*
X97599000Y-42588741D01*
X97599000Y-42411259D01*
X97599215Y-42410180D01*
X97611390Y-42348969D01*
X97633624Y-42237188D01*
X97701544Y-42073216D01*
X97800147Y-41925646D01*
X97925646Y-41800147D01*
X98073216Y-41701544D01*
X98237188Y-41633624D01*
X98292638Y-41622595D01*
X98316078Y-41615484D01*
X98337689Y-41603933D01*
X98356631Y-41588387D01*
X98372176Y-41569445D01*
X98383727Y-41547835D01*
X98390840Y-41524386D01*
X98393242Y-41500000D01*
X98390840Y-41475613D01*
X98383727Y-41452165D01*
X98372176Y-41430554D01*
X98356630Y-41411612D01*
X98337688Y-41396067D01*
X98316078Y-41384516D01*
X98292638Y-41377405D01*
X98237188Y-41366376D01*
X98073216Y-41298456D01*
X97925646Y-41199853D01*
X97800147Y-41074354D01*
X97701544Y-40926784D01*
X97633624Y-40762812D01*
X97599000Y-40588741D01*
X97599000Y-40411259D01*
X97633624Y-40237188D01*
X97701544Y-40073216D01*
X97800147Y-39925646D01*
X97925646Y-39800147D01*
X98073216Y-39701544D01*
X98237188Y-39633624D01*
X98386488Y-39603927D01*
X98411258Y-39599000D01*
X98588742Y-39599000D01*
X98613512Y-39603927D01*
G37*
G36*
X74306000Y-59311000D02*
G01*
X71764000Y-59311000D01*
X71764000Y-58089000D01*
X74306000Y-58089000D01*
X74306000Y-59311000D01*
G37*
G36*
X65696000Y-59311000D02*
G01*
X63154000Y-59311000D01*
X63154000Y-58089000D01*
X65696000Y-58089000D01*
X65696000Y-59311000D01*
G37*
G36*
X39501000Y-58901000D02*
G01*
X37699000Y-58901000D01*
X37699000Y-57099000D01*
X39501000Y-57099000D01*
X39501000Y-58901000D01*
G37*
G36*
X89935499Y-56882445D02*
G01*
X89972995Y-56893820D01*
X90007554Y-56912292D01*
X90037847Y-56937153D01*
X90062708Y-56967446D01*
X90081180Y-57002005D01*
X90092555Y-57039501D01*
X90097000Y-57084638D01*
X90097000Y-57723362D01*
X90092555Y-57768499D01*
X90081180Y-57805995D01*
X90062708Y-57840554D01*
X90037847Y-57870847D01*
X90007554Y-57895708D01*
X89972995Y-57914180D01*
X89935499Y-57925555D01*
X89890362Y-57930000D01*
X89151638Y-57930000D01*
X89106501Y-57925555D01*
X89069005Y-57914180D01*
X89034446Y-57895708D01*
X89004153Y-57870847D01*
X88979292Y-57840554D01*
X88960820Y-57805995D01*
X88949445Y-57768499D01*
X88945000Y-57723362D01*
X88945000Y-57084638D01*
X88949445Y-57039501D01*
X88960820Y-57002005D01*
X88979292Y-56967446D01*
X89004153Y-56937153D01*
X89034446Y-56912292D01*
X89069005Y-56893820D01*
X89106501Y-56882445D01*
X89151638Y-56878000D01*
X89890362Y-56878000D01*
X89935499Y-56882445D01*
G37*
G36*
X88185499Y-56882445D02*
G01*
X88222995Y-56893820D01*
X88257554Y-56912292D01*
X88287847Y-56937153D01*
X88312708Y-56967446D01*
X88331180Y-57002005D01*
X88342555Y-57039501D01*
X88347000Y-57084638D01*
X88347000Y-57723362D01*
X88342555Y-57768499D01*
X88331180Y-57805995D01*
X88312708Y-57840554D01*
X88287847Y-57870847D01*
X88257554Y-57895708D01*
X88222995Y-57914180D01*
X88185499Y-57925555D01*
X88140362Y-57930000D01*
X87401638Y-57930000D01*
X87356501Y-57925555D01*
X87319005Y-57914180D01*
X87284446Y-57895708D01*
X87254153Y-57870847D01*
X87229292Y-57840554D01*
X87210820Y-57805995D01*
X87199445Y-57768499D01*
X87195000Y-57723362D01*
X87195000Y-57084638D01*
X87199445Y-57039501D01*
X87210820Y-57002005D01*
X87229292Y-56967446D01*
X87254153Y-56937153D01*
X87284446Y-56912292D01*
X87319005Y-56893820D01*
X87356501Y-56882445D01*
X87401638Y-56878000D01*
X88140362Y-56878000D01*
X88185499Y-56882445D01*
G37*
G36*
X86125499Y-56882445D02*
G01*
X86162995Y-56893820D01*
X86197554Y-56912292D01*
X86227847Y-56937153D01*
X86252708Y-56967446D01*
X86271180Y-57002005D01*
X86282555Y-57039501D01*
X86287000Y-57084638D01*
X86287000Y-57723362D01*
X86282555Y-57768499D01*
X86271180Y-57805995D01*
X86252708Y-57840554D01*
X86227847Y-57870847D01*
X86197554Y-57895708D01*
X86162995Y-57914180D01*
X86125499Y-57925555D01*
X86080362Y-57930000D01*
X85341638Y-57930000D01*
X85296501Y-57925555D01*
X85259005Y-57914180D01*
X85224446Y-57895708D01*
X85194153Y-57870847D01*
X85169292Y-57840554D01*
X85150820Y-57805995D01*
X85139445Y-57768499D01*
X85135000Y-57723362D01*
X85135000Y-57084638D01*
X85139445Y-57039501D01*
X85150820Y-57002005D01*
X85169292Y-56967446D01*
X85194153Y-56937153D01*
X85224446Y-56912292D01*
X85259005Y-56893820D01*
X85296501Y-56882445D01*
X85341638Y-56878000D01*
X86080362Y-56878000D01*
X86125499Y-56882445D01*
G37*
G36*
X84375499Y-56882445D02*
G01*
X84412995Y-56893820D01*
X84447554Y-56912292D01*
X84477847Y-56937153D01*
X84502708Y-56967446D01*
X84521180Y-57002005D01*
X84532555Y-57039501D01*
X84537000Y-57084638D01*
X84537000Y-57723362D01*
X84532555Y-57768499D01*
X84521180Y-57805995D01*
X84502708Y-57840554D01*
X84477847Y-57870847D01*
X84447554Y-57895708D01*
X84412995Y-57914180D01*
X84375499Y-57925555D01*
X84330362Y-57930000D01*
X83591638Y-57930000D01*
X83546501Y-57925555D01*
X83509005Y-57914180D01*
X83474446Y-57895708D01*
X83444153Y-57870847D01*
X83419292Y-57840554D01*
X83400820Y-57805995D01*
X83389445Y-57768499D01*
X83385000Y-57723362D01*
X83385000Y-57084638D01*
X83389445Y-57039501D01*
X83400820Y-57002005D01*
X83419292Y-56967446D01*
X83444153Y-56937153D01*
X83474446Y-56912292D01*
X83509005Y-56893820D01*
X83546501Y-56882445D01*
X83591638Y-56878000D01*
X84330362Y-56878000D01*
X84375499Y-56882445D01*
G37*
G36*
X94789499Y-56628445D02*
G01*
X94826995Y-56639820D01*
X94861554Y-56658292D01*
X94891847Y-56683153D01*
X94916708Y-56713446D01*
X94935180Y-56748005D01*
X94946555Y-56785501D01*
X94951000Y-56830638D01*
X94951000Y-57469362D01*
X94946555Y-57514499D01*
X94935180Y-57551995D01*
X94916708Y-57586554D01*
X94891847Y-57616847D01*
X94861554Y-57641708D01*
X94826995Y-57660180D01*
X94789499Y-57671555D01*
X94744362Y-57676000D01*
X94005638Y-57676000D01*
X93960501Y-57671555D01*
X93923005Y-57660180D01*
X93888446Y-57641708D01*
X93858153Y-57616847D01*
X93833292Y-57586554D01*
X93814820Y-57551995D01*
X93803445Y-57514499D01*
X93799000Y-57469362D01*
X93799000Y-56830638D01*
X93803445Y-56785501D01*
X93814820Y-56748005D01*
X93833292Y-56713446D01*
X93858153Y-56683153D01*
X93888446Y-56658292D01*
X93923005Y-56639820D01*
X93960501Y-56628445D01*
X94005638Y-56624000D01*
X94744362Y-56624000D01*
X94789499Y-56628445D01*
G37*
G36*
X96539499Y-56628445D02*
G01*
X96576995Y-56639820D01*
X96611554Y-56658292D01*
X96641847Y-56683153D01*
X96666708Y-56713446D01*
X96685180Y-56748005D01*
X96696555Y-56785501D01*
X96701000Y-56830638D01*
X96701000Y-57469362D01*
X96696555Y-57514499D01*
X96685180Y-57551995D01*
X96666708Y-57586554D01*
X96641847Y-57616847D01*
X96611554Y-57641708D01*
X96576995Y-57660180D01*
X96539499Y-57671555D01*
X96494362Y-57676000D01*
X95755638Y-57676000D01*
X95710501Y-57671555D01*
X95673005Y-57660180D01*
X95638446Y-57641708D01*
X95608153Y-57616847D01*
X95583292Y-57586554D01*
X95564820Y-57551995D01*
X95553445Y-57514499D01*
X95549000Y-57469362D01*
X95549000Y-56830638D01*
X95553445Y-56785501D01*
X95564820Y-56748005D01*
X95583292Y-56713446D01*
X95608153Y-56683153D01*
X95638446Y-56658292D01*
X95673005Y-56639820D01*
X95710501Y-56628445D01*
X95755638Y-56624000D01*
X96494362Y-56624000D01*
X96539499Y-56628445D01*
G37*
G36*
X92411000Y-55101000D02*
G01*
X88909000Y-55101000D01*
X88909000Y-45499000D01*
X92411000Y-45499000D01*
X92411000Y-55101000D01*
G37*
G36*
X94111000Y-54776000D02*
G01*
X92909000Y-54776000D01*
X92909000Y-45824000D01*
X94111000Y-45824000D01*
X94111000Y-54776000D01*
G37*
G36*
X88411000Y-54776000D02*
G01*
X87209000Y-54776000D01*
X87209000Y-45824000D01*
X88411000Y-45824000D01*
X88411000Y-54776000D01*
G37*
G36*
X81618410Y-51311525D02*
G01*
X81703426Y-51337314D01*
X81781775Y-51379193D01*
X81850449Y-51435551D01*
X81906807Y-51504225D01*
X81948686Y-51582574D01*
X81974475Y-51667590D01*
X81983182Y-51756000D01*
X81974475Y-51844410D01*
X81948686Y-51929426D01*
X81906807Y-52007775D01*
X81850449Y-52076449D01*
X81781775Y-52132807D01*
X81703426Y-52174686D01*
X81618410Y-52200475D01*
X81552158Y-52207000D01*
X81007842Y-52207000D01*
X80941590Y-52200475D01*
X80856574Y-52174686D01*
X80778225Y-52132807D01*
X80709551Y-52076449D01*
X80653193Y-52007775D01*
X80611314Y-51929426D01*
X80585525Y-51844410D01*
X80576818Y-51756000D01*
X80585525Y-51667590D01*
X80611314Y-51582574D01*
X80653193Y-51504225D01*
X80709551Y-51435551D01*
X80778225Y-51379193D01*
X80856574Y-51337314D01*
X80941590Y-51311525D01*
X81007842Y-51305000D01*
X81552158Y-51305000D01*
X81618410Y-51311525D01*
G37*
G36*
X81618410Y-50061525D02*
G01*
X81703426Y-50087314D01*
X81781775Y-50129193D01*
X81850449Y-50185551D01*
X81906807Y-50254225D01*
X81948686Y-50332574D01*
X81974475Y-50417590D01*
X81983182Y-50506000D01*
X81974475Y-50594410D01*
X81948686Y-50679426D01*
X81906807Y-50757775D01*
X81850449Y-50826449D01*
X81781775Y-50882807D01*
X81703426Y-50924686D01*
X81618410Y-50950475D01*
X81552158Y-50957000D01*
X81007842Y-50957000D01*
X80941590Y-50950475D01*
X80856574Y-50924686D01*
X80778225Y-50882807D01*
X80709551Y-50826449D01*
X80653193Y-50757775D01*
X80611314Y-50679426D01*
X80585525Y-50594410D01*
X80576818Y-50506000D01*
X80585525Y-50417590D01*
X80611314Y-50332574D01*
X80653193Y-50254225D01*
X80709551Y-50185551D01*
X80778225Y-50129193D01*
X80856574Y-50087314D01*
X80941590Y-50061525D01*
X81007842Y-50055000D01*
X81552158Y-50055000D01*
X81618410Y-50061525D01*
G37*
G36*
X81618410Y-48811525D02*
G01*
X81703426Y-48837314D01*
X81781775Y-48879193D01*
X81850449Y-48935551D01*
X81906807Y-49004225D01*
X81948686Y-49082574D01*
X81974475Y-49167590D01*
X81983182Y-49256000D01*
X81974475Y-49344410D01*
X81948686Y-49429426D01*
X81906807Y-49507775D01*
X81850449Y-49576449D01*
X81781775Y-49632807D01*
X81703426Y-49674686D01*
X81618410Y-49700475D01*
X81552158Y-49707000D01*
X81007842Y-49707000D01*
X80941590Y-49700475D01*
X80856574Y-49674686D01*
X80778225Y-49632807D01*
X80709551Y-49576449D01*
X80653193Y-49507775D01*
X80611314Y-49429426D01*
X80585525Y-49344410D01*
X80576818Y-49256000D01*
X80585525Y-49167590D01*
X80611314Y-49082574D01*
X80653193Y-49004225D01*
X80709551Y-48935551D01*
X80778225Y-48879193D01*
X80856574Y-48837314D01*
X80941590Y-48811525D01*
X81007842Y-48805000D01*
X81552158Y-48805000D01*
X81618410Y-48811525D01*
G37*
G36*
X48713512Y-46823927D02*
G01*
X48862812Y-46853624D01*
X49026784Y-46921544D01*
X49174354Y-47020147D01*
X49299853Y-47145646D01*
X49398456Y-47293216D01*
X49466376Y-47457188D01*
X49493391Y-47593004D01*
X49500308Y-47627777D01*
X49501000Y-47631259D01*
X49501000Y-47808741D01*
X49466376Y-47982812D01*
X49398456Y-48146784D01*
X49299853Y-48294354D01*
X49174354Y-48419853D01*
X49026784Y-48518456D01*
X48862812Y-48586376D01*
X48713512Y-48616073D01*
X48688742Y-48621000D01*
X48511258Y-48621000D01*
X48486488Y-48616073D01*
X48337188Y-48586376D01*
X48173216Y-48518456D01*
X48025646Y-48419853D01*
X47900147Y-48294354D01*
X47801544Y-48146784D01*
X47733624Y-47982812D01*
X47699000Y-47808741D01*
X47699000Y-47631259D01*
X47699693Y-47627777D01*
X47706609Y-47593004D01*
X47733624Y-47457188D01*
X47801544Y-47293216D01*
X47900147Y-47145646D01*
X48025646Y-47020147D01*
X48173216Y-46921544D01*
X48337188Y-46853624D01*
X48486488Y-46823927D01*
X48511258Y-46819000D01*
X48688742Y-46819000D01*
X48713512Y-46823927D01*
G37*
G36*
X81849683Y-47558725D02*
G01*
X81880143Y-47567966D01*
X81908223Y-47582974D01*
X81932831Y-47603169D01*
X81953026Y-47627777D01*
X81968034Y-47655857D01*
X81977275Y-47686317D01*
X81981000Y-47724140D01*
X81981000Y-48287860D01*
X81977275Y-48325683D01*
X81968034Y-48356143D01*
X81953026Y-48384223D01*
X81932831Y-48408831D01*
X81908223Y-48429026D01*
X81880143Y-48444034D01*
X81849683Y-48453275D01*
X81811860Y-48457000D01*
X80748140Y-48457000D01*
X80710317Y-48453275D01*
X80679857Y-48444034D01*
X80651777Y-48429026D01*
X80627169Y-48408831D01*
X80606974Y-48384223D01*
X80591966Y-48356143D01*
X80582725Y-48325683D01*
X80579000Y-48287860D01*
X80579000Y-47724140D01*
X80582725Y-47686317D01*
X80591966Y-47655857D01*
X80606974Y-47627777D01*
X80627169Y-47603169D01*
X80651777Y-47582974D01*
X80679857Y-47567966D01*
X80710317Y-47558725D01*
X80748140Y-47555000D01*
X81811860Y-47555000D01*
X81849683Y-47558725D01*
G37*
G36*
X48713512Y-44283927D02*
G01*
X48862812Y-44313624D01*
X49026784Y-44381544D01*
X49174354Y-44480147D01*
X49299853Y-44605646D01*
X49398456Y-44753216D01*
X49466376Y-44917188D01*
X49496073Y-45066488D01*
X49497638Y-45074354D01*
X49501000Y-45091259D01*
X49501000Y-45268741D01*
X49466376Y-45442812D01*
X49398456Y-45606784D01*
X49299853Y-45754354D01*
X49174354Y-45879853D01*
X49026784Y-45978456D01*
X48862812Y-46046376D01*
X48713512Y-46076073D01*
X48688742Y-46081000D01*
X48511258Y-46081000D01*
X48486488Y-46076073D01*
X48337188Y-46046376D01*
X48173216Y-45978456D01*
X48025646Y-45879853D01*
X47900147Y-45754354D01*
X47801544Y-45606784D01*
X47733624Y-45442812D01*
X47699000Y-45268741D01*
X47699000Y-45091259D01*
X47702363Y-45074354D01*
X47703927Y-45066488D01*
X47733624Y-44917188D01*
X47801544Y-44753216D01*
X47900147Y-44605646D01*
X48025646Y-44480147D01*
X48173216Y-44381544D01*
X48337188Y-44313624D01*
X48486488Y-44283927D01*
X48511258Y-44279000D01*
X48688742Y-44279000D01*
X48713512Y-44283927D01*
G37*
G36*
X83331499Y-43674445D02*
G01*
X83368995Y-43685820D01*
X83403554Y-43704292D01*
X83433847Y-43729153D01*
X83458708Y-43759446D01*
X83477180Y-43794005D01*
X83488555Y-43831501D01*
X83493000Y-43876638D01*
X83493000Y-44515362D01*
X83488555Y-44560499D01*
X83477180Y-44597995D01*
X83458708Y-44632554D01*
X83433847Y-44662847D01*
X83403554Y-44687708D01*
X83368995Y-44706180D01*
X83331499Y-44717555D01*
X83286362Y-44722000D01*
X82547638Y-44722000D01*
X82502501Y-44717555D01*
X82465005Y-44706180D01*
X82430446Y-44687708D01*
X82400153Y-44662847D01*
X82375292Y-44632554D01*
X82356820Y-44597995D01*
X82345445Y-44560499D01*
X82341000Y-44515362D01*
X82341000Y-43876638D01*
X82345445Y-43831501D01*
X82356820Y-43794005D01*
X82375292Y-43759446D01*
X82400153Y-43729153D01*
X82430446Y-43704292D01*
X82465005Y-43685820D01*
X82502501Y-43674445D01*
X82547638Y-43670000D01*
X83286362Y-43670000D01*
X83331499Y-43674445D01*
G37*
G36*
X81581499Y-43674445D02*
G01*
X81618995Y-43685820D01*
X81653554Y-43704292D01*
X81683847Y-43729153D01*
X81708708Y-43759446D01*
X81727180Y-43794005D01*
X81738555Y-43831501D01*
X81743000Y-43876638D01*
X81743000Y-44515362D01*
X81738555Y-44560499D01*
X81727180Y-44597995D01*
X81708708Y-44632554D01*
X81683847Y-44662847D01*
X81653554Y-44687708D01*
X81618995Y-44706180D01*
X81581499Y-44717555D01*
X81536362Y-44722000D01*
X80797638Y-44722000D01*
X80752501Y-44717555D01*
X80715005Y-44706180D01*
X80680446Y-44687708D01*
X80650153Y-44662847D01*
X80625292Y-44632554D01*
X80606820Y-44597995D01*
X80595445Y-44560499D01*
X80591000Y-44515362D01*
X80591000Y-43876638D01*
X80595445Y-43831501D01*
X80606820Y-43794005D01*
X80625292Y-43759446D01*
X80650153Y-43729153D01*
X80680446Y-43704292D01*
X80715005Y-43685820D01*
X80752501Y-43674445D01*
X80797638Y-43670000D01*
X81536362Y-43670000D01*
X81581499Y-43674445D01*
G37*
G36*
X48713512Y-41743927D02*
G01*
X48862812Y-41773624D01*
X49026784Y-41841544D01*
X49174354Y-41940147D01*
X49299853Y-42065646D01*
X49398456Y-42213216D01*
X49466376Y-42377188D01*
X49501000Y-42551259D01*
X49501000Y-42728741D01*
X49466376Y-42902812D01*
X49398456Y-43066784D01*
X49299853Y-43214354D01*
X49174354Y-43339853D01*
X49026784Y-43438456D01*
X48862812Y-43506376D01*
X48713512Y-43536073D01*
X48688742Y-43541000D01*
X48511258Y-43541000D01*
X48486488Y-43536073D01*
X48337188Y-43506376D01*
X48173216Y-43438456D01*
X48025646Y-43339853D01*
X47900147Y-43214354D01*
X47801544Y-43066784D01*
X47733624Y-42902812D01*
X47699000Y-42728741D01*
X47699000Y-42551259D01*
X47733624Y-42377188D01*
X47801544Y-42213216D01*
X47900147Y-42065646D01*
X48025646Y-41940147D01*
X48173216Y-41841544D01*
X48337188Y-41773624D01*
X48486488Y-41743927D01*
X48511258Y-41739000D01*
X48688742Y-41739000D01*
X48713512Y-41743927D01*
G37*
G36*
X91995499Y-41388445D02*
G01*
X92032995Y-41399820D01*
X92067554Y-41418292D01*
X92097847Y-41443153D01*
X92122708Y-41473446D01*
X92141180Y-41508005D01*
X92152555Y-41545501D01*
X92157000Y-41590638D01*
X92157000Y-42229362D01*
X92152555Y-42274499D01*
X92141180Y-42311995D01*
X92122708Y-42346554D01*
X92097847Y-42376847D01*
X92067554Y-42401708D01*
X92032995Y-42420180D01*
X91995499Y-42431555D01*
X91950362Y-42436000D01*
X91211638Y-42436000D01*
X91166501Y-42431555D01*
X91129005Y-42420180D01*
X91094446Y-42401708D01*
X91064153Y-42376847D01*
X91039292Y-42346554D01*
X91020820Y-42311995D01*
X91009445Y-42274499D01*
X91005000Y-42229362D01*
X91005000Y-41590638D01*
X91009445Y-41545501D01*
X91020820Y-41508005D01*
X91039292Y-41473446D01*
X91064153Y-41443153D01*
X91094446Y-41418292D01*
X91129005Y-41399820D01*
X91166501Y-41388445D01*
X91211638Y-41384000D01*
X91950362Y-41384000D01*
X91995499Y-41388445D01*
G37*
G36*
X93745499Y-41388445D02*
G01*
X93782995Y-41399820D01*
X93817554Y-41418292D01*
X93847847Y-41443153D01*
X93872708Y-41473446D01*
X93891180Y-41508005D01*
X93902555Y-41545501D01*
X93907000Y-41590638D01*
X93907000Y-42229362D01*
X93902555Y-42274499D01*
X93891180Y-42311995D01*
X93872708Y-42346554D01*
X93847847Y-42376847D01*
X93817554Y-42401708D01*
X93782995Y-42420180D01*
X93745499Y-42431555D01*
X93700362Y-42436000D01*
X92961638Y-42436000D01*
X92916501Y-42431555D01*
X92879005Y-42420180D01*
X92844446Y-42401708D01*
X92814153Y-42376847D01*
X92789292Y-42346554D01*
X92770820Y-42311995D01*
X92759445Y-42274499D01*
X92755000Y-42229362D01*
X92755000Y-41590638D01*
X92759445Y-41545501D01*
X92770820Y-41508005D01*
X92789292Y-41473446D01*
X92814153Y-41443153D01*
X92844446Y-41418292D01*
X92879005Y-41399820D01*
X92916501Y-41388445D01*
X92961638Y-41384000D01*
X93700362Y-41384000D01*
X93745499Y-41388445D01*
G37*
G36*
X86704499Y-41378445D02*
G01*
X86741995Y-41389820D01*
X86776554Y-41408292D01*
X86806847Y-41433153D01*
X86831708Y-41463446D01*
X86850180Y-41498005D01*
X86861555Y-41535501D01*
X86866000Y-41580638D01*
X86866000Y-42219362D01*
X86861555Y-42264499D01*
X86850180Y-42301995D01*
X86831708Y-42336554D01*
X86806847Y-42366847D01*
X86776554Y-42391708D01*
X86741995Y-42410180D01*
X86704499Y-42421555D01*
X86659362Y-42426000D01*
X85920638Y-42426000D01*
X85875501Y-42421555D01*
X85838005Y-42410180D01*
X85803446Y-42391708D01*
X85773153Y-42366847D01*
X85748292Y-42336554D01*
X85729820Y-42301995D01*
X85718445Y-42264499D01*
X85714000Y-42219362D01*
X85714000Y-41580638D01*
X85718445Y-41535501D01*
X85729820Y-41498005D01*
X85748292Y-41463446D01*
X85773153Y-41433153D01*
X85803446Y-41408292D01*
X85838005Y-41389820D01*
X85875501Y-41378445D01*
X85920638Y-41374000D01*
X86659362Y-41374000D01*
X86704499Y-41378445D01*
G37*
G36*
X88454499Y-41378445D02*
G01*
X88491995Y-41389820D01*
X88526554Y-41408292D01*
X88556847Y-41433153D01*
X88581708Y-41463446D01*
X88600180Y-41498005D01*
X88611555Y-41535501D01*
X88616000Y-41580638D01*
X88616000Y-42219362D01*
X88611555Y-42264499D01*
X88600180Y-42301995D01*
X88581708Y-42336554D01*
X88556847Y-42366847D01*
X88526554Y-42391708D01*
X88491995Y-42410180D01*
X88454499Y-42421555D01*
X88409362Y-42426000D01*
X87670638Y-42426000D01*
X87625501Y-42421555D01*
X87588005Y-42410180D01*
X87553446Y-42391708D01*
X87523153Y-42366847D01*
X87498292Y-42336554D01*
X87479820Y-42301995D01*
X87468445Y-42264499D01*
X87464000Y-42219362D01*
X87464000Y-41580638D01*
X87468445Y-41535501D01*
X87479820Y-41498005D01*
X87498292Y-41463446D01*
X87523153Y-41433153D01*
X87553446Y-41408292D01*
X87588005Y-41389820D01*
X87625501Y-41378445D01*
X87670638Y-41374000D01*
X88409362Y-41374000D01*
X88454499Y-41378445D01*
G37*
G36*
X81581499Y-40880445D02*
G01*
X81618995Y-40891820D01*
X81653554Y-40910292D01*
X81683847Y-40935153D01*
X81708708Y-40965446D01*
X81727180Y-41000005D01*
X81738555Y-41037501D01*
X81743000Y-41082638D01*
X81743000Y-41721362D01*
X81738555Y-41766499D01*
X81727180Y-41803995D01*
X81708708Y-41838554D01*
X81683847Y-41868847D01*
X81653554Y-41893708D01*
X81618995Y-41912180D01*
X81581499Y-41923555D01*
X81536362Y-41928000D01*
X80797638Y-41928000D01*
X80752501Y-41923555D01*
X80715005Y-41912180D01*
X80680446Y-41893708D01*
X80650153Y-41868847D01*
X80625292Y-41838554D01*
X80606820Y-41803995D01*
X80595445Y-41766499D01*
X80591000Y-41721362D01*
X80591000Y-41082638D01*
X80595445Y-41037501D01*
X80606820Y-41000005D01*
X80625292Y-40965446D01*
X80650153Y-40935153D01*
X80680446Y-40910292D01*
X80715005Y-40891820D01*
X80752501Y-40880445D01*
X80797638Y-40876000D01*
X81536362Y-40876000D01*
X81581499Y-40880445D01*
G37*
G36*
X83331499Y-40880445D02*
G01*
X83368995Y-40891820D01*
X83403554Y-40910292D01*
X83433847Y-40935153D01*
X83458708Y-40965446D01*
X83477180Y-41000005D01*
X83488555Y-41037501D01*
X83493000Y-41082638D01*
X83493000Y-41721362D01*
X83488555Y-41766499D01*
X83477180Y-41803995D01*
X83458708Y-41838554D01*
X83433847Y-41868847D01*
X83403554Y-41893708D01*
X83368995Y-41912180D01*
X83331499Y-41923555D01*
X83286362Y-41928000D01*
X82547638Y-41928000D01*
X82502501Y-41923555D01*
X82465005Y-41912180D01*
X82430446Y-41893708D01*
X82400153Y-41868847D01*
X82375292Y-41838554D01*
X82356820Y-41803995D01*
X82345445Y-41766499D01*
X82341000Y-41721362D01*
X82341000Y-41082638D01*
X82345445Y-41037501D01*
X82356820Y-41000005D01*
X82375292Y-40965446D01*
X82400153Y-40935153D01*
X82430446Y-40910292D01*
X82465005Y-40891820D01*
X82502501Y-40880445D01*
X82547638Y-40876000D01*
X83286362Y-40876000D01*
X83331499Y-40880445D01*
G37*
G36*
X68357054Y-40841067D02*
G01*
X68387386Y-40847100D01*
X68446565Y-40871613D01*
X68469356Y-40881053D01*
X68473102Y-40882605D01*
X68550245Y-40934150D01*
X68615850Y-40999755D01*
X68667395Y-41076898D01*
X68693119Y-41139000D01*
X68702900Y-41162615D01*
X68721000Y-41253609D01*
X68721000Y-41346391D01*
X68715508Y-41374000D01*
X68702900Y-41437386D01*
X68667395Y-41523102D01*
X68615850Y-41600245D01*
X68550245Y-41665850D01*
X68473102Y-41717395D01*
X68387386Y-41752900D01*
X68357054Y-41758933D01*
X68296391Y-41771000D01*
X68203609Y-41771000D01*
X68142946Y-41758933D01*
X68112614Y-41752900D01*
X68026898Y-41717395D01*
X67949755Y-41665850D01*
X67884150Y-41600245D01*
X67832605Y-41523102D01*
X67797100Y-41437386D01*
X67784492Y-41374000D01*
X67779000Y-41346391D01*
X67779000Y-41253609D01*
X67797100Y-41162615D01*
X67806882Y-41139000D01*
X67832605Y-41076898D01*
X67884150Y-40999755D01*
X67949755Y-40934150D01*
X68026898Y-40882605D01*
X68030645Y-40881053D01*
X68053435Y-40871613D01*
X68112614Y-40847100D01*
X68142946Y-40841067D01*
X68203609Y-40829000D01*
X68296391Y-40829000D01*
X68357054Y-40841067D01*
G37*
G36*
X66771000Y-40704001D02*
G01*
X66773402Y-40728387D01*
X66780515Y-40751836D01*
X66792066Y-40773447D01*
X66807611Y-40792389D01*
X66826553Y-40807934D01*
X66848164Y-40819485D01*
X66871613Y-40826598D01*
X66895999Y-40829000D01*
X66996391Y-40829000D01*
X67057054Y-40841067D01*
X67087386Y-40847100D01*
X67146565Y-40871613D01*
X67169356Y-40881053D01*
X67173102Y-40882605D01*
X67250245Y-40934150D01*
X67315850Y-40999755D01*
X67367395Y-41076898D01*
X67393119Y-41139000D01*
X67402900Y-41162615D01*
X67421000Y-41253609D01*
X67421000Y-41346391D01*
X67415508Y-41374000D01*
X67402900Y-41437386D01*
X67367395Y-41523102D01*
X67315850Y-41600245D01*
X67250245Y-41665850D01*
X67173102Y-41717395D01*
X67087386Y-41752900D01*
X67057054Y-41758933D01*
X66996391Y-41771000D01*
X66903609Y-41771000D01*
X66842946Y-41758933D01*
X66812614Y-41752900D01*
X66726898Y-41717395D01*
X66649755Y-41665850D01*
X66584150Y-41600245D01*
X66532605Y-41523102D01*
X66497100Y-41437386D01*
X66484492Y-41374000D01*
X66479000Y-41346391D01*
X66479000Y-41253609D01*
X66497100Y-41162615D01*
X66506882Y-41139000D01*
X66532605Y-41076898D01*
X66584150Y-40999755D01*
X66599524Y-40984381D01*
X66615064Y-40965445D01*
X66626615Y-40943834D01*
X66633728Y-40920385D01*
X66636130Y-40895999D01*
X66633728Y-40871613D01*
X66626615Y-40848164D01*
X66615064Y-40826553D01*
X66599519Y-40807611D01*
X66580577Y-40792066D01*
X66558966Y-40780515D01*
X66535517Y-40773402D01*
X66511131Y-40771000D01*
X65829000Y-40771000D01*
X65829000Y-39829000D01*
X66771000Y-39829000D01*
X66771000Y-40704001D01*
G37*
G36*
X71268311Y-39550887D02*
G01*
X71358038Y-39578106D01*
X71440731Y-39622306D01*
X71513211Y-39681789D01*
X71572694Y-39754269D01*
X71616894Y-39836961D01*
X71644113Y-39926688D01*
X71651000Y-39996616D01*
X71651000Y-41043384D01*
X71644113Y-41113312D01*
X71616894Y-41203039D01*
X71572694Y-41285731D01*
X71513211Y-41358211D01*
X71440731Y-41417694D01*
X71358039Y-41461894D01*
X71268312Y-41489113D01*
X71175000Y-41498303D01*
X71081689Y-41489113D01*
X70991962Y-41461894D01*
X70909270Y-41417694D01*
X70836790Y-41358211D01*
X70777307Y-41285731D01*
X70733107Y-41203039D01*
X70705888Y-41113312D01*
X70699001Y-41043384D01*
X70699000Y-39996617D01*
X70705887Y-39926689D01*
X70733106Y-39836962D01*
X70777306Y-39754269D01*
X70836789Y-39681789D01*
X70909269Y-39622306D01*
X70991961Y-39578106D01*
X71081688Y-39550887D01*
X71175000Y-39541697D01*
X71268311Y-39550887D01*
G37*
G36*
X64118311Y-39550887D02*
G01*
X64208038Y-39578106D01*
X64290731Y-39622306D01*
X64363211Y-39681789D01*
X64422694Y-39754269D01*
X64466894Y-39836961D01*
X64494113Y-39926688D01*
X64501000Y-39996616D01*
X64501000Y-41043384D01*
X64494113Y-41113312D01*
X64466894Y-41203039D01*
X64422694Y-41285731D01*
X64363211Y-41358211D01*
X64290731Y-41417694D01*
X64208039Y-41461894D01*
X64118312Y-41489113D01*
X64025000Y-41498303D01*
X63931689Y-41489113D01*
X63841962Y-41461894D01*
X63759270Y-41417694D01*
X63686790Y-41358211D01*
X63627307Y-41285731D01*
X63583107Y-41203039D01*
X63555888Y-41113312D01*
X63549001Y-41043384D01*
X63549000Y-39996617D01*
X63555887Y-39926689D01*
X63583106Y-39836962D01*
X63627306Y-39754269D01*
X63686789Y-39681789D01*
X63759269Y-39622306D01*
X63841961Y-39578106D01*
X63931688Y-39550887D01*
X64025000Y-39541697D01*
X64118311Y-39550887D01*
G37*
G36*
X49501000Y-41001000D02*
G01*
X47699000Y-41001000D01*
X47699000Y-39199000D01*
X49501000Y-39199000D01*
X49501000Y-41001000D01*
G37*
G36*
X67686403Y-39836959D02*
G01*
X67737386Y-39847100D01*
X67823102Y-39882605D01*
X67900245Y-39934150D01*
X67965850Y-39999755D01*
X68014936Y-40073218D01*
X68017396Y-40076900D01*
X68052900Y-40162615D01*
X68067734Y-40237188D01*
X68071000Y-40253611D01*
X68071000Y-40346389D01*
X68052900Y-40437386D01*
X68017395Y-40523102D01*
X67965850Y-40600245D01*
X67900245Y-40665850D01*
X67823102Y-40717395D01*
X67737386Y-40752900D01*
X67707054Y-40758933D01*
X67646391Y-40771000D01*
X67553609Y-40771000D01*
X67492946Y-40758933D01*
X67462614Y-40752900D01*
X67376898Y-40717395D01*
X67299755Y-40665850D01*
X67234150Y-40600245D01*
X67182605Y-40523102D01*
X67147100Y-40437386D01*
X67129000Y-40346389D01*
X67129000Y-40253611D01*
X67132267Y-40237188D01*
X67147100Y-40162615D01*
X67182604Y-40076900D01*
X67185064Y-40073218D01*
X67234150Y-39999755D01*
X67299755Y-39934150D01*
X67376898Y-39882605D01*
X67462614Y-39847100D01*
X67513597Y-39836959D01*
X67553609Y-39829000D01*
X67646391Y-39829000D01*
X67686403Y-39836959D01*
G37*
G36*
X68986403Y-39836959D02*
G01*
X69037386Y-39847100D01*
X69123102Y-39882605D01*
X69200245Y-39934150D01*
X69265850Y-39999755D01*
X69314936Y-40073218D01*
X69317396Y-40076900D01*
X69352900Y-40162615D01*
X69367734Y-40237188D01*
X69371000Y-40253611D01*
X69371000Y-40346389D01*
X69352900Y-40437386D01*
X69317395Y-40523102D01*
X69265850Y-40600245D01*
X69200245Y-40665850D01*
X69123102Y-40717395D01*
X69037386Y-40752900D01*
X69007054Y-40758933D01*
X68946391Y-40771000D01*
X68853609Y-40771000D01*
X68792946Y-40758933D01*
X68762614Y-40752900D01*
X68676898Y-40717395D01*
X68599755Y-40665850D01*
X68534150Y-40600245D01*
X68482605Y-40523102D01*
X68447100Y-40437386D01*
X68429000Y-40346389D01*
X68429000Y-40253611D01*
X68432267Y-40237188D01*
X68447100Y-40162615D01*
X68482604Y-40076900D01*
X68485064Y-40073218D01*
X68534150Y-39999755D01*
X68599755Y-39934150D01*
X68676898Y-39882605D01*
X68762614Y-39847100D01*
X68813597Y-39836959D01*
X68853609Y-39829000D01*
X68946391Y-39829000D01*
X68986403Y-39836959D01*
G37*
G36*
X94027499Y-38594445D02*
G01*
X94064995Y-38605820D01*
X94099554Y-38624292D01*
X94129847Y-38649153D01*
X94154708Y-38679446D01*
X94173180Y-38714005D01*
X94184555Y-38751501D01*
X94189000Y-38796638D01*
X94189000Y-39435362D01*
X94184555Y-39480499D01*
X94173180Y-39517995D01*
X94154708Y-39552554D01*
X94129847Y-39582847D01*
X94099554Y-39607708D01*
X94064995Y-39626180D01*
X94027499Y-39637555D01*
X93982362Y-39642000D01*
X93243638Y-39642000D01*
X93198501Y-39637555D01*
X93161005Y-39626180D01*
X93126446Y-39607708D01*
X93096153Y-39582847D01*
X93071292Y-39552554D01*
X93052820Y-39517995D01*
X93041445Y-39480499D01*
X93037000Y-39435362D01*
X93037000Y-38796638D01*
X93041445Y-38751501D01*
X93052820Y-38714005D01*
X93071292Y-38679446D01*
X93096153Y-38649153D01*
X93126446Y-38624292D01*
X93161005Y-38605820D01*
X93198501Y-38594445D01*
X93243638Y-38590000D01*
X93982362Y-38590000D01*
X94027499Y-38594445D01*
G37*
G36*
X95777499Y-38594445D02*
G01*
X95814995Y-38605820D01*
X95849554Y-38624292D01*
X95879847Y-38649153D01*
X95904708Y-38679446D01*
X95923180Y-38714005D01*
X95934555Y-38751501D01*
X95939000Y-38796638D01*
X95939000Y-39435362D01*
X95934555Y-39480499D01*
X95923180Y-39517995D01*
X95904708Y-39552554D01*
X95879847Y-39582847D01*
X95849554Y-39607708D01*
X95814995Y-39626180D01*
X95777499Y-39637555D01*
X95732362Y-39642000D01*
X94993638Y-39642000D01*
X94948501Y-39637555D01*
X94911005Y-39626180D01*
X94876446Y-39607708D01*
X94846153Y-39582847D01*
X94821292Y-39552554D01*
X94802820Y-39517995D01*
X94791445Y-39480499D01*
X94787000Y-39435362D01*
X94787000Y-38796638D01*
X94791445Y-38751501D01*
X94802820Y-38714005D01*
X94821292Y-38679446D01*
X94846153Y-38649153D01*
X94876446Y-38624292D01*
X94911005Y-38605820D01*
X94948501Y-38594445D01*
X94993638Y-38590000D01*
X95732362Y-38590000D01*
X95777499Y-38594445D01*
G37*
G36*
X81073499Y-37070445D02*
G01*
X81110995Y-37081820D01*
X81145554Y-37100292D01*
X81175847Y-37125153D01*
X81200708Y-37155446D01*
X81219180Y-37190005D01*
X81230555Y-37227501D01*
X81235000Y-37272638D01*
X81235000Y-37911362D01*
X81230555Y-37956499D01*
X81219180Y-37993995D01*
X81200708Y-38028554D01*
X81175847Y-38058847D01*
X81145554Y-38083708D01*
X81110995Y-38102180D01*
X81073499Y-38113555D01*
X81028362Y-38118000D01*
X80289638Y-38118000D01*
X80244501Y-38113555D01*
X80207005Y-38102180D01*
X80172446Y-38083708D01*
X80142153Y-38058847D01*
X80117292Y-38028554D01*
X80098820Y-37993995D01*
X80087445Y-37956499D01*
X80083000Y-37911362D01*
X80083000Y-37272638D01*
X80087445Y-37227501D01*
X80098820Y-37190005D01*
X80117292Y-37155446D01*
X80142153Y-37125153D01*
X80172446Y-37100292D01*
X80207005Y-37081820D01*
X80244501Y-37070445D01*
X80289638Y-37066000D01*
X81028362Y-37066000D01*
X81073499Y-37070445D01*
G37*
G36*
X82823499Y-37070445D02*
G01*
X82860995Y-37081820D01*
X82895554Y-37100292D01*
X82925847Y-37125153D01*
X82950708Y-37155446D01*
X82969180Y-37190005D01*
X82980555Y-37227501D01*
X82985000Y-37272638D01*
X82985000Y-37911362D01*
X82980555Y-37956499D01*
X82969180Y-37993995D01*
X82950708Y-38028554D01*
X82925847Y-38058847D01*
X82895554Y-38083708D01*
X82860995Y-38102180D01*
X82823499Y-38113555D01*
X82778362Y-38118000D01*
X82039638Y-38118000D01*
X81994501Y-38113555D01*
X81957005Y-38102180D01*
X81922446Y-38083708D01*
X81892153Y-38058847D01*
X81867292Y-38028554D01*
X81848820Y-37993995D01*
X81837445Y-37956499D01*
X81833000Y-37911362D01*
X81833000Y-37272638D01*
X81837445Y-37227501D01*
X81848820Y-37190005D01*
X81867292Y-37155446D01*
X81892153Y-37125153D01*
X81922446Y-37100292D01*
X81957005Y-37081820D01*
X81994501Y-37070445D01*
X82039638Y-37066000D01*
X82778362Y-37066000D01*
X82823499Y-37070445D01*
G37*
G36*
X90443499Y-37070445D02*
G01*
X90480995Y-37081820D01*
X90515554Y-37100292D01*
X90545847Y-37125153D01*
X90570708Y-37155446D01*
X90589180Y-37190005D01*
X90600555Y-37227501D01*
X90605000Y-37272638D01*
X90605000Y-37911362D01*
X90600555Y-37956499D01*
X90589180Y-37993995D01*
X90570708Y-38028554D01*
X90545847Y-38058847D01*
X90515554Y-38083708D01*
X90480995Y-38102180D01*
X90443499Y-38113555D01*
X90398362Y-38118000D01*
X89659638Y-38118000D01*
X89614501Y-38113555D01*
X89577005Y-38102180D01*
X89542446Y-38083708D01*
X89512153Y-38058847D01*
X89487292Y-38028554D01*
X89468820Y-37993995D01*
X89457445Y-37956499D01*
X89453000Y-37911362D01*
X89453000Y-37272638D01*
X89457445Y-37227501D01*
X89468820Y-37190005D01*
X89487292Y-37155446D01*
X89512153Y-37125153D01*
X89542446Y-37100292D01*
X89577005Y-37081820D01*
X89614501Y-37070445D01*
X89659638Y-37066000D01*
X90398362Y-37066000D01*
X90443499Y-37070445D01*
G37*
G36*
X88693499Y-37070445D02*
G01*
X88730995Y-37081820D01*
X88765554Y-37100292D01*
X88795847Y-37125153D01*
X88820708Y-37155446D01*
X88839180Y-37190005D01*
X88850555Y-37227501D01*
X88855000Y-37272638D01*
X88855000Y-37911362D01*
X88850555Y-37956499D01*
X88839180Y-37993995D01*
X88820708Y-38028554D01*
X88795847Y-38058847D01*
X88765554Y-38083708D01*
X88730995Y-38102180D01*
X88693499Y-38113555D01*
X88648362Y-38118000D01*
X87909638Y-38118000D01*
X87864501Y-38113555D01*
X87827005Y-38102180D01*
X87792446Y-38083708D01*
X87762153Y-38058847D01*
X87737292Y-38028554D01*
X87718820Y-37993995D01*
X87707445Y-37956499D01*
X87703000Y-37911362D01*
X87703000Y-37272638D01*
X87707445Y-37227501D01*
X87718820Y-37190005D01*
X87737292Y-37155446D01*
X87762153Y-37125153D01*
X87792446Y-37100292D01*
X87827005Y-37081820D01*
X87864501Y-37070445D01*
X87909638Y-37066000D01*
X88648362Y-37066000D01*
X88693499Y-37070445D01*
G37*
M02*
