M48
; DRILL file {KiCad (5.1.5)-3} date 06/03/2020 21:22:23
; FORMAT={-:-/ absolute / inch / decimal}
; #@! TF.CreationDate,2020-03-06T21:22:23+08:00
; #@! TF.GenerationSoftware,Kicad,Pcbnew,(5.1.5)-3
; #@! TF.FileFunction,Plated,1,2,PTH
FMAT,2
INCH
T1C0.0118
T2C0.0138
T3C0.0173
T4C0.0197
T5C0.0276
T6C0.0280
T7C0.0315
T8C0.0394
T9C0.0748
%
G90
G05
T1
X1.42Y-2.65
X1.5004Y-3.1406
X1.6559Y-2.8787
X1.67Y-4.03
X1.7Y-3.12
X1.7Y-3.7071
X1.7102Y-2.2638
X1.72Y-2.42
X1.739Y-3.8252
X1.74Y-2.9
X1.74Y-2.95
X1.7453Y-3.7925
X1.7472Y-3.7034
X1.7579Y-3.8874
X1.7709Y-3.574
X1.78Y-2.71
X1.7827Y-2.2063
X1.8012Y-4.1598
X1.81Y-2.15
X1.83Y-2.55
X1.8374Y-3.3331
X1.852Y-4.2776
X1.92Y-3.257
X1.93Y-2.65
X1.9491Y-3.0409
X1.96Y-2.97
X1.9606Y-3.4283
X1.9614Y-3.076
X1.99Y-3.0
X1.99Y-3.2591
X2.02Y-3.0739
X2.03Y-2.49
X2.03Y-3.2591
X2.05Y-3.1454
X2.0697Y-1.8283
X2.07Y-4.26
X2.09Y-1.96
X2.1Y-3.39
X2.1142Y-3.6768
X2.12Y-3.25
X2.122Y-3.8681
X2.124Y-3.7673
X2.14Y-3.01
X2.1421Y-3.11
X2.1433Y-3.9218
X2.16Y-3.84
X2.17Y-3.24
X2.1795Y-3.8961
X2.18Y-3.02
X2.19Y-3.82
X2.2209Y-3.2323
X2.23Y-3.03
X2.24Y-1.68
X2.2795Y-2.0504
X2.2811Y-2.0004
X2.32Y-3.06
X2.36Y-3.01
X2.3969Y-2.3154
X2.4Y-3.6
X2.43Y-2.63
X2.48Y-3.54
X2.4941Y-3.1953
X2.5Y-3.72
X2.54Y-3.02
X2.54Y-3.58
X2.57Y-2.97
X2.63Y-3.6
X2.68Y-2.32
X2.73Y-3.7316
X2.75Y-2.51
X2.78Y-2.44
X2.95Y-3.92
X2.96Y-3.43
X3.05Y-3.7048
X3.11Y-2.18
X3.12Y-1.71
X3.14Y-3.72
X3.15Y-2.207
X3.19Y-3.14
X3.25Y-2.91
X3.27Y-1.8
X3.28Y-3.2
X3.2957Y-2.8236
X3.3Y-3.57
X3.31Y-2.0196
X3.31Y-3.71
X3.33Y-2.51
X3.35Y-1.75
X3.35Y-1.92
X3.35Y-2.09
X3.38Y-3.04
X3.38Y-3.4093
X3.39Y-3.48
X3.42Y-3.32
X3.45Y-2.48
X3.45Y-2.56
X3.45Y-3.26
X3.48Y-3.15
X3.73Y-1.65
X3.73Y-4.02
X3.733Y-2.106
X3.75Y-2.66
X3.75Y-3.93
X3.7559Y-2.0844
X3.76Y-1.62
X3.77Y-2.39
X3.7775Y-2.1975
X3.8Y-1.96
X3.8Y-2.0
X3.8Y-3.18
X3.82Y-1.85
X3.85Y-3.72
X3.8589Y-3.429
X3.87Y-3.4585
X3.87Y-3.49
X3.9Y-3.63
X3.91Y-3.34
X3.95Y-3.39
X3.95Y-3.94
X4.07Y-3.67
X4.14Y-1.77
X1.8854Y-3.6305
X1.8854Y-3.7006
X1.8854Y-3.7707
X1.8854Y-3.8407
X1.8854Y-3.9108
X1.8854Y-3.9809
X1.9366Y-3.6305
X1.9366Y-3.7006
X1.9366Y-3.7707
X1.9366Y-3.8407
X1.9366Y-3.9108
X1.9366Y-3.9809
X1.9878Y-3.6305
X1.9878Y-3.7006
X1.9878Y-3.7707
X1.9878Y-3.8407
X1.9878Y-3.9108
X1.9878Y-3.9809
X3.5688Y-3.1948
X3.5688Y-3.2649
X3.5688Y-3.335
X3.5688Y-3.405
X3.5688Y-3.4751
X3.5688Y-3.5452
X3.62Y-3.1948
X3.62Y-3.2649
X3.62Y-3.335
X3.62Y-3.405
X3.62Y-3.4751
X3.62Y-3.5452
X3.6712Y-3.1948
X3.6712Y-3.2649
X3.6712Y-3.335
X3.6712Y-3.405
X3.6712Y-3.4751
X3.6712Y-3.5452
X3.5181Y-1.8051
X3.5181Y-1.8752
X3.5181Y-1.9453
X3.5181Y-2.0154
X3.5181Y-2.0854
X3.5181Y-2.1555
X3.5693Y-1.8051
X3.5693Y-1.8752
X3.5693Y-1.9453
X3.5693Y-2.0154
X3.5693Y-2.0854
X3.5693Y-2.1555
X3.6205Y-1.8051
X3.6205Y-1.8752
X3.6205Y-1.9453
X3.6205Y-2.0154
X3.6205Y-2.0854
X3.6205Y-2.1555
T3
X2.6102Y-1.5866
X2.6358Y-1.626
X2.6614Y-1.5866
X2.687Y-1.626
X2.7126Y-1.5866
T4
X3.2488Y-3.3043
X3.2488Y-3.3535
X3.2488Y-3.4028
X3.2488Y-3.452
X3.2Y-1.89
X3.2Y-1.9392
X3.2Y-1.9884
X3.2Y-2.0376
X1.5854Y-3.3488
X1.5854Y-3.398
X1.5854Y-3.4472
X1.5854Y-3.4965
T5
X2.9283Y-2.8764
X2.9283Y-2.9264
X2.9283Y-2.9764
X2.9283Y-3.0264
X2.9783Y-2.8764
X2.9783Y-2.9264
X2.9783Y-2.9764
X2.9783Y-3.0264
X3.0118Y-1.5945
X3.0118Y-1.6732
X3.0118Y-1.752
X3.0118Y-1.8307
X3.0118Y-1.9094
X3.0118Y-1.9882
X3.0118Y-2.0669
X3.0118Y-2.1457
X3.0118Y-2.2244
X3.0118Y-2.3031
X3.878Y-1.5945
X3.878Y-1.6732
X3.878Y-1.752
X3.878Y-1.8307
X3.878Y-1.9094
X3.878Y-1.9882
X3.878Y-2.0669
X3.878Y-2.1457
X3.878Y-2.2244
X3.878Y-2.3031
T6
X1.86Y-3.43
X1.91Y-3.57
X2.9Y-3.28
X3.1Y-3.18
X3.11Y-1.54
X3.37Y-3.98
X3.5Y-3.78
X3.5Y-3.98
X3.51Y-1.55
X3.54Y-1.72
X3.56Y-3.05
T7
X3.1339Y-2.66
X3.1339Y-2.76
X3.1339Y-2.86
X3.1339Y-2.96
X3.4339Y-2.66
X3.4339Y-2.76
X3.4339Y-2.86
X3.4339Y-2.96
T8
X2.1079Y-3.5169
X2.2063Y-3.5169
X2.3047Y-3.5169
X2.7402Y-2.6795
X2.7402Y-2.7795
X2.7402Y-2.8795
X2.7402Y-2.9795
X2.7402Y-3.0795
X2.7402Y-3.1795
X2.7402Y-3.2795
X1.5197Y-2.2835
X1.5197Y-2.3835
X1.5197Y-2.4835
X1.5197Y-2.5835
X1.1638Y-2.8551
X1.1638Y-2.9551
X1.1638Y-3.0551
X1.2638Y-2.8551
X1.2638Y-2.9551
X1.2638Y-3.0551
X1.9134Y-1.5787
X1.9134Y-1.6787
X1.9134Y-1.7787
X1.9134Y-1.8787
X2.4469Y-4.4551
X2.8799Y-4.4551
T9
X2.565Y-4.0614
X2.7618Y-4.0614
T2
G00X2.5207Y-1.5756
M15
G01X2.5207Y-1.615
M16
G05
G00X2.8022Y-1.5756
M15
G01X2.8022Y-1.615
M16
G05
T0
M30
