G04 #@! TF.GenerationSoftware,KiCad,Pcbnew,(5.1.5)-3*
G04 #@! TF.CreationDate,2020-03-29T09:55:59+08:00*
G04 #@! TF.ProjectId,Misaka,4d697361-6b61-42e6-9b69-6361645f7063,rev?*
G04 #@! TF.SameCoordinates,Original*
G04 #@! TF.FileFunction,Legend,Bot*
G04 #@! TF.FilePolarity,Positive*
%FSLAX46Y46*%
G04 Gerber Fmt 4.6, Leading zero omitted, Abs format (unit mm)*
G04 Created by KiCad (PCBNEW (5.1.5)-3) date 2020-03-29 09:55:59*
%MOMM*%
%LPD*%
G04 APERTURE LIST*
%ADD10C,0.120000*%
%ADD11C,0.150000*%
G04 APERTURE END LIST*
D10*
X42121267Y-99460000D02*
X41778733Y-99460000D01*
X42121267Y-98440000D02*
X41778733Y-98440000D01*
X90329000Y-94502000D02*
X94714000Y-94502000D01*
X90329000Y-97522000D02*
X90329000Y-94502000D01*
X94714000Y-97522000D02*
X90329000Y-97522000D01*
X88551000Y-58688000D02*
X92936000Y-58688000D01*
X88551000Y-61708000D02*
X88551000Y-58688000D01*
X92936000Y-61708000D02*
X88551000Y-61708000D01*
X52295000Y-103340000D02*
X56680000Y-103340000D01*
X52295000Y-106360000D02*
X52295000Y-103340000D01*
X56680000Y-106360000D02*
X52295000Y-106360000D01*
D11*
X89623000Y-90348000D02*
X88548000Y-90348000D01*
X89623000Y-80572200D02*
X94273000Y-80572200D01*
X89623000Y-90573000D02*
X94273000Y-90573000D01*
X89623000Y-80572200D02*
X89623000Y-80897200D01*
X94273000Y-80572200D02*
X94273000Y-80897200D01*
X94273000Y-90573000D02*
X94273000Y-90248000D01*
X89623000Y-90573000D02*
X89623000Y-90348000D01*
X88335000Y-55050000D02*
X87260000Y-55050000D01*
X88335000Y-45274200D02*
X92985000Y-45274200D01*
X88335000Y-55275000D02*
X92985000Y-55275000D01*
X88335000Y-45274200D02*
X88335000Y-45599200D01*
X92985000Y-45274200D02*
X92985000Y-45599200D01*
X92985000Y-55275000D02*
X92985000Y-54950000D01*
X88335000Y-55275000D02*
X88335000Y-55050000D01*
X46865000Y-101415000D02*
X45790000Y-101415000D01*
X46865000Y-91639200D02*
X51515000Y-91639200D01*
X46865000Y-101640000D02*
X51515000Y-101640000D01*
X46865000Y-91639200D02*
X46865000Y-91964200D01*
X51515000Y-91639200D02*
X51515000Y-91964200D01*
X51515000Y-101640000D02*
X51515000Y-101315000D01*
X46865000Y-101640000D02*
X46865000Y-101415000D01*
D10*
X68126667Y-59335000D02*
X68126667Y-58065000D01*
X66920000Y-58135000D02*
X68126667Y-58135000D01*
X66920000Y-58255000D02*
X68126667Y-58255000D01*
X66920000Y-58375000D02*
X68126667Y-58375000D01*
X66920000Y-58495000D02*
X68126667Y-58495000D01*
X66920000Y-58615000D02*
X68126667Y-58615000D01*
X66920000Y-58735000D02*
X68126667Y-58735000D01*
X66920000Y-58855000D02*
X68126667Y-58855000D01*
X66920000Y-58975000D02*
X68126667Y-58975000D01*
X66920000Y-59095000D02*
X68126667Y-59095000D01*
X66920000Y-59215000D02*
X68126667Y-59215000D01*
X70540000Y-59335000D02*
X66920000Y-59335000D01*
X70540000Y-58065000D02*
X70540000Y-59335000D01*
X66920000Y-58065000D02*
X70540000Y-58065000D01*
X66920000Y-59335000D02*
X66920000Y-58065000D01*
X68126667Y-61875000D02*
X68126667Y-60605000D01*
X66920000Y-60675000D02*
X68126667Y-60675000D01*
X66920000Y-60795000D02*
X68126667Y-60795000D01*
X66920000Y-60915000D02*
X68126667Y-60915000D01*
X66920000Y-61035000D02*
X68126667Y-61035000D01*
X66920000Y-61155000D02*
X68126667Y-61155000D01*
X66920000Y-61275000D02*
X68126667Y-61275000D01*
X66920000Y-61395000D02*
X68126667Y-61395000D01*
X66920000Y-61515000D02*
X68126667Y-61515000D01*
X66920000Y-61635000D02*
X68126667Y-61635000D01*
X66920000Y-61755000D02*
X68126667Y-61755000D01*
X70540000Y-61875000D02*
X66920000Y-61875000D01*
X70540000Y-60605000D02*
X70540000Y-61875000D01*
X66920000Y-60605000D02*
X70540000Y-60605000D01*
X66920000Y-61875000D02*
X66920000Y-60605000D01*
X68126667Y-64415000D02*
X68126667Y-63145000D01*
X66920000Y-63215000D02*
X68126667Y-63215000D01*
X66920000Y-63335000D02*
X68126667Y-63335000D01*
X66920000Y-63455000D02*
X68126667Y-63455000D01*
X66920000Y-63575000D02*
X68126667Y-63575000D01*
X66920000Y-63695000D02*
X68126667Y-63695000D01*
X66920000Y-63815000D02*
X68126667Y-63815000D01*
X66920000Y-63935000D02*
X68126667Y-63935000D01*
X66920000Y-64055000D02*
X68126667Y-64055000D01*
X66920000Y-64175000D02*
X68126667Y-64175000D01*
X66920000Y-64295000D02*
X68126667Y-64295000D01*
X70540000Y-64415000D02*
X66920000Y-64415000D01*
X70540000Y-63145000D02*
X70540000Y-64415000D01*
X66920000Y-63145000D02*
X70540000Y-63145000D01*
X66920000Y-64415000D02*
X66920000Y-63145000D01*
X65080000Y-66130000D02*
X65080000Y-64747000D01*
X65080000Y-66130000D02*
X66463000Y-66130000D01*
X72140000Y-62980000D02*
X72140000Y-62040000D01*
X72140000Y-65890000D02*
X72140000Y-64580000D01*
X72140000Y-60440000D02*
X72140000Y-59500000D01*
X72140000Y-57900000D02*
X72140000Y-56590000D01*
X65320000Y-57900000D02*
X65320000Y-56590000D01*
X65320000Y-60440000D02*
X65320000Y-59500000D01*
X65320000Y-62980000D02*
X65320000Y-62040000D01*
X65320000Y-65890000D02*
X65320000Y-64580000D01*
X65320000Y-56590000D02*
X72140000Y-56590000D01*
X65320000Y-65890000D02*
X72140000Y-65890000D01*
X105408000Y-89071267D02*
X105408000Y-88728733D01*
X106428000Y-89071267D02*
X106428000Y-88728733D01*
X98723267Y-78488000D02*
X98380733Y-78488000D01*
X98723267Y-77468000D02*
X98380733Y-77468000D01*
X79838733Y-77722000D02*
X80181267Y-77722000D01*
X79838733Y-78742000D02*
X80181267Y-78742000D01*
X83648733Y-77976000D02*
X83991267Y-77976000D01*
X83648733Y-78996000D02*
X83991267Y-78996000D01*
X86442733Y-93978000D02*
X86785267Y-93978000D01*
X86442733Y-94998000D02*
X86785267Y-94998000D01*
X85934733Y-79754000D02*
X86277267Y-79754000D01*
X85934733Y-80774000D02*
X86277267Y-80774000D01*
X94659267Y-75948000D02*
X94316733Y-75948000D01*
X94659267Y-74928000D02*
X94316733Y-74928000D01*
X95078733Y-56640000D02*
X95421267Y-56640000D01*
X95078733Y-57660000D02*
X95421267Y-57660000D01*
X94659267Y-39626000D02*
X94316733Y-39626000D01*
X94659267Y-38606000D02*
X94316733Y-38606000D01*
X81870733Y-43686000D02*
X82213267Y-43686000D01*
X81870733Y-44706000D02*
X82213267Y-44706000D01*
X81870733Y-40892000D02*
X82213267Y-40892000D01*
X81870733Y-41912000D02*
X82213267Y-41912000D01*
X84664733Y-56894000D02*
X85007267Y-56894000D01*
X84664733Y-57914000D02*
X85007267Y-57914000D01*
X88982733Y-37082000D02*
X89325267Y-37082000D01*
X88982733Y-38102000D02*
X89325267Y-38102000D01*
X87336267Y-42410000D02*
X86993733Y-42410000D01*
X87336267Y-41390000D02*
X86993733Y-41390000D01*
X58458733Y-98990000D02*
X58801267Y-98990000D01*
X58458733Y-100010000D02*
X58801267Y-100010000D01*
X58418733Y-97180000D02*
X58761267Y-97180000D01*
X58418733Y-98200000D02*
X58761267Y-98200000D01*
X40591267Y-96140000D02*
X40248733Y-96140000D01*
X40591267Y-95120000D02*
X40248733Y-95120000D01*
X40631267Y-93860000D02*
X40288733Y-93860000D01*
X40631267Y-92840000D02*
X40288733Y-92840000D01*
X50611267Y-90010000D02*
X50268733Y-90010000D01*
X50611267Y-88990000D02*
X50268733Y-88990000D01*
X48078733Y-109420000D02*
X48421267Y-109420000D01*
X48078733Y-110440000D02*
X48421267Y-110440000D01*
X75650000Y-77630000D02*
X76600000Y-77630000D01*
X76600000Y-77630000D02*
X76600000Y-76870000D01*
X76410000Y-76235000D02*
X76600000Y-76235000D01*
X76600000Y-76235000D02*
X76600000Y-72365000D01*
X74687530Y-72365000D02*
X75342470Y-72365000D01*
X73430000Y-72365000D02*
X74072470Y-72365000D01*
X75957530Y-72365000D02*
X76600000Y-72365000D01*
X73430000Y-77565000D02*
X73430000Y-72365000D01*
X74687530Y-77565000D02*
X74890000Y-77565000D01*
X73430000Y-77565000D02*
X74072470Y-77565000D01*
X84070000Y-82030000D02*
X84070000Y-83030000D01*
X84070000Y-82030000D02*
X83070000Y-82030000D01*
X80870000Y-88780000D02*
X80870000Y-85805000D01*
X81720000Y-88780000D02*
X80870000Y-88780000D01*
X81720000Y-88980000D02*
X81720000Y-88780000D01*
X82520000Y-88980000D02*
X81720000Y-88980000D01*
X82520000Y-88780000D02*
X82520000Y-88980000D01*
X83270000Y-88780000D02*
X82520000Y-88780000D01*
X83270000Y-85805000D02*
X83270000Y-88780000D01*
X80870000Y-82830000D02*
X80870000Y-85805000D01*
X81720000Y-82830000D02*
X80870000Y-82830000D01*
X81720000Y-82630000D02*
X81720000Y-82830000D01*
X82520000Y-82630000D02*
X81720000Y-82630000D01*
X82520000Y-82830000D02*
X82520000Y-82630000D01*
X83270000Y-82830000D02*
X82520000Y-82830000D01*
X83270000Y-85805000D02*
X83270000Y-82830000D01*
X80360000Y-89290000D02*
X80360000Y-82320000D01*
X83780000Y-89290000D02*
X80360000Y-89290000D01*
X83780000Y-82320000D02*
X83780000Y-89290000D01*
X80360000Y-82320000D02*
X83780000Y-82320000D01*
X82830000Y-46106000D02*
X82830000Y-47106000D01*
X82830000Y-46106000D02*
X81830000Y-46106000D01*
X79630000Y-52856000D02*
X79630000Y-49881000D01*
X80480000Y-52856000D02*
X79630000Y-52856000D01*
X80480000Y-53056000D02*
X80480000Y-52856000D01*
X81280000Y-53056000D02*
X80480000Y-53056000D01*
X81280000Y-52856000D02*
X81280000Y-53056000D01*
X82030000Y-52856000D02*
X81280000Y-52856000D01*
X82030000Y-49881000D02*
X82030000Y-52856000D01*
X79630000Y-46906000D02*
X79630000Y-49881000D01*
X80480000Y-46906000D02*
X79630000Y-46906000D01*
X80480000Y-46706000D02*
X80480000Y-46906000D01*
X81280000Y-46706000D02*
X80480000Y-46706000D01*
X81280000Y-46906000D02*
X81280000Y-46706000D01*
X82030000Y-46906000D02*
X81280000Y-46906000D01*
X82030000Y-49881000D02*
X82030000Y-46906000D01*
X79120000Y-53366000D02*
X79120000Y-46396000D01*
X82540000Y-53366000D02*
X79120000Y-53366000D01*
X82540000Y-46396000D02*
X82540000Y-53366000D01*
X79120000Y-46396000D02*
X82540000Y-46396000D01*
X41820000Y-83160000D02*
X41820000Y-84160000D01*
X41820000Y-83160000D02*
X40820000Y-83160000D01*
X38620000Y-89910000D02*
X38620000Y-86935000D01*
X39470000Y-89910000D02*
X38620000Y-89910000D01*
X39470000Y-90110000D02*
X39470000Y-89910000D01*
X40270000Y-90110000D02*
X39470000Y-90110000D01*
X40270000Y-89910000D02*
X40270000Y-90110000D01*
X41020000Y-89910000D02*
X40270000Y-89910000D01*
X41020000Y-86935000D02*
X41020000Y-89910000D01*
X38620000Y-83960000D02*
X38620000Y-86935000D01*
X39470000Y-83960000D02*
X38620000Y-83960000D01*
X39470000Y-83760000D02*
X39470000Y-83960000D01*
X40270000Y-83760000D02*
X39470000Y-83760000D01*
X40270000Y-83960000D02*
X40270000Y-83760000D01*
X41020000Y-83960000D02*
X40270000Y-83960000D01*
X41020000Y-86935000D02*
X41020000Y-83960000D01*
X38110000Y-90420000D02*
X38110000Y-83450000D01*
X41530000Y-90420000D02*
X38110000Y-90420000D01*
X41530000Y-83450000D02*
X41530000Y-90420000D01*
X38110000Y-83450000D02*
X41530000Y-83450000D01*
X81024000Y-93897267D02*
X81024000Y-93554733D01*
X82044000Y-93897267D02*
X82044000Y-93554733D01*
X81362733Y-37082000D02*
X81705267Y-37082000D01*
X81362733Y-38102000D02*
X81705267Y-38102000D01*
X46726267Y-89950000D02*
X46383733Y-89950000D01*
X46726267Y-88930000D02*
X46383733Y-88930000D01*
X88309267Y-78996000D02*
X87966733Y-78996000D01*
X88309267Y-77976000D02*
X87966733Y-77976000D01*
X91611267Y-65788000D02*
X91268733Y-65788000D01*
X91611267Y-64768000D02*
X91268733Y-64768000D01*
X52261267Y-114210000D02*
X51918733Y-114210000D01*
X52261267Y-113190000D02*
X51918733Y-113190000D01*
X94062733Y-77468000D02*
X94405267Y-77468000D01*
X94062733Y-78488000D02*
X94405267Y-78488000D01*
X86329733Y-91692000D02*
X86672267Y-91692000D01*
X86329733Y-92712000D02*
X86672267Y-92712000D01*
X90341267Y-92712000D02*
X89998733Y-92712000D01*
X90341267Y-91692000D02*
X89998733Y-91692000D01*
X92284733Y-41400000D02*
X92627267Y-41400000D01*
X92284733Y-42420000D02*
X92627267Y-42420000D01*
X84551733Y-59688000D02*
X84894267Y-59688000D01*
X84551733Y-60708000D02*
X84894267Y-60708000D01*
X88817267Y-57914000D02*
X88474733Y-57914000D01*
X88817267Y-56894000D02*
X88474733Y-56894000D01*
X58398733Y-100920000D02*
X58741267Y-100920000D01*
X58398733Y-101940000D02*
X58741267Y-101940000D01*
X44698733Y-103670000D02*
X45041267Y-103670000D01*
X44698733Y-104690000D02*
X45041267Y-104690000D01*
X46801267Y-108060000D02*
X46458733Y-108060000D01*
X46801267Y-107040000D02*
X46458733Y-107040000D01*
D11*
X42116666Y-97972380D02*
X42450000Y-97496190D01*
X42688095Y-97972380D02*
X42688095Y-96972380D01*
X42307142Y-96972380D01*
X42211904Y-97020000D01*
X42164285Y-97067619D01*
X42116666Y-97162857D01*
X42116666Y-97305714D01*
X42164285Y-97400952D01*
X42211904Y-97448571D01*
X42307142Y-97496190D01*
X42688095Y-97496190D01*
X41259523Y-97305714D02*
X41259523Y-97972380D01*
X41497619Y-96924761D02*
X41735714Y-97639047D01*
X41116666Y-97639047D01*
X93630666Y-98719142D02*
X93678285Y-98766761D01*
X93821142Y-98814380D01*
X93916380Y-98814380D01*
X94059238Y-98766761D01*
X94154476Y-98671523D01*
X94202095Y-98576285D01*
X94249714Y-98385809D01*
X94249714Y-98242952D01*
X94202095Y-98052476D01*
X94154476Y-97957238D01*
X94059238Y-97862000D01*
X93916380Y-97814380D01*
X93821142Y-97814380D01*
X93678285Y-97862000D01*
X93630666Y-97909619D01*
X93202095Y-98814380D02*
X93202095Y-97814380D01*
X92821142Y-97814380D01*
X92725904Y-97862000D01*
X92678285Y-97909619D01*
X92630666Y-98004857D01*
X92630666Y-98147714D01*
X92678285Y-98242952D01*
X92725904Y-98290571D01*
X92821142Y-98338190D01*
X93202095Y-98338190D01*
X92297333Y-97814380D02*
X91678285Y-97814380D01*
X92011619Y-98195333D01*
X91868761Y-98195333D01*
X91773523Y-98242952D01*
X91725904Y-98290571D01*
X91678285Y-98385809D01*
X91678285Y-98623904D01*
X91725904Y-98719142D01*
X91773523Y-98766761D01*
X91868761Y-98814380D01*
X92154476Y-98814380D01*
X92249714Y-98766761D01*
X92297333Y-98719142D01*
X91852666Y-62905142D02*
X91900285Y-62952761D01*
X92043142Y-63000380D01*
X92138380Y-63000380D01*
X92281238Y-62952761D01*
X92376476Y-62857523D01*
X92424095Y-62762285D01*
X92471714Y-62571809D01*
X92471714Y-62428952D01*
X92424095Y-62238476D01*
X92376476Y-62143238D01*
X92281238Y-62048000D01*
X92138380Y-62000380D01*
X92043142Y-62000380D01*
X91900285Y-62048000D01*
X91852666Y-62095619D01*
X91424095Y-63000380D02*
X91424095Y-62000380D01*
X91043142Y-62000380D01*
X90947904Y-62048000D01*
X90900285Y-62095619D01*
X90852666Y-62190857D01*
X90852666Y-62333714D01*
X90900285Y-62428952D01*
X90947904Y-62476571D01*
X91043142Y-62524190D01*
X91424095Y-62524190D01*
X90471714Y-62095619D02*
X90424095Y-62048000D01*
X90328857Y-62000380D01*
X90090761Y-62000380D01*
X89995523Y-62048000D01*
X89947904Y-62095619D01*
X89900285Y-62190857D01*
X89900285Y-62286095D01*
X89947904Y-62428952D01*
X90519333Y-63000380D01*
X89900285Y-63000380D01*
X55596666Y-107557142D02*
X55644285Y-107604761D01*
X55787142Y-107652380D01*
X55882380Y-107652380D01*
X56025238Y-107604761D01*
X56120476Y-107509523D01*
X56168095Y-107414285D01*
X56215714Y-107223809D01*
X56215714Y-107080952D01*
X56168095Y-106890476D01*
X56120476Y-106795238D01*
X56025238Y-106700000D01*
X55882380Y-106652380D01*
X55787142Y-106652380D01*
X55644285Y-106700000D01*
X55596666Y-106747619D01*
X55168095Y-107652380D02*
X55168095Y-106652380D01*
X54787142Y-106652380D01*
X54691904Y-106700000D01*
X54644285Y-106747619D01*
X54596666Y-106842857D01*
X54596666Y-106985714D01*
X54644285Y-107080952D01*
X54691904Y-107128571D01*
X54787142Y-107176190D01*
X55168095Y-107176190D01*
X53644285Y-107652380D02*
X54215714Y-107652380D01*
X53930000Y-107652380D02*
X53930000Y-106652380D01*
X54025238Y-106795238D01*
X54120476Y-106890476D01*
X54215714Y-106938095D01*
X92709904Y-90950380D02*
X92709904Y-91759904D01*
X92662285Y-91855142D01*
X92614666Y-91902761D01*
X92519428Y-91950380D01*
X92328952Y-91950380D01*
X92233714Y-91902761D01*
X92186095Y-91855142D01*
X92138476Y-91759904D01*
X92138476Y-90950380D01*
X91233714Y-91283714D02*
X91233714Y-91950380D01*
X91471809Y-90902761D02*
X91709904Y-91617047D01*
X91090857Y-91617047D01*
X91421904Y-55652380D02*
X91421904Y-56461904D01*
X91374285Y-56557142D01*
X91326666Y-56604761D01*
X91231428Y-56652380D01*
X91040952Y-56652380D01*
X90945714Y-56604761D01*
X90898095Y-56557142D01*
X90850476Y-56461904D01*
X90850476Y-55652380D01*
X90469523Y-55652380D02*
X89850476Y-55652380D01*
X90183809Y-56033333D01*
X90040952Y-56033333D01*
X89945714Y-56080952D01*
X89898095Y-56128571D01*
X89850476Y-56223809D01*
X89850476Y-56461904D01*
X89898095Y-56557142D01*
X89945714Y-56604761D01*
X90040952Y-56652380D01*
X90326666Y-56652380D01*
X90421904Y-56604761D01*
X90469523Y-56557142D01*
X49951904Y-102017380D02*
X49951904Y-102826904D01*
X49904285Y-102922142D01*
X49856666Y-102969761D01*
X49761428Y-103017380D01*
X49570952Y-103017380D01*
X49475714Y-102969761D01*
X49428095Y-102922142D01*
X49380476Y-102826904D01*
X49380476Y-102017380D01*
X48380476Y-103017380D02*
X48951904Y-103017380D01*
X48666190Y-103017380D02*
X48666190Y-102017380D01*
X48761428Y-102160238D01*
X48856666Y-102255476D01*
X48951904Y-102303095D01*
X70063333Y-67294761D02*
X69920476Y-67342380D01*
X69682380Y-67342380D01*
X69587142Y-67294761D01*
X69539523Y-67247142D01*
X69491904Y-67151904D01*
X69491904Y-67056666D01*
X69539523Y-66961428D01*
X69587142Y-66913809D01*
X69682380Y-66866190D01*
X69872857Y-66818571D01*
X69968095Y-66770952D01*
X70015714Y-66723333D01*
X70063333Y-66628095D01*
X70063333Y-66532857D01*
X70015714Y-66437619D01*
X69968095Y-66390000D01*
X69872857Y-66342380D01*
X69634761Y-66342380D01*
X69491904Y-66390000D01*
X69158571Y-66342380D02*
X68920476Y-67342380D01*
X68730000Y-66628095D01*
X68539523Y-67342380D01*
X68301428Y-66342380D01*
X67396666Y-67342380D02*
X67968095Y-67342380D01*
X67682380Y-67342380D02*
X67682380Y-66342380D01*
X67777619Y-66485238D01*
X67872857Y-66580476D01*
X67968095Y-66628095D01*
X107800380Y-88257142D02*
X107324190Y-87923809D01*
X107800380Y-87685714D02*
X106800380Y-87685714D01*
X106800380Y-88066666D01*
X106848000Y-88161904D01*
X106895619Y-88209523D01*
X106990857Y-88257142D01*
X107133714Y-88257142D01*
X107228952Y-88209523D01*
X107276571Y-88161904D01*
X107324190Y-88066666D01*
X107324190Y-87685714D01*
X106895619Y-88638095D02*
X106848000Y-88685714D01*
X106800380Y-88780952D01*
X106800380Y-89019047D01*
X106848000Y-89114285D01*
X106895619Y-89161904D01*
X106990857Y-89209523D01*
X107086095Y-89209523D01*
X107228952Y-89161904D01*
X107800380Y-88590476D01*
X107800380Y-89209523D01*
X107800380Y-90161904D02*
X107800380Y-89590476D01*
X107800380Y-89876190D02*
X106800380Y-89876190D01*
X106943238Y-89780952D01*
X107038476Y-89685714D01*
X107086095Y-89590476D01*
X99194857Y-77000380D02*
X99528190Y-76524190D01*
X99766285Y-77000380D02*
X99766285Y-76000380D01*
X99385333Y-76000380D01*
X99290095Y-76048000D01*
X99242476Y-76095619D01*
X99194857Y-76190857D01*
X99194857Y-76333714D01*
X99242476Y-76428952D01*
X99290095Y-76476571D01*
X99385333Y-76524190D01*
X99766285Y-76524190D01*
X98813904Y-76095619D02*
X98766285Y-76048000D01*
X98671047Y-76000380D01*
X98432952Y-76000380D01*
X98337714Y-76048000D01*
X98290095Y-76095619D01*
X98242476Y-76190857D01*
X98242476Y-76286095D01*
X98290095Y-76428952D01*
X98861523Y-77000380D01*
X98242476Y-77000380D01*
X97623428Y-76000380D02*
X97528190Y-76000380D01*
X97432952Y-76048000D01*
X97385333Y-76095619D01*
X97337714Y-76190857D01*
X97290095Y-76381333D01*
X97290095Y-76619428D01*
X97337714Y-76809904D01*
X97385333Y-76905142D01*
X97432952Y-76952761D01*
X97528190Y-77000380D01*
X97623428Y-77000380D01*
X97718666Y-76952761D01*
X97766285Y-76905142D01*
X97813904Y-76809904D01*
X97861523Y-76619428D01*
X97861523Y-76381333D01*
X97813904Y-76190857D01*
X97766285Y-76095619D01*
X97718666Y-76048000D01*
X97623428Y-76000380D01*
X80652857Y-80114380D02*
X80986190Y-79638190D01*
X81224285Y-80114380D02*
X81224285Y-79114380D01*
X80843333Y-79114380D01*
X80748095Y-79162000D01*
X80700476Y-79209619D01*
X80652857Y-79304857D01*
X80652857Y-79447714D01*
X80700476Y-79542952D01*
X80748095Y-79590571D01*
X80843333Y-79638190D01*
X81224285Y-79638190D01*
X79700476Y-80114380D02*
X80271904Y-80114380D01*
X79986190Y-80114380D02*
X79986190Y-79114380D01*
X80081428Y-79257238D01*
X80176666Y-79352476D01*
X80271904Y-79400095D01*
X79224285Y-80114380D02*
X79033809Y-80114380D01*
X78938571Y-80066761D01*
X78890952Y-80019142D01*
X78795714Y-79876285D01*
X78748095Y-79685809D01*
X78748095Y-79304857D01*
X78795714Y-79209619D01*
X78843333Y-79162000D01*
X78938571Y-79114380D01*
X79129047Y-79114380D01*
X79224285Y-79162000D01*
X79271904Y-79209619D01*
X79319523Y-79304857D01*
X79319523Y-79542952D01*
X79271904Y-79638190D01*
X79224285Y-79685809D01*
X79129047Y-79733428D01*
X78938571Y-79733428D01*
X78843333Y-79685809D01*
X78795714Y-79638190D01*
X78748095Y-79542952D01*
X84462857Y-80368380D02*
X84796190Y-79892190D01*
X85034285Y-80368380D02*
X85034285Y-79368380D01*
X84653333Y-79368380D01*
X84558095Y-79416000D01*
X84510476Y-79463619D01*
X84462857Y-79558857D01*
X84462857Y-79701714D01*
X84510476Y-79796952D01*
X84558095Y-79844571D01*
X84653333Y-79892190D01*
X85034285Y-79892190D01*
X83510476Y-80368380D02*
X84081904Y-80368380D01*
X83796190Y-80368380D02*
X83796190Y-79368380D01*
X83891428Y-79511238D01*
X83986666Y-79606476D01*
X84081904Y-79654095D01*
X82939047Y-79796952D02*
X83034285Y-79749333D01*
X83081904Y-79701714D01*
X83129523Y-79606476D01*
X83129523Y-79558857D01*
X83081904Y-79463619D01*
X83034285Y-79416000D01*
X82939047Y-79368380D01*
X82748571Y-79368380D01*
X82653333Y-79416000D01*
X82605714Y-79463619D01*
X82558095Y-79558857D01*
X82558095Y-79606476D01*
X82605714Y-79701714D01*
X82653333Y-79749333D01*
X82748571Y-79796952D01*
X82939047Y-79796952D01*
X83034285Y-79844571D01*
X83081904Y-79892190D01*
X83129523Y-79987428D01*
X83129523Y-80177904D01*
X83081904Y-80273142D01*
X83034285Y-80320761D01*
X82939047Y-80368380D01*
X82748571Y-80368380D01*
X82653333Y-80320761D01*
X82605714Y-80273142D01*
X82558095Y-80177904D01*
X82558095Y-79987428D01*
X82605714Y-79892190D01*
X82653333Y-79844571D01*
X82748571Y-79796952D01*
X87256857Y-96370380D02*
X87590190Y-95894190D01*
X87828285Y-96370380D02*
X87828285Y-95370380D01*
X87447333Y-95370380D01*
X87352095Y-95418000D01*
X87304476Y-95465619D01*
X87256857Y-95560857D01*
X87256857Y-95703714D01*
X87304476Y-95798952D01*
X87352095Y-95846571D01*
X87447333Y-95894190D01*
X87828285Y-95894190D01*
X86304476Y-96370380D02*
X86875904Y-96370380D01*
X86590190Y-96370380D02*
X86590190Y-95370380D01*
X86685428Y-95513238D01*
X86780666Y-95608476D01*
X86875904Y-95656095D01*
X85971142Y-95370380D02*
X85304476Y-95370380D01*
X85733047Y-96370380D01*
X86748857Y-82146380D02*
X87082190Y-81670190D01*
X87320285Y-82146380D02*
X87320285Y-81146380D01*
X86939333Y-81146380D01*
X86844095Y-81194000D01*
X86796476Y-81241619D01*
X86748857Y-81336857D01*
X86748857Y-81479714D01*
X86796476Y-81574952D01*
X86844095Y-81622571D01*
X86939333Y-81670190D01*
X87320285Y-81670190D01*
X85796476Y-82146380D02*
X86367904Y-82146380D01*
X86082190Y-82146380D02*
X86082190Y-81146380D01*
X86177428Y-81289238D01*
X86272666Y-81384476D01*
X86367904Y-81432095D01*
X84939333Y-81146380D02*
X85129809Y-81146380D01*
X85225047Y-81194000D01*
X85272666Y-81241619D01*
X85367904Y-81384476D01*
X85415523Y-81574952D01*
X85415523Y-81955904D01*
X85367904Y-82051142D01*
X85320285Y-82098761D01*
X85225047Y-82146380D01*
X85034571Y-82146380D01*
X84939333Y-82098761D01*
X84891714Y-82051142D01*
X84844095Y-81955904D01*
X84844095Y-81717809D01*
X84891714Y-81622571D01*
X84939333Y-81574952D01*
X85034571Y-81527333D01*
X85225047Y-81527333D01*
X85320285Y-81574952D01*
X85367904Y-81622571D01*
X85415523Y-81717809D01*
X95130857Y-74460380D02*
X95464190Y-73984190D01*
X95702285Y-74460380D02*
X95702285Y-73460380D01*
X95321333Y-73460380D01*
X95226095Y-73508000D01*
X95178476Y-73555619D01*
X95130857Y-73650857D01*
X95130857Y-73793714D01*
X95178476Y-73888952D01*
X95226095Y-73936571D01*
X95321333Y-73984190D01*
X95702285Y-73984190D01*
X94178476Y-74460380D02*
X94749904Y-74460380D01*
X94464190Y-74460380D02*
X94464190Y-73460380D01*
X94559428Y-73603238D01*
X94654666Y-73698476D01*
X94749904Y-73746095D01*
X93273714Y-73460380D02*
X93749904Y-73460380D01*
X93797523Y-73936571D01*
X93749904Y-73888952D01*
X93654666Y-73841333D01*
X93416571Y-73841333D01*
X93321333Y-73888952D01*
X93273714Y-73936571D01*
X93226095Y-74031809D01*
X93226095Y-74269904D01*
X93273714Y-74365142D01*
X93321333Y-74412761D01*
X93416571Y-74460380D01*
X93654666Y-74460380D01*
X93749904Y-74412761D01*
X93797523Y-74365142D01*
X95892857Y-59032380D02*
X96226190Y-58556190D01*
X96464285Y-59032380D02*
X96464285Y-58032380D01*
X96083333Y-58032380D01*
X95988095Y-58080000D01*
X95940476Y-58127619D01*
X95892857Y-58222857D01*
X95892857Y-58365714D01*
X95940476Y-58460952D01*
X95988095Y-58508571D01*
X96083333Y-58556190D01*
X96464285Y-58556190D01*
X94940476Y-59032380D02*
X95511904Y-59032380D01*
X95226190Y-59032380D02*
X95226190Y-58032380D01*
X95321428Y-58175238D01*
X95416666Y-58270476D01*
X95511904Y-58318095D01*
X94083333Y-58365714D02*
X94083333Y-59032380D01*
X94321428Y-57984761D02*
X94559523Y-58699047D01*
X93940476Y-58699047D01*
X95130857Y-38138380D02*
X95464190Y-37662190D01*
X95702285Y-38138380D02*
X95702285Y-37138380D01*
X95321333Y-37138380D01*
X95226095Y-37186000D01*
X95178476Y-37233619D01*
X95130857Y-37328857D01*
X95130857Y-37471714D01*
X95178476Y-37566952D01*
X95226095Y-37614571D01*
X95321333Y-37662190D01*
X95702285Y-37662190D01*
X94178476Y-38138380D02*
X94749904Y-38138380D01*
X94464190Y-38138380D02*
X94464190Y-37138380D01*
X94559428Y-37281238D01*
X94654666Y-37376476D01*
X94749904Y-37424095D01*
X93845142Y-37138380D02*
X93226095Y-37138380D01*
X93559428Y-37519333D01*
X93416571Y-37519333D01*
X93321333Y-37566952D01*
X93273714Y-37614571D01*
X93226095Y-37709809D01*
X93226095Y-37947904D01*
X93273714Y-38043142D01*
X93321333Y-38090761D01*
X93416571Y-38138380D01*
X93702285Y-38138380D01*
X93797523Y-38090761D01*
X93845142Y-38043142D01*
X82684857Y-46078380D02*
X83018190Y-45602190D01*
X83256285Y-46078380D02*
X83256285Y-45078380D01*
X82875333Y-45078380D01*
X82780095Y-45126000D01*
X82732476Y-45173619D01*
X82684857Y-45268857D01*
X82684857Y-45411714D01*
X82732476Y-45506952D01*
X82780095Y-45554571D01*
X82875333Y-45602190D01*
X83256285Y-45602190D01*
X81732476Y-46078380D02*
X82303904Y-46078380D01*
X82018190Y-46078380D02*
X82018190Y-45078380D01*
X82113428Y-45221238D01*
X82208666Y-45316476D01*
X82303904Y-45364095D01*
X81351523Y-45173619D02*
X81303904Y-45126000D01*
X81208666Y-45078380D01*
X80970571Y-45078380D01*
X80875333Y-45126000D01*
X80827714Y-45173619D01*
X80780095Y-45268857D01*
X80780095Y-45364095D01*
X80827714Y-45506952D01*
X81399142Y-46078380D01*
X80780095Y-46078380D01*
X82684857Y-43284380D02*
X83018190Y-42808190D01*
X83256285Y-43284380D02*
X83256285Y-42284380D01*
X82875333Y-42284380D01*
X82780095Y-42332000D01*
X82732476Y-42379619D01*
X82684857Y-42474857D01*
X82684857Y-42617714D01*
X82732476Y-42712952D01*
X82780095Y-42760571D01*
X82875333Y-42808190D01*
X83256285Y-42808190D01*
X81732476Y-43284380D02*
X82303904Y-43284380D01*
X82018190Y-43284380D02*
X82018190Y-42284380D01*
X82113428Y-42427238D01*
X82208666Y-42522476D01*
X82303904Y-42570095D01*
X80780095Y-43284380D02*
X81351523Y-43284380D01*
X81065809Y-43284380D02*
X81065809Y-42284380D01*
X81161047Y-42427238D01*
X81256285Y-42522476D01*
X81351523Y-42570095D01*
X85478857Y-59286380D02*
X85812190Y-58810190D01*
X86050285Y-59286380D02*
X86050285Y-58286380D01*
X85669333Y-58286380D01*
X85574095Y-58334000D01*
X85526476Y-58381619D01*
X85478857Y-58476857D01*
X85478857Y-58619714D01*
X85526476Y-58714952D01*
X85574095Y-58762571D01*
X85669333Y-58810190D01*
X86050285Y-58810190D01*
X84526476Y-59286380D02*
X85097904Y-59286380D01*
X84812190Y-59286380D02*
X84812190Y-58286380D01*
X84907428Y-58429238D01*
X85002666Y-58524476D01*
X85097904Y-58572095D01*
X83907428Y-58286380D02*
X83812190Y-58286380D01*
X83716952Y-58334000D01*
X83669333Y-58381619D01*
X83621714Y-58476857D01*
X83574095Y-58667333D01*
X83574095Y-58905428D01*
X83621714Y-59095904D01*
X83669333Y-59191142D01*
X83716952Y-59238761D01*
X83812190Y-59286380D01*
X83907428Y-59286380D01*
X84002666Y-59238761D01*
X84050285Y-59191142D01*
X84097904Y-59095904D01*
X84145523Y-58905428D01*
X84145523Y-58667333D01*
X84097904Y-58476857D01*
X84050285Y-58381619D01*
X84002666Y-58334000D01*
X83907428Y-58286380D01*
X89320666Y-39474380D02*
X89654000Y-38998190D01*
X89892095Y-39474380D02*
X89892095Y-38474380D01*
X89511142Y-38474380D01*
X89415904Y-38522000D01*
X89368285Y-38569619D01*
X89320666Y-38664857D01*
X89320666Y-38807714D01*
X89368285Y-38902952D01*
X89415904Y-38950571D01*
X89511142Y-38998190D01*
X89892095Y-38998190D01*
X88844476Y-39474380D02*
X88654000Y-39474380D01*
X88558761Y-39426761D01*
X88511142Y-39379142D01*
X88415904Y-39236285D01*
X88368285Y-39045809D01*
X88368285Y-38664857D01*
X88415904Y-38569619D01*
X88463523Y-38522000D01*
X88558761Y-38474380D01*
X88749238Y-38474380D01*
X88844476Y-38522000D01*
X88892095Y-38569619D01*
X88939714Y-38664857D01*
X88939714Y-38902952D01*
X88892095Y-38998190D01*
X88844476Y-39045809D01*
X88749238Y-39093428D01*
X88558761Y-39093428D01*
X88463523Y-39045809D01*
X88415904Y-38998190D01*
X88368285Y-38902952D01*
X87331666Y-40922380D02*
X87665000Y-40446190D01*
X87903095Y-40922380D02*
X87903095Y-39922380D01*
X87522142Y-39922380D01*
X87426904Y-39970000D01*
X87379285Y-40017619D01*
X87331666Y-40112857D01*
X87331666Y-40255714D01*
X87379285Y-40350952D01*
X87426904Y-40398571D01*
X87522142Y-40446190D01*
X87903095Y-40446190D01*
X86760238Y-40350952D02*
X86855476Y-40303333D01*
X86903095Y-40255714D01*
X86950714Y-40160476D01*
X86950714Y-40112857D01*
X86903095Y-40017619D01*
X86855476Y-39970000D01*
X86760238Y-39922380D01*
X86569761Y-39922380D01*
X86474523Y-39970000D01*
X86426904Y-40017619D01*
X86379285Y-40112857D01*
X86379285Y-40160476D01*
X86426904Y-40255714D01*
X86474523Y-40303333D01*
X86569761Y-40350952D01*
X86760238Y-40350952D01*
X86855476Y-40398571D01*
X86903095Y-40446190D01*
X86950714Y-40541428D01*
X86950714Y-40731904D01*
X86903095Y-40827142D01*
X86855476Y-40874761D01*
X86760238Y-40922380D01*
X86569761Y-40922380D01*
X86474523Y-40874761D01*
X86426904Y-40827142D01*
X86379285Y-40731904D01*
X86379285Y-40541428D01*
X86426904Y-40446190D01*
X86474523Y-40398571D01*
X86569761Y-40350952D01*
X58796666Y-101382380D02*
X59130000Y-100906190D01*
X59368095Y-101382380D02*
X59368095Y-100382380D01*
X58987142Y-100382380D01*
X58891904Y-100430000D01*
X58844285Y-100477619D01*
X58796666Y-100572857D01*
X58796666Y-100715714D01*
X58844285Y-100810952D01*
X58891904Y-100858571D01*
X58987142Y-100906190D01*
X59368095Y-100906190D01*
X58463333Y-100382380D02*
X57796666Y-100382380D01*
X58225238Y-101382380D01*
X58756666Y-99572380D02*
X59090000Y-99096190D01*
X59328095Y-99572380D02*
X59328095Y-98572380D01*
X58947142Y-98572380D01*
X58851904Y-98620000D01*
X58804285Y-98667619D01*
X58756666Y-98762857D01*
X58756666Y-98905714D01*
X58804285Y-99000952D01*
X58851904Y-99048571D01*
X58947142Y-99096190D01*
X59328095Y-99096190D01*
X57899523Y-98572380D02*
X58090000Y-98572380D01*
X58185238Y-98620000D01*
X58232857Y-98667619D01*
X58328095Y-98810476D01*
X58375714Y-99000952D01*
X58375714Y-99381904D01*
X58328095Y-99477142D01*
X58280476Y-99524761D01*
X58185238Y-99572380D01*
X57994761Y-99572380D01*
X57899523Y-99524761D01*
X57851904Y-99477142D01*
X57804285Y-99381904D01*
X57804285Y-99143809D01*
X57851904Y-99048571D01*
X57899523Y-99000952D01*
X57994761Y-98953333D01*
X58185238Y-98953333D01*
X58280476Y-99000952D01*
X58328095Y-99048571D01*
X58375714Y-99143809D01*
X40586666Y-94652380D02*
X40920000Y-94176190D01*
X41158095Y-94652380D02*
X41158095Y-93652380D01*
X40777142Y-93652380D01*
X40681904Y-93700000D01*
X40634285Y-93747619D01*
X40586666Y-93842857D01*
X40586666Y-93985714D01*
X40634285Y-94080952D01*
X40681904Y-94128571D01*
X40777142Y-94176190D01*
X41158095Y-94176190D01*
X39681904Y-93652380D02*
X40158095Y-93652380D01*
X40205714Y-94128571D01*
X40158095Y-94080952D01*
X40062857Y-94033333D01*
X39824761Y-94033333D01*
X39729523Y-94080952D01*
X39681904Y-94128571D01*
X39634285Y-94223809D01*
X39634285Y-94461904D01*
X39681904Y-94557142D01*
X39729523Y-94604761D01*
X39824761Y-94652380D01*
X40062857Y-94652380D01*
X40158095Y-94604761D01*
X40205714Y-94557142D01*
X40626666Y-92372380D02*
X40960000Y-91896190D01*
X41198095Y-92372380D02*
X41198095Y-91372380D01*
X40817142Y-91372380D01*
X40721904Y-91420000D01*
X40674285Y-91467619D01*
X40626666Y-91562857D01*
X40626666Y-91705714D01*
X40674285Y-91800952D01*
X40721904Y-91848571D01*
X40817142Y-91896190D01*
X41198095Y-91896190D01*
X40293333Y-91372380D02*
X39674285Y-91372380D01*
X40007619Y-91753333D01*
X39864761Y-91753333D01*
X39769523Y-91800952D01*
X39721904Y-91848571D01*
X39674285Y-91943809D01*
X39674285Y-92181904D01*
X39721904Y-92277142D01*
X39769523Y-92324761D01*
X39864761Y-92372380D01*
X40150476Y-92372380D01*
X40245714Y-92324761D01*
X40293333Y-92277142D01*
X50606666Y-88522380D02*
X50940000Y-88046190D01*
X51178095Y-88522380D02*
X51178095Y-87522380D01*
X50797142Y-87522380D01*
X50701904Y-87570000D01*
X50654285Y-87617619D01*
X50606666Y-87712857D01*
X50606666Y-87855714D01*
X50654285Y-87950952D01*
X50701904Y-87998571D01*
X50797142Y-88046190D01*
X51178095Y-88046190D01*
X50225714Y-87617619D02*
X50178095Y-87570000D01*
X50082857Y-87522380D01*
X49844761Y-87522380D01*
X49749523Y-87570000D01*
X49701904Y-87617619D01*
X49654285Y-87712857D01*
X49654285Y-87808095D01*
X49701904Y-87950952D01*
X50273333Y-88522380D01*
X49654285Y-88522380D01*
X48416666Y-111812380D02*
X48750000Y-111336190D01*
X48988095Y-111812380D02*
X48988095Y-110812380D01*
X48607142Y-110812380D01*
X48511904Y-110860000D01*
X48464285Y-110907619D01*
X48416666Y-111002857D01*
X48416666Y-111145714D01*
X48464285Y-111240952D01*
X48511904Y-111288571D01*
X48607142Y-111336190D01*
X48988095Y-111336190D01*
X47464285Y-111812380D02*
X48035714Y-111812380D01*
X47750000Y-111812380D02*
X47750000Y-110812380D01*
X47845238Y-110955238D01*
X47940476Y-111050476D01*
X48035714Y-111098095D01*
X75348333Y-78457380D02*
X75348333Y-79171666D01*
X75395952Y-79314523D01*
X75491190Y-79409761D01*
X75634047Y-79457380D01*
X75729285Y-79457380D01*
X74729285Y-78885952D02*
X74824523Y-78838333D01*
X74872142Y-78790714D01*
X74919761Y-78695476D01*
X74919761Y-78647857D01*
X74872142Y-78552619D01*
X74824523Y-78505000D01*
X74729285Y-78457380D01*
X74538809Y-78457380D01*
X74443571Y-78505000D01*
X74395952Y-78552619D01*
X74348333Y-78647857D01*
X74348333Y-78695476D01*
X74395952Y-78790714D01*
X74443571Y-78838333D01*
X74538809Y-78885952D01*
X74729285Y-78885952D01*
X74824523Y-78933571D01*
X74872142Y-78981190D01*
X74919761Y-79076428D01*
X74919761Y-79266904D01*
X74872142Y-79362142D01*
X74824523Y-79409761D01*
X74729285Y-79457380D01*
X74538809Y-79457380D01*
X74443571Y-79409761D01*
X74395952Y-79362142D01*
X74348333Y-79266904D01*
X74348333Y-79076428D01*
X74395952Y-78981190D01*
X74443571Y-78933571D01*
X74538809Y-78885952D01*
X78722380Y-85476666D02*
X79436666Y-85476666D01*
X79579523Y-85429047D01*
X79674761Y-85333809D01*
X79722380Y-85190952D01*
X79722380Y-85095714D01*
X79055714Y-86381428D02*
X79722380Y-86381428D01*
X78674761Y-86143333D02*
X79389047Y-85905238D01*
X79389047Y-86524285D01*
X77482380Y-49552666D02*
X78196666Y-49552666D01*
X78339523Y-49505047D01*
X78434761Y-49409809D01*
X78482380Y-49266952D01*
X78482380Y-49171714D01*
X77482380Y-49933619D02*
X77482380Y-50552666D01*
X77863333Y-50219333D01*
X77863333Y-50362190D01*
X77910952Y-50457428D01*
X77958571Y-50505047D01*
X78053809Y-50552666D01*
X78291904Y-50552666D01*
X78387142Y-50505047D01*
X78434761Y-50457428D01*
X78482380Y-50362190D01*
X78482380Y-50076476D01*
X78434761Y-49981238D01*
X78387142Y-49933619D01*
X36472380Y-86606666D02*
X37186666Y-86606666D01*
X37329523Y-86559047D01*
X37424761Y-86463809D01*
X37472380Y-86320952D01*
X37472380Y-86225714D01*
X36567619Y-87035238D02*
X36520000Y-87082857D01*
X36472380Y-87178095D01*
X36472380Y-87416190D01*
X36520000Y-87511428D01*
X36567619Y-87559047D01*
X36662857Y-87606666D01*
X36758095Y-87606666D01*
X36900952Y-87559047D01*
X37472380Y-86987619D01*
X37472380Y-87606666D01*
X83321142Y-91440285D02*
X83368761Y-91392666D01*
X83416380Y-91249809D01*
X83416380Y-91154571D01*
X83368761Y-91011714D01*
X83273523Y-90916476D01*
X83178285Y-90868857D01*
X82987809Y-90821238D01*
X82844952Y-90821238D01*
X82654476Y-90868857D01*
X82559238Y-90916476D01*
X82464000Y-91011714D01*
X82416380Y-91154571D01*
X82416380Y-91249809D01*
X82464000Y-91392666D01*
X82511619Y-91440285D01*
X83035428Y-91868857D02*
X83035428Y-92630761D01*
X82416380Y-92964095D02*
X83416380Y-93297428D01*
X82416380Y-93630761D01*
X83416380Y-93964095D02*
X82416380Y-93964095D01*
X83130666Y-94297428D01*
X82416380Y-94630761D01*
X83416380Y-94630761D01*
X82892571Y-95440285D02*
X82940190Y-95583142D01*
X82987809Y-95630761D01*
X83083047Y-95678380D01*
X83225904Y-95678380D01*
X83321142Y-95630761D01*
X83368761Y-95583142D01*
X83416380Y-95487904D01*
X83416380Y-95106952D01*
X82416380Y-95106952D01*
X82416380Y-95440285D01*
X82464000Y-95535523D01*
X82511619Y-95583142D01*
X82606857Y-95630761D01*
X82702095Y-95630761D01*
X82797333Y-95583142D01*
X82844952Y-95535523D01*
X82892571Y-95440285D01*
X82892571Y-95106952D01*
X82416380Y-96011714D02*
X82416380Y-96630761D01*
X82797333Y-96297428D01*
X82797333Y-96440285D01*
X82844952Y-96535523D01*
X82892571Y-96583142D01*
X82987809Y-96630761D01*
X83225904Y-96630761D01*
X83321142Y-96583142D01*
X83368761Y-96535523D01*
X83416380Y-96440285D01*
X83416380Y-96154571D01*
X83368761Y-96059333D01*
X83321142Y-96011714D01*
X83819714Y-39379142D02*
X83867333Y-39426761D01*
X84010190Y-39474380D01*
X84105428Y-39474380D01*
X84248285Y-39426761D01*
X84343523Y-39331523D01*
X84391142Y-39236285D01*
X84438761Y-39045809D01*
X84438761Y-38902952D01*
X84391142Y-38712476D01*
X84343523Y-38617238D01*
X84248285Y-38522000D01*
X84105428Y-38474380D01*
X84010190Y-38474380D01*
X83867333Y-38522000D01*
X83819714Y-38569619D01*
X83391142Y-39093428D02*
X82629238Y-39093428D01*
X82295904Y-38474380D02*
X81962571Y-39474380D01*
X81629238Y-38474380D01*
X81295904Y-39474380D02*
X81295904Y-38474380D01*
X80962571Y-39188666D01*
X80629238Y-38474380D01*
X80629238Y-39474380D01*
X79819714Y-38950571D02*
X79676857Y-38998190D01*
X79629238Y-39045809D01*
X79581619Y-39141047D01*
X79581619Y-39283904D01*
X79629238Y-39379142D01*
X79676857Y-39426761D01*
X79772095Y-39474380D01*
X80153047Y-39474380D01*
X80153047Y-38474380D01*
X79819714Y-38474380D01*
X79724476Y-38522000D01*
X79676857Y-38569619D01*
X79629238Y-38664857D01*
X79629238Y-38760095D01*
X79676857Y-38855333D01*
X79724476Y-38902952D01*
X79819714Y-38950571D01*
X80153047Y-38950571D01*
X79200666Y-38569619D02*
X79153047Y-38522000D01*
X79057809Y-38474380D01*
X78819714Y-38474380D01*
X78724476Y-38522000D01*
X78676857Y-38569619D01*
X78629238Y-38664857D01*
X78629238Y-38760095D01*
X78676857Y-38902952D01*
X79248285Y-39474380D01*
X78629238Y-39474380D01*
X48840714Y-88367142D02*
X48888333Y-88414761D01*
X49031190Y-88462380D01*
X49126428Y-88462380D01*
X49269285Y-88414761D01*
X49364523Y-88319523D01*
X49412142Y-88224285D01*
X49459761Y-88033809D01*
X49459761Y-87890952D01*
X49412142Y-87700476D01*
X49364523Y-87605238D01*
X49269285Y-87510000D01*
X49126428Y-87462380D01*
X49031190Y-87462380D01*
X48888333Y-87510000D01*
X48840714Y-87557619D01*
X48412142Y-88081428D02*
X47650238Y-88081428D01*
X47316904Y-87462380D02*
X46983571Y-88462380D01*
X46650238Y-87462380D01*
X46316904Y-88462380D02*
X46316904Y-87462380D01*
X45983571Y-88176666D01*
X45650238Y-87462380D01*
X45650238Y-88462380D01*
X44840714Y-87938571D02*
X44697857Y-87986190D01*
X44650238Y-88033809D01*
X44602619Y-88129047D01*
X44602619Y-88271904D01*
X44650238Y-88367142D01*
X44697857Y-88414761D01*
X44793095Y-88462380D01*
X45174047Y-88462380D01*
X45174047Y-87462380D01*
X44840714Y-87462380D01*
X44745476Y-87510000D01*
X44697857Y-87557619D01*
X44650238Y-87652857D01*
X44650238Y-87748095D01*
X44697857Y-87843333D01*
X44745476Y-87890952D01*
X44840714Y-87938571D01*
X45174047Y-87938571D01*
X43650238Y-88462380D02*
X44221666Y-88462380D01*
X43935952Y-88462380D02*
X43935952Y-87462380D01*
X44031190Y-87605238D01*
X44126428Y-87700476D01*
X44221666Y-87748095D01*
X90352285Y-77413142D02*
X90399904Y-77460761D01*
X90542761Y-77508380D01*
X90638000Y-77508380D01*
X90780857Y-77460761D01*
X90876095Y-77365523D01*
X90923714Y-77270285D01*
X90971333Y-77079809D01*
X90971333Y-76936952D01*
X90923714Y-76746476D01*
X90876095Y-76651238D01*
X90780857Y-76556000D01*
X90638000Y-76508380D01*
X90542761Y-76508380D01*
X90399904Y-76556000D01*
X90352285Y-76603619D01*
X89923714Y-77127428D02*
X89161809Y-77127428D01*
X88828476Y-76508380D02*
X88495142Y-77508380D01*
X88161809Y-76508380D01*
X87828476Y-77508380D02*
X87828476Y-76508380D01*
X87495142Y-77222666D01*
X87161809Y-76508380D01*
X87161809Y-77508380D01*
X86733238Y-77222666D02*
X86257047Y-77222666D01*
X86828476Y-77508380D02*
X86495142Y-76508380D01*
X86161809Y-77508380D01*
X85923714Y-76508380D02*
X85304666Y-76508380D01*
X85638000Y-76889333D01*
X85495142Y-76889333D01*
X85399904Y-76936952D01*
X85352285Y-76984571D01*
X85304666Y-77079809D01*
X85304666Y-77317904D01*
X85352285Y-77413142D01*
X85399904Y-77460761D01*
X85495142Y-77508380D01*
X85780857Y-77508380D01*
X85876095Y-77460761D01*
X85923714Y-77413142D01*
X93654285Y-64205142D02*
X93701904Y-64252761D01*
X93844761Y-64300380D01*
X93940000Y-64300380D01*
X94082857Y-64252761D01*
X94178095Y-64157523D01*
X94225714Y-64062285D01*
X94273333Y-63871809D01*
X94273333Y-63728952D01*
X94225714Y-63538476D01*
X94178095Y-63443238D01*
X94082857Y-63348000D01*
X93940000Y-63300380D01*
X93844761Y-63300380D01*
X93701904Y-63348000D01*
X93654285Y-63395619D01*
X93225714Y-63919428D02*
X92463809Y-63919428D01*
X92130476Y-63300380D02*
X91797142Y-64300380D01*
X91463809Y-63300380D01*
X91130476Y-64300380D02*
X91130476Y-63300380D01*
X90797142Y-64014666D01*
X90463809Y-63300380D01*
X90463809Y-64300380D01*
X90035238Y-64014666D02*
X89559047Y-64014666D01*
X90130476Y-64300380D02*
X89797142Y-63300380D01*
X89463809Y-64300380D01*
X89178095Y-63395619D02*
X89130476Y-63348000D01*
X89035238Y-63300380D01*
X88797142Y-63300380D01*
X88701904Y-63348000D01*
X88654285Y-63395619D01*
X88606666Y-63490857D01*
X88606666Y-63586095D01*
X88654285Y-63728952D01*
X89225714Y-64300380D01*
X88606666Y-64300380D01*
X54304285Y-112627142D02*
X54351904Y-112674761D01*
X54494761Y-112722380D01*
X54590000Y-112722380D01*
X54732857Y-112674761D01*
X54828095Y-112579523D01*
X54875714Y-112484285D01*
X54923333Y-112293809D01*
X54923333Y-112150952D01*
X54875714Y-111960476D01*
X54828095Y-111865238D01*
X54732857Y-111770000D01*
X54590000Y-111722380D01*
X54494761Y-111722380D01*
X54351904Y-111770000D01*
X54304285Y-111817619D01*
X53875714Y-112341428D02*
X53113809Y-112341428D01*
X52780476Y-111722380D02*
X52447142Y-112722380D01*
X52113809Y-111722380D01*
X51780476Y-112722380D02*
X51780476Y-111722380D01*
X51447142Y-112436666D01*
X51113809Y-111722380D01*
X51113809Y-112722380D01*
X50685238Y-112436666D02*
X50209047Y-112436666D01*
X50780476Y-112722380D02*
X50447142Y-111722380D01*
X50113809Y-112722380D01*
X49256666Y-112722380D02*
X49828095Y-112722380D01*
X49542380Y-112722380D02*
X49542380Y-111722380D01*
X49637619Y-111865238D01*
X49732857Y-111960476D01*
X49828095Y-112008095D01*
X94400666Y-79765142D02*
X94448285Y-79812761D01*
X94591142Y-79860380D01*
X94686380Y-79860380D01*
X94829238Y-79812761D01*
X94924476Y-79717523D01*
X94972095Y-79622285D01*
X95019714Y-79431809D01*
X95019714Y-79288952D01*
X94972095Y-79098476D01*
X94924476Y-79003238D01*
X94829238Y-78908000D01*
X94686380Y-78860380D01*
X94591142Y-78860380D01*
X94448285Y-78908000D01*
X94400666Y-78955619D01*
X93924476Y-79860380D02*
X93734000Y-79860380D01*
X93638761Y-79812761D01*
X93591142Y-79765142D01*
X93495904Y-79622285D01*
X93448285Y-79431809D01*
X93448285Y-79050857D01*
X93495904Y-78955619D01*
X93543523Y-78908000D01*
X93638761Y-78860380D01*
X93829238Y-78860380D01*
X93924476Y-78908000D01*
X93972095Y-78955619D01*
X94019714Y-79050857D01*
X94019714Y-79288952D01*
X93972095Y-79384190D01*
X93924476Y-79431809D01*
X93829238Y-79479428D01*
X93638761Y-79479428D01*
X93543523Y-79431809D01*
X93495904Y-79384190D01*
X93448285Y-79288952D01*
X86667666Y-93989142D02*
X86715285Y-94036761D01*
X86858142Y-94084380D01*
X86953380Y-94084380D01*
X87096238Y-94036761D01*
X87191476Y-93941523D01*
X87239095Y-93846285D01*
X87286714Y-93655809D01*
X87286714Y-93512952D01*
X87239095Y-93322476D01*
X87191476Y-93227238D01*
X87096238Y-93132000D01*
X86953380Y-93084380D01*
X86858142Y-93084380D01*
X86715285Y-93132000D01*
X86667666Y-93179619D01*
X86096238Y-93512952D02*
X86191476Y-93465333D01*
X86239095Y-93417714D01*
X86286714Y-93322476D01*
X86286714Y-93274857D01*
X86239095Y-93179619D01*
X86191476Y-93132000D01*
X86096238Y-93084380D01*
X85905761Y-93084380D01*
X85810523Y-93132000D01*
X85762904Y-93179619D01*
X85715285Y-93274857D01*
X85715285Y-93322476D01*
X85762904Y-93417714D01*
X85810523Y-93465333D01*
X85905761Y-93512952D01*
X86096238Y-93512952D01*
X86191476Y-93560571D01*
X86239095Y-93608190D01*
X86286714Y-93703428D01*
X86286714Y-93893904D01*
X86239095Y-93989142D01*
X86191476Y-94036761D01*
X86096238Y-94084380D01*
X85905761Y-94084380D01*
X85810523Y-94036761D01*
X85762904Y-93989142D01*
X85715285Y-93893904D01*
X85715285Y-93703428D01*
X85762904Y-93608190D01*
X85810523Y-93560571D01*
X85905761Y-93512952D01*
X90336666Y-91129142D02*
X90384285Y-91176761D01*
X90527142Y-91224380D01*
X90622380Y-91224380D01*
X90765238Y-91176761D01*
X90860476Y-91081523D01*
X90908095Y-90986285D01*
X90955714Y-90795809D01*
X90955714Y-90652952D01*
X90908095Y-90462476D01*
X90860476Y-90367238D01*
X90765238Y-90272000D01*
X90622380Y-90224380D01*
X90527142Y-90224380D01*
X90384285Y-90272000D01*
X90336666Y-90319619D01*
X90003333Y-90224380D02*
X89336666Y-90224380D01*
X89765238Y-91224380D01*
X92622666Y-43697142D02*
X92670285Y-43744761D01*
X92813142Y-43792380D01*
X92908380Y-43792380D01*
X93051238Y-43744761D01*
X93146476Y-43649523D01*
X93194095Y-43554285D01*
X93241714Y-43363809D01*
X93241714Y-43220952D01*
X93194095Y-43030476D01*
X93146476Y-42935238D01*
X93051238Y-42840000D01*
X92908380Y-42792380D01*
X92813142Y-42792380D01*
X92670285Y-42840000D01*
X92622666Y-42887619D01*
X91765523Y-42792380D02*
X91956000Y-42792380D01*
X92051238Y-42840000D01*
X92098857Y-42887619D01*
X92194095Y-43030476D01*
X92241714Y-43220952D01*
X92241714Y-43601904D01*
X92194095Y-43697142D01*
X92146476Y-43744761D01*
X92051238Y-43792380D01*
X91860761Y-43792380D01*
X91765523Y-43744761D01*
X91717904Y-43697142D01*
X91670285Y-43601904D01*
X91670285Y-43363809D01*
X91717904Y-43268571D01*
X91765523Y-43220952D01*
X91860761Y-43173333D01*
X92051238Y-43173333D01*
X92146476Y-43220952D01*
X92194095Y-43268571D01*
X92241714Y-43363809D01*
X84889666Y-61985142D02*
X84937285Y-62032761D01*
X85080142Y-62080380D01*
X85175380Y-62080380D01*
X85318238Y-62032761D01*
X85413476Y-61937523D01*
X85461095Y-61842285D01*
X85508714Y-61651809D01*
X85508714Y-61508952D01*
X85461095Y-61318476D01*
X85413476Y-61223238D01*
X85318238Y-61128000D01*
X85175380Y-61080380D01*
X85080142Y-61080380D01*
X84937285Y-61128000D01*
X84889666Y-61175619D01*
X83984904Y-61080380D02*
X84461095Y-61080380D01*
X84508714Y-61556571D01*
X84461095Y-61508952D01*
X84365857Y-61461333D01*
X84127761Y-61461333D01*
X84032523Y-61508952D01*
X83984904Y-61556571D01*
X83937285Y-61651809D01*
X83937285Y-61889904D01*
X83984904Y-61985142D01*
X84032523Y-62032761D01*
X84127761Y-62080380D01*
X84365857Y-62080380D01*
X84461095Y-62032761D01*
X84508714Y-61985142D01*
X88812666Y-56331142D02*
X88860285Y-56378761D01*
X89003142Y-56426380D01*
X89098380Y-56426380D01*
X89241238Y-56378761D01*
X89336476Y-56283523D01*
X89384095Y-56188285D01*
X89431714Y-55997809D01*
X89431714Y-55854952D01*
X89384095Y-55664476D01*
X89336476Y-55569238D01*
X89241238Y-55474000D01*
X89098380Y-55426380D01*
X89003142Y-55426380D01*
X88860285Y-55474000D01*
X88812666Y-55521619D01*
X87955523Y-55759714D02*
X87955523Y-56426380D01*
X88193619Y-55378761D02*
X88431714Y-56093047D01*
X87812666Y-56093047D01*
X58736666Y-103217142D02*
X58784285Y-103264761D01*
X58927142Y-103312380D01*
X59022380Y-103312380D01*
X59165238Y-103264761D01*
X59260476Y-103169523D01*
X59308095Y-103074285D01*
X59355714Y-102883809D01*
X59355714Y-102740952D01*
X59308095Y-102550476D01*
X59260476Y-102455238D01*
X59165238Y-102360000D01*
X59022380Y-102312380D01*
X58927142Y-102312380D01*
X58784285Y-102360000D01*
X58736666Y-102407619D01*
X58403333Y-102312380D02*
X57784285Y-102312380D01*
X58117619Y-102693333D01*
X57974761Y-102693333D01*
X57879523Y-102740952D01*
X57831904Y-102788571D01*
X57784285Y-102883809D01*
X57784285Y-103121904D01*
X57831904Y-103217142D01*
X57879523Y-103264761D01*
X57974761Y-103312380D01*
X58260476Y-103312380D01*
X58355714Y-103264761D01*
X58403333Y-103217142D01*
X45036666Y-105967142D02*
X45084285Y-106014761D01*
X45227142Y-106062380D01*
X45322380Y-106062380D01*
X45465238Y-106014761D01*
X45560476Y-105919523D01*
X45608095Y-105824285D01*
X45655714Y-105633809D01*
X45655714Y-105490952D01*
X45608095Y-105300476D01*
X45560476Y-105205238D01*
X45465238Y-105110000D01*
X45322380Y-105062380D01*
X45227142Y-105062380D01*
X45084285Y-105110000D01*
X45036666Y-105157619D01*
X44655714Y-105157619D02*
X44608095Y-105110000D01*
X44512857Y-105062380D01*
X44274761Y-105062380D01*
X44179523Y-105110000D01*
X44131904Y-105157619D01*
X44084285Y-105252857D01*
X44084285Y-105348095D01*
X44131904Y-105490952D01*
X44703333Y-106062380D01*
X44084285Y-106062380D01*
X46796666Y-106477142D02*
X46844285Y-106524761D01*
X46987142Y-106572380D01*
X47082380Y-106572380D01*
X47225238Y-106524761D01*
X47320476Y-106429523D01*
X47368095Y-106334285D01*
X47415714Y-106143809D01*
X47415714Y-106000952D01*
X47368095Y-105810476D01*
X47320476Y-105715238D01*
X47225238Y-105620000D01*
X47082380Y-105572380D01*
X46987142Y-105572380D01*
X46844285Y-105620000D01*
X46796666Y-105667619D01*
X45844285Y-106572380D02*
X46415714Y-106572380D01*
X46130000Y-106572380D02*
X46130000Y-105572380D01*
X46225238Y-105715238D01*
X46320476Y-105810476D01*
X46415714Y-105858095D01*
M02*
