M48
; DRILL file {KiCad (5.1.5)-3} date 08/03/2020 16:26:51
; FORMAT={-:-/ absolute / metric / decimal}
; #@! TF.CreationDate,2020-03-08T16:26:51+08:00
; #@! TF.GenerationSoftware,Kicad,Pcbnew,(5.1.5)-3
; #@! TF.FileFunction,Plated,1,2,PTH
FMAT,2
METRIC
T1C0.300
T2C0.350
T3C0.440
T4C0.500
T5C0.700
T6C0.711
T7C0.800
T8C1.000
T9C1.900
%
G90
G05
T1
X36.068Y-67.31
X38.11Y-79.77
X42.06Y-73.12
X42.418Y-102.362
X43.18Y-79.248
X43.18Y-94.16
X43.44Y-57.5
X43.688Y-61.468
X44.17Y-97.16
X44.196Y-73.66
X44.196Y-74.93
X44.33Y-96.33
X44.38Y-94.065
X44.65Y-98.74
X44.98Y-90.78
X45.212Y-68.834
X45.28Y-56.04
X45.75Y-105.66
X45.974Y-54.61
X46.482Y-64.77
X46.67Y-84.66
X47.04Y-108.65
X48.768Y-82.727
X49.022Y-67.31
X49.507Y-77.239
X49.784Y-75.438
X49.799Y-87.08
X49.82Y-78.13
X50.546Y-76.2
X50.546Y-82.781
X51.308Y-78.076
X51.562Y-63.246
X51.562Y-82.781
X52.07Y-79.892
X52.57Y-46.44
X52.578Y-108.204
X53.086Y-49.784
X53.34Y-86.106
X53.7Y-93.39
X53.848Y-82.55
X53.9Y-98.25
X53.95Y-95.69
X54.356Y-76.454
X54.41Y-78.994
X54.44Y-99.613
X54.864Y-97.536
X55.118Y-82.296
X55.36Y-98.96
X55.372Y-76.708
X55.626Y-97.028
X56.41Y-82.1
X56.642Y-76.962
X56.896Y-42.672
X57.9Y-52.08
X57.94Y-50.81
X58.928Y-77.724
X59.944Y-76.454
X60.88Y-58.81
X60.96Y-91.44
X61.722Y-66.802
X62.992Y-89.916
X63.35Y-81.16
X63.5Y-94.488
X64.516Y-76.708
X64.516Y-90.932
X65.278Y-75.438
X66.802Y-91.44
X68.072Y-58.928
X69.342Y-94.782
X69.85Y-63.754
X70.612Y-61.976
X74.93Y-99.568
X75.184Y-87.122
X77.47Y-94.101
X78.994Y-55.372
X79.248Y-43.434
X79.756Y-94.488
X80.01Y-56.058
X81.026Y-79.756
X82.55Y-73.914
X83.058Y-45.72
X83.312Y-81.28
X83.71Y-71.72
X83.82Y-90.678
X84.074Y-51.298
X84.074Y-94.234
X84.582Y-63.754
X85.09Y-44.45
X85.09Y-48.768
X85.09Y-53.086
X85.852Y-77.216
X85.852Y-86.596
X86.106Y-88.392
X86.868Y-84.328
X87.63Y-62.992
X87.63Y-65.024
X87.63Y-82.804
X88.392Y-80.01
X94.742Y-41.91
X94.742Y-102.108
X94.818Y-53.492
X95.25Y-67.564
X95.25Y-99.822
X95.401Y-52.944
X95.504Y-41.148
X95.758Y-60.706
X95.95Y-55.818
X96.52Y-49.784
X96.52Y-50.8
X96.52Y-80.772
X97.028Y-46.99
X97.79Y-94.488
X98.016Y-87.097
X98.298Y-87.846
X98.298Y-88.646
X99.06Y-92.202
X99.314Y-84.836
X100.33Y-86.106
X100.33Y-100.076
X103.378Y-93.218
X105.156Y-44.958
X89.36Y-45.85
X89.36Y-47.63
X89.36Y-49.41
X89.36Y-51.19
X89.36Y-52.97
X89.36Y-54.75
X90.66Y-45.85
X90.66Y-47.63
X90.66Y-49.41
X90.66Y-51.19
X90.66Y-52.97
X90.66Y-54.75
X91.96Y-45.85
X91.96Y-47.63
X91.96Y-49.41
X91.96Y-51.19
X91.96Y-52.97
X91.96Y-54.75
X90.648Y-81.148
X90.648Y-82.928
X90.648Y-84.708
X90.648Y-86.488
X90.648Y-88.268
X90.648Y-90.048
X91.948Y-81.148
X91.948Y-82.928
X91.948Y-84.708
X91.948Y-86.488
X91.948Y-88.268
X91.948Y-90.048
X93.248Y-81.148
X93.248Y-82.928
X93.248Y-84.708
X93.248Y-86.488
X93.248Y-88.268
X93.248Y-90.048
X47.89Y-92.215
X47.89Y-93.995
X47.89Y-95.775
X47.89Y-97.555
X47.89Y-99.335
X47.89Y-101.115
X49.19Y-92.215
X49.19Y-93.995
X49.19Y-95.775
X49.19Y-97.555
X49.19Y-99.335
X49.19Y-101.115
X50.49Y-92.215
X50.49Y-93.995
X50.49Y-95.775
X50.49Y-97.555
X50.49Y-99.335
X50.49Y-101.115
T3
X66.3Y-40.3
X66.95Y-41.3
X67.6Y-40.3
X68.25Y-41.3
X68.9Y-40.3
T4
X81.28Y-48.006
X81.28Y-49.256
X81.28Y-50.506
X81.28Y-51.756
X40.27Y-85.06
X40.27Y-86.31
X40.27Y-87.56
X40.27Y-88.81
X82.52Y-83.93
X82.52Y-85.18
X82.52Y-86.43
X82.52Y-87.68
T5
X74.38Y-73.06
X74.38Y-74.33
X74.38Y-75.6
X74.38Y-76.87
X75.65Y-73.06
X75.65Y-74.33
X75.65Y-75.6
X75.65Y-76.87
X76.5Y-40.5
X76.5Y-42.5
X76.5Y-44.5
X76.5Y-46.5
X76.5Y-48.5
X76.5Y-50.5
X76.5Y-52.5
X76.5Y-54.5
X76.5Y-56.5
X76.5Y-58.5
X98.5Y-40.5
X98.5Y-42.5
X98.5Y-44.5
X98.5Y-46.5
X98.5Y-48.5
X98.5Y-50.5
X98.5Y-52.5
X98.5Y-54.5
X98.5Y-56.5
X98.5Y-58.5
T6
X47.244Y-87.122
X48.514Y-90.678
X73.66Y-83.312
X78.74Y-80.772
X78.994Y-39.116
X85.598Y-101.092
X88.9Y-96.012
X88.9Y-101.092
X89.154Y-39.37
X89.916Y-43.688
X90.424Y-77.47
T7
X79.6Y-67.564
X79.6Y-70.104
X79.6Y-72.644
X79.6Y-75.184
X87.22Y-67.564
X87.22Y-70.104
X87.22Y-72.644
X87.22Y-75.184
T8
X62.15Y-113.16
X73.15Y-113.16
X38.6Y-58.0
X38.6Y-60.54
X38.6Y-63.08
X38.6Y-65.62
X69.6Y-68.06
X69.6Y-70.6
X69.6Y-73.14
X69.6Y-75.68
X69.6Y-78.22
X69.6Y-80.76
X69.6Y-83.3
X48.6Y-40.1
X48.6Y-42.64
X48.6Y-45.18
X48.6Y-47.72
X53.54Y-89.33
X56.04Y-89.33
X58.54Y-89.33
X29.56Y-72.52
X29.56Y-75.06
X29.56Y-77.6
X32.1Y-72.52
X32.1Y-75.06
X32.1Y-77.6
T9
X65.15Y-103.16
X70.15Y-103.16
T2
X64.025Y-40.02
X64.025Y-40.22
X64.025Y-40.42
X64.025Y-40.62
X64.025Y-40.82
X64.025Y-41.02
X71.175Y-40.02
X71.175Y-40.22
X71.175Y-40.42
X71.175Y-40.62
X71.175Y-40.82
X71.175Y-41.02
T0
M30
