G04 #@! TF.GenerationSoftware,KiCad,Pcbnew,(5.1.5)-3*
G04 #@! TF.CreationDate,2020-03-29T09:55:59+08:00*
G04 #@! TF.ProjectId,Misaka,4d697361-6b61-42e6-9b69-6361645f7063,rev?*
G04 #@! TF.SameCoordinates,Original*
G04 #@! TF.FileFunction,Legend,Top*
G04 #@! TF.FilePolarity,Positive*
%FSLAX46Y46*%
G04 Gerber Fmt 4.6, Leading zero omitted, Abs format (unit mm)*
G04 Created by KiCad (PCBNEW (5.1.5)-3) date 2020-03-29 09:55:59*
%MOMM*%
%LPD*%
G04 APERTURE LIST*
%ADD10C,0.203200*%
%ADD11C,0.120000*%
%ADD12C,0.100000*%
%ADD13C,0.150000*%
%ADD14C,0.127000*%
G04 APERTURE END LIST*
D10*
X50470000Y-57800000D02*
G75*
G03X50470000Y-57800000I-1270000J0D01*
G01*
X47401680Y-58597560D02*
X47000360Y-58597560D01*
X47401680Y-57002440D02*
X47000360Y-57002440D01*
X51399640Y-58597560D02*
X50998320Y-58597560D01*
X51399640Y-57002440D02*
X50998320Y-57002440D01*
X47902060Y-59999640D02*
X50497940Y-59999640D01*
X51399640Y-58597560D02*
X51399640Y-57002440D01*
X50497940Y-55600360D02*
X47902060Y-55600360D01*
X47000360Y-57002440D02*
X47000360Y-58597560D01*
D11*
X53452210Y-88281039D02*
G75*
G02X54790000Y-87630000I1337790J-1048961D01*
G01*
X58627790Y-88281039D02*
G75*
G03X57290000Y-87630000I-1337790J-1048961D01*
G01*
X53452210Y-90378961D02*
G75*
G03X54790000Y-91030000I1337790J1048961D01*
G01*
X58627790Y-90378961D02*
G75*
G02X57290000Y-91030000I-1337790J1048961D01*
G01*
X57290000Y-87630000D02*
X54790000Y-87630000D01*
X57290000Y-91030000D02*
X54790000Y-91030000D01*
X88660000Y-66174000D02*
X78160000Y-66174000D01*
X88660000Y-76574000D02*
X88660000Y-66174000D01*
X78160000Y-76574000D02*
X88660000Y-76574000D01*
X78160000Y-66174000D02*
X78160000Y-76574000D01*
X85660000Y-66234000D02*
X84410000Y-66234000D01*
X85660000Y-76514000D02*
X85660000Y-66234000D01*
X81160000Y-76514000D02*
X85660000Y-76514000D01*
X81160000Y-66234000D02*
X81160000Y-76514000D01*
X82410000Y-66234000D02*
X81160000Y-66234000D01*
X84410000Y-66234000D02*
G75*
G02X82410000Y-66234000I-1000000J0D01*
G01*
X98110000Y-104910000D02*
X98110000Y-110920000D01*
X91290000Y-107160000D02*
X91290000Y-110920000D01*
X98110000Y-110920000D02*
X96850000Y-110920000D01*
X91290000Y-110920000D02*
X92550000Y-110920000D01*
X85810000Y-104810000D02*
X85810000Y-110820000D01*
X78990000Y-107060000D02*
X78990000Y-110820000D01*
X85810000Y-110820000D02*
X84550000Y-110820000D01*
X78990000Y-110820000D02*
X80250000Y-110820000D01*
X58300000Y-45140000D02*
X54850000Y-45140000D01*
X58300000Y-45140000D02*
X60250000Y-45140000D01*
X58300000Y-55260000D02*
X56350000Y-55260000D01*
X58300000Y-55260000D02*
X60250000Y-55260000D01*
X46890000Y-70190000D02*
X45600000Y-70190000D01*
X46890000Y-69490000D02*
X46890000Y-70190000D01*
X47590000Y-69490000D02*
X46890000Y-69490000D01*
X61110000Y-69490000D02*
X61110000Y-70190000D01*
X60410000Y-69490000D02*
X61110000Y-69490000D01*
X46890000Y-83710000D02*
X46890000Y-83010000D01*
X47590000Y-83710000D02*
X46890000Y-83710000D01*
X61110000Y-83710000D02*
X61110000Y-83010000D01*
X60410000Y-83710000D02*
X61110000Y-83710000D01*
X42860000Y-70785000D02*
X40400000Y-70785000D01*
X42860000Y-72255000D02*
X42860000Y-70785000D01*
X40400000Y-72255000D02*
X42860000Y-72255000D01*
X42860000Y-74175000D02*
X40400000Y-74175000D01*
X42860000Y-75645000D02*
X42860000Y-74175000D01*
X40400000Y-75645000D02*
X42860000Y-75645000D01*
X36771267Y-77790000D02*
X36428733Y-77790000D01*
X36771267Y-78810000D02*
X36428733Y-78810000D01*
X36771267Y-74390000D02*
X36428733Y-74390000D01*
X36771267Y-75410000D02*
X36428733Y-75410000D01*
X36771267Y-71050000D02*
X36428733Y-71050000D01*
X36771267Y-72070000D02*
X36428733Y-72070000D01*
X90540000Y-67938733D02*
X90540000Y-68281267D01*
X91560000Y-67938733D02*
X91560000Y-68281267D01*
X94440000Y-70463733D02*
X94440000Y-70806267D01*
X95460000Y-70463733D02*
X95460000Y-70806267D01*
X90540000Y-72938733D02*
X90540000Y-73281267D01*
X91560000Y-72938733D02*
X91560000Y-73281267D01*
X78571267Y-84590000D02*
X78228733Y-84590000D01*
X78571267Y-85610000D02*
X78228733Y-85610000D01*
X78078733Y-83140000D02*
X78421267Y-83140000D01*
X78078733Y-82120000D02*
X78421267Y-82120000D01*
X56186267Y-93020000D02*
X55843733Y-93020000D01*
X56186267Y-94040000D02*
X55843733Y-94040000D01*
X43328733Y-50210000D02*
X43671267Y-50210000D01*
X43328733Y-49190000D02*
X43671267Y-49190000D01*
X45128733Y-53510000D02*
X45471267Y-53510000D01*
X45128733Y-52490000D02*
X45471267Y-52490000D01*
X58828733Y-60910000D02*
X59171267Y-60910000D01*
X58828733Y-59890000D02*
X59171267Y-59890000D01*
X66210000Y-48746267D02*
X66210000Y-48403733D01*
X65190000Y-48746267D02*
X65190000Y-48403733D01*
D12*
X99900000Y-65600000D02*
X99400000Y-65600000D01*
X99900000Y-65600000D02*
X99900000Y-65100000D01*
X75100000Y-65600000D02*
X75600000Y-65600000D01*
X75100000Y-65600000D02*
X75100000Y-65100000D01*
X75100000Y-40000000D02*
X75100000Y-40500000D01*
X75100000Y-40000000D02*
X75500000Y-39600000D01*
X99900000Y-40000000D02*
X99500000Y-39600000D01*
X99900000Y-40000000D02*
X99900000Y-40500000D01*
X82700000Y-32400000D02*
X82300000Y-32800000D01*
X82700000Y-32400000D02*
X83200000Y-32400000D01*
X92300000Y-32400000D02*
X91800000Y-32400000D01*
X92300000Y-32400000D02*
X92700000Y-32800000D01*
X75100000Y-49500000D02*
X75100000Y-53300000D01*
X99900000Y-49500000D02*
X99900000Y-53300000D01*
D11*
X42860000Y-77565000D02*
X40400000Y-77565000D01*
X42860000Y-79035000D02*
X42860000Y-77565000D01*
X40400000Y-79035000D02*
X42860000Y-79035000D01*
X69600000Y-66730000D02*
X70930000Y-66730000D01*
X70930000Y-66730000D02*
X70930000Y-68060000D01*
X70930000Y-69330000D02*
X70930000Y-84630000D01*
X68270000Y-84630000D02*
X70930000Y-84630000D01*
X68270000Y-69330000D02*
X68270000Y-84630000D01*
X68270000Y-69330000D02*
X70930000Y-69330000D01*
X48600000Y-38770000D02*
X49930000Y-38770000D01*
X49930000Y-38770000D02*
X49930000Y-40100000D01*
X49930000Y-41370000D02*
X49930000Y-49050000D01*
X47270000Y-49050000D02*
X49930000Y-49050000D01*
X47270000Y-41370000D02*
X47270000Y-49050000D01*
X47270000Y-41370000D02*
X49930000Y-41370000D01*
X37270000Y-56670000D02*
X38600000Y-56670000D01*
X37270000Y-58000000D02*
X37270000Y-56670000D01*
X37270000Y-59270000D02*
X39930000Y-59270000D01*
X39930000Y-59270000D02*
X39930000Y-66950000D01*
X37270000Y-59270000D02*
X37270000Y-66950000D01*
X37270000Y-66950000D02*
X39930000Y-66950000D01*
D13*
X65300000Y-38620000D02*
X67300000Y-38620000D01*
X71750000Y-42120000D02*
X71750000Y-41645000D01*
X63450000Y-42120000D02*
X71750000Y-42120000D01*
X63450000Y-41645000D02*
X63450000Y-42120000D01*
X71750000Y-38920000D02*
X71750000Y-39395000D01*
X63450000Y-38920000D02*
X71750000Y-38920000D01*
X63450000Y-39395000D02*
X63450000Y-38920000D01*
D11*
X62000000Y-114270000D02*
G75*
G02X62000000Y-112050000I0J1110000D01*
G01*
X73300000Y-112050000D02*
G75*
G02X73300000Y-114270000I0J-1110000D01*
G01*
X62590000Y-116370000D02*
X62590000Y-114270000D01*
X73300000Y-112050000D02*
X72710000Y-112050000D01*
X73300000Y-114270000D02*
X72710000Y-114270000D01*
X62590000Y-114270000D02*
X62000000Y-114270000D01*
X62590000Y-112050000D02*
X62000000Y-112050000D01*
X62590000Y-112050000D02*
X62590000Y-107150000D01*
X72710000Y-116370000D02*
X72710000Y-114270000D01*
X72710000Y-112050000D02*
X72710000Y-107150000D01*
X72710000Y-107150000D02*
X62590000Y-107150000D01*
X72710000Y-116370000D02*
X62590000Y-116370000D01*
X33430000Y-78930000D02*
X32100000Y-78930000D01*
X33430000Y-77600000D02*
X33430000Y-78930000D01*
X30830000Y-78930000D02*
X28230000Y-78930000D01*
X30830000Y-76330000D02*
X30830000Y-78930000D01*
X33430000Y-76330000D02*
X30830000Y-76330000D01*
X28230000Y-78930000D02*
X28230000Y-71190000D01*
X33430000Y-76330000D02*
X33430000Y-71190000D01*
X33430000Y-71190000D02*
X28230000Y-71190000D01*
X108440000Y-102960000D02*
X108440000Y-101810000D01*
X101140000Y-102960000D02*
X108440000Y-102960000D01*
X101140000Y-97460000D02*
X108440000Y-97460000D01*
X108440000Y-95794284D02*
X108440000Y-94644284D01*
X101140000Y-95794284D02*
X108440000Y-95794284D01*
X101140000Y-90294284D02*
X108440000Y-90294284D01*
X108440000Y-88628570D02*
X108440000Y-87478570D01*
X101140000Y-88628570D02*
X108440000Y-88628570D01*
X101140000Y-83128570D02*
X108440000Y-83128570D01*
X108440000Y-81462856D02*
X108440000Y-80312856D01*
X101140000Y-81462856D02*
X108440000Y-81462856D01*
X101140000Y-75962856D02*
X108440000Y-75962856D01*
X108440000Y-74297142D02*
X108440000Y-73147142D01*
X101140000Y-74297142D02*
X108440000Y-74297142D01*
X101140000Y-68797142D02*
X108440000Y-68797142D01*
X108440000Y-67131428D02*
X108440000Y-65981428D01*
X101140000Y-67131428D02*
X108440000Y-67131428D01*
X101140000Y-61631428D02*
X108440000Y-61631428D01*
X108440000Y-59965714D02*
X108440000Y-58815714D01*
X101140000Y-59965714D02*
X108440000Y-59965714D01*
X101140000Y-54465714D02*
X108440000Y-54465714D01*
X108440000Y-52800000D02*
X108440000Y-51650000D01*
X101140000Y-52800000D02*
X108440000Y-52800000D01*
X101140000Y-47300000D02*
X108440000Y-47300000D01*
X73400000Y-98560000D02*
X66500000Y-98560000D01*
X73400000Y-95260000D02*
X66500000Y-95260000D01*
X73400000Y-98560000D02*
X73400000Y-95260000D01*
X52640000Y-65435000D02*
X56700000Y-65435000D01*
X52640000Y-63165000D02*
X52640000Y-65435000D01*
X56700000Y-63165000D02*
X52640000Y-63165000D01*
X91056250Y-94868750D02*
X91056250Y-95656250D01*
X90662500Y-95262500D02*
X91450000Y-95262500D01*
X91690000Y-99455563D02*
X92754437Y-100520000D01*
X91690000Y-94764437D02*
X92754437Y-93700000D01*
X91690000Y-94764437D02*
X91690000Y-96050000D01*
X91690000Y-99455563D02*
X91690000Y-98170000D01*
X92754437Y-100520000D02*
X98510000Y-100520000D01*
X92754437Y-93700000D02*
X98510000Y-93700000D01*
X98510000Y-93700000D02*
X98510000Y-96050000D01*
X98510000Y-100520000D02*
X98510000Y-98170000D01*
X78956250Y-94668750D02*
X78956250Y-95456250D01*
X78562500Y-95062500D02*
X79350000Y-95062500D01*
X79590000Y-99255563D02*
X80654437Y-100320000D01*
X79590000Y-94564437D02*
X80654437Y-93500000D01*
X79590000Y-94564437D02*
X79590000Y-95850000D01*
X79590000Y-99255563D02*
X79590000Y-97970000D01*
X80654437Y-100320000D02*
X86410000Y-100320000D01*
X80654437Y-93500000D02*
X86410000Y-93500000D01*
X86410000Y-93500000D02*
X86410000Y-95850000D01*
X86410000Y-100320000D02*
X86410000Y-97970000D01*
X109680000Y-94368733D02*
X109680000Y-94711267D01*
X110700000Y-94368733D02*
X110700000Y-94711267D01*
X109680000Y-88697301D02*
X109680000Y-89039835D01*
X110700000Y-88697301D02*
X110700000Y-89039835D01*
X109680000Y-83025873D02*
X109680000Y-83368407D01*
X110700000Y-83025873D02*
X110700000Y-83368407D01*
X109680000Y-77354445D02*
X109680000Y-77696979D01*
X110700000Y-77354445D02*
X110700000Y-77696979D01*
X109680000Y-71683017D02*
X109680000Y-72025551D01*
X110700000Y-71683017D02*
X110700000Y-72025551D01*
X109680000Y-66011589D02*
X109680000Y-66354123D01*
X110700000Y-66011589D02*
X110700000Y-66354123D01*
X109680000Y-60340161D02*
X109680000Y-60682695D01*
X110700000Y-60340161D02*
X110700000Y-60682695D01*
X109680000Y-54668733D02*
X109680000Y-55011267D01*
X110700000Y-54668733D02*
X110700000Y-55011267D01*
X74153733Y-85610000D02*
X74496267Y-85610000D01*
X74153733Y-84590000D02*
X74496267Y-84590000D01*
X82588733Y-62790000D02*
X82931267Y-62790000D01*
X82588733Y-61770000D02*
X82931267Y-61770000D01*
X82428733Y-103320000D02*
X82771267Y-103320000D01*
X82428733Y-102300000D02*
X82771267Y-102300000D01*
X43200000Y-64408733D02*
X43200000Y-64751267D01*
X44220000Y-64408733D02*
X44220000Y-64751267D01*
X60728733Y-65610000D02*
X61071267Y-65610000D01*
X60728733Y-64590000D02*
X61071267Y-64590000D01*
X67771267Y-34290000D02*
X67428733Y-34290000D01*
X67771267Y-35310000D02*
X67428733Y-35310000D01*
X52210000Y-51371267D02*
X52210000Y-51028733D01*
X51190000Y-51371267D02*
X51190000Y-51028733D01*
D14*
X48735542Y-55252742D02*
X48822628Y-55281771D01*
X48967771Y-55281771D01*
X49025828Y-55252742D01*
X49054857Y-55223714D01*
X49083885Y-55165657D01*
X49083885Y-55107600D01*
X49054857Y-55049542D01*
X49025828Y-55020514D01*
X48967771Y-54991485D01*
X48851657Y-54962457D01*
X48793600Y-54933428D01*
X48764571Y-54904400D01*
X48735542Y-54846342D01*
X48735542Y-54788285D01*
X48764571Y-54730228D01*
X48793600Y-54701200D01*
X48851657Y-54672171D01*
X48996800Y-54672171D01*
X49083885Y-54701200D01*
X49664457Y-55281771D02*
X49316114Y-55281771D01*
X49490285Y-55281771D02*
X49490285Y-54672171D01*
X49432228Y-54759257D01*
X49374171Y-54817314D01*
X49316114Y-54846342D01*
X42857257Y-60387171D02*
X43205600Y-60387171D01*
X43031428Y-60996771D02*
X43031428Y-60387171D01*
X43379771Y-60822600D02*
X43670057Y-60822600D01*
X43321714Y-60996771D02*
X43524914Y-60387171D01*
X43728114Y-60996771D01*
X44279657Y-60938714D02*
X44250628Y-60967742D01*
X44163542Y-60996771D01*
X44105485Y-60996771D01*
X44018400Y-60967742D01*
X43960342Y-60909685D01*
X43931314Y-60851628D01*
X43902285Y-60735514D01*
X43902285Y-60648428D01*
X43931314Y-60532314D01*
X43960342Y-60474257D01*
X44018400Y-60416200D01*
X44105485Y-60387171D01*
X44163542Y-60387171D01*
X44250628Y-60416200D01*
X44279657Y-60445228D01*
X44453828Y-60387171D02*
X44802171Y-60387171D01*
X44628000Y-60996771D02*
X44628000Y-60387171D01*
X45005371Y-60996771D02*
X45005371Y-60387171D01*
X45585942Y-60996771D02*
X45295657Y-60996771D01*
X45295657Y-60387171D01*
X45789142Y-60677457D02*
X45992342Y-60677457D01*
X46079428Y-60996771D02*
X45789142Y-60996771D01*
X45789142Y-60387171D01*
X46079428Y-60387171D01*
X46195542Y-61054828D02*
X46660000Y-61054828D01*
X46776114Y-60967742D02*
X46863200Y-60996771D01*
X47008342Y-60996771D01*
X47066400Y-60967742D01*
X47095428Y-60938714D01*
X47124457Y-60880657D01*
X47124457Y-60822600D01*
X47095428Y-60764542D01*
X47066400Y-60735514D01*
X47008342Y-60706485D01*
X46892228Y-60677457D01*
X46834171Y-60648428D01*
X46805142Y-60619400D01*
X46776114Y-60561342D01*
X46776114Y-60503285D01*
X46805142Y-60445228D01*
X46834171Y-60416200D01*
X46892228Y-60387171D01*
X47037371Y-60387171D01*
X47124457Y-60416200D01*
X47327657Y-60387171D02*
X47472800Y-60996771D01*
X47588914Y-60561342D01*
X47705028Y-60996771D01*
X47850171Y-60387171D01*
X48082400Y-60996771D02*
X48082400Y-60387171D01*
X48285600Y-60387171D02*
X48633942Y-60387171D01*
X48459771Y-60996771D02*
X48459771Y-60387171D01*
X49185485Y-60938714D02*
X49156457Y-60967742D01*
X49069371Y-60996771D01*
X49011314Y-60996771D01*
X48924228Y-60967742D01*
X48866171Y-60909685D01*
X48837142Y-60851628D01*
X48808114Y-60735514D01*
X48808114Y-60648428D01*
X48837142Y-60532314D01*
X48866171Y-60474257D01*
X48924228Y-60416200D01*
X49011314Y-60387171D01*
X49069371Y-60387171D01*
X49156457Y-60416200D01*
X49185485Y-60445228D01*
X49446742Y-60996771D02*
X49446742Y-60387171D01*
X49446742Y-60677457D02*
X49795085Y-60677457D01*
X49795085Y-60996771D02*
X49795085Y-60387171D01*
X49940228Y-61054828D02*
X50404685Y-61054828D01*
X50520800Y-60967742D02*
X50607885Y-60996771D01*
X50753028Y-60996771D01*
X50811085Y-60967742D01*
X50840114Y-60938714D01*
X50869142Y-60880657D01*
X50869142Y-60822600D01*
X50840114Y-60764542D01*
X50811085Y-60735514D01*
X50753028Y-60706485D01*
X50636914Y-60677457D01*
X50578857Y-60648428D01*
X50549828Y-60619400D01*
X50520800Y-60561342D01*
X50520800Y-60503285D01*
X50549828Y-60445228D01*
X50578857Y-60416200D01*
X50636914Y-60387171D01*
X50782057Y-60387171D01*
X50869142Y-60416200D01*
X51130400Y-60996771D02*
X51130400Y-60387171D01*
X51333600Y-60822600D01*
X51536800Y-60387171D01*
X51536800Y-60996771D01*
X51827085Y-60996771D02*
X51827085Y-60387171D01*
X51972228Y-60387171D01*
X52059314Y-60416200D01*
X52117371Y-60474257D01*
X52146400Y-60532314D01*
X52175428Y-60648428D01*
X52175428Y-60735514D01*
X52146400Y-60851628D01*
X52117371Y-60909685D01*
X52059314Y-60967742D01*
X51972228Y-60996771D01*
X51827085Y-60996771D01*
X52291542Y-61054828D02*
X52756000Y-61054828D01*
X53162400Y-60590371D02*
X53162400Y-60996771D01*
X53017257Y-60358142D02*
X52872114Y-60793571D01*
X53249485Y-60793571D01*
X53481714Y-60938714D02*
X53510742Y-60967742D01*
X53481714Y-60996771D01*
X53452685Y-60967742D01*
X53481714Y-60938714D01*
X53481714Y-60996771D01*
X54062285Y-60387171D02*
X53772000Y-60387171D01*
X53742971Y-60677457D01*
X53772000Y-60648428D01*
X53830057Y-60619400D01*
X53975200Y-60619400D01*
X54033257Y-60648428D01*
X54062285Y-60677457D01*
X54091314Y-60735514D01*
X54091314Y-60880657D01*
X54062285Y-60938714D01*
X54033257Y-60967742D01*
X53975200Y-60996771D01*
X53830057Y-60996771D01*
X53772000Y-60967742D01*
X53742971Y-60938714D01*
X54352571Y-60996771D02*
X54352571Y-60387171D01*
X54555771Y-60822600D01*
X54758971Y-60387171D01*
X54758971Y-60996771D01*
X55049257Y-60996771D02*
X55049257Y-60387171D01*
X55252457Y-60822600D01*
X55455657Y-60387171D01*
X55455657Y-60996771D01*
D13*
X55563809Y-92006190D02*
X55563809Y-92482380D01*
X55230476Y-91482380D02*
X55563809Y-92006190D01*
X55897142Y-91482380D01*
X56754285Y-92482380D02*
X56182857Y-92482380D01*
X56468571Y-92482380D02*
X56468571Y-91482380D01*
X56373333Y-91625238D01*
X56278095Y-91720476D01*
X56182857Y-91768095D01*
X82648095Y-64686380D02*
X82648095Y-65495904D01*
X82695714Y-65591142D01*
X82743333Y-65638761D01*
X82838571Y-65686380D01*
X83029047Y-65686380D01*
X83124285Y-65638761D01*
X83171904Y-65591142D01*
X83219523Y-65495904D01*
X83219523Y-64686380D01*
X83838571Y-65114952D02*
X83743333Y-65067333D01*
X83695714Y-65019714D01*
X83648095Y-64924476D01*
X83648095Y-64876857D01*
X83695714Y-64781619D01*
X83743333Y-64734000D01*
X83838571Y-64686380D01*
X84029047Y-64686380D01*
X84124285Y-64734000D01*
X84171904Y-64781619D01*
X84219523Y-64876857D01*
X84219523Y-64924476D01*
X84171904Y-65019714D01*
X84124285Y-65067333D01*
X84029047Y-65114952D01*
X83838571Y-65114952D01*
X83743333Y-65162571D01*
X83695714Y-65210190D01*
X83648095Y-65305428D01*
X83648095Y-65495904D01*
X83695714Y-65591142D01*
X83743333Y-65638761D01*
X83838571Y-65686380D01*
X84029047Y-65686380D01*
X84124285Y-65638761D01*
X84171904Y-65591142D01*
X84219523Y-65495904D01*
X84219523Y-65305428D01*
X84171904Y-65210190D01*
X84124285Y-65162571D01*
X84029047Y-65114952D01*
X98652380Y-109771904D02*
X99461904Y-109771904D01*
X99557142Y-109724285D01*
X99604761Y-109676666D01*
X99652380Y-109581428D01*
X99652380Y-109390952D01*
X99604761Y-109295714D01*
X99557142Y-109248095D01*
X99461904Y-109200476D01*
X98652380Y-109200476D01*
X98652380Y-108819523D02*
X98652380Y-108152857D01*
X99652380Y-108581428D01*
X86352380Y-109671904D02*
X87161904Y-109671904D01*
X87257142Y-109624285D01*
X87304761Y-109576666D01*
X87352380Y-109481428D01*
X87352380Y-109290952D01*
X87304761Y-109195714D01*
X87257142Y-109148095D01*
X87161904Y-109100476D01*
X86352380Y-109100476D01*
X86352380Y-108195714D02*
X86352380Y-108386190D01*
X86400000Y-108481428D01*
X86447619Y-108529047D01*
X86590476Y-108624285D01*
X86780952Y-108671904D01*
X87161904Y-108671904D01*
X87257142Y-108624285D01*
X87304761Y-108576666D01*
X87352380Y-108481428D01*
X87352380Y-108290952D01*
X87304761Y-108195714D01*
X87257142Y-108148095D01*
X87161904Y-108100476D01*
X86923809Y-108100476D01*
X86828571Y-108148095D01*
X86780952Y-108195714D01*
X86733333Y-108290952D01*
X86733333Y-108481428D01*
X86780952Y-108576666D01*
X86828571Y-108624285D01*
X86923809Y-108671904D01*
X57538095Y-43752380D02*
X57538095Y-44561904D01*
X57585714Y-44657142D01*
X57633333Y-44704761D01*
X57728571Y-44752380D01*
X57919047Y-44752380D01*
X58014285Y-44704761D01*
X58061904Y-44657142D01*
X58109523Y-44561904D01*
X58109523Y-43752380D01*
X59061904Y-43752380D02*
X58585714Y-43752380D01*
X58538095Y-44228571D01*
X58585714Y-44180952D01*
X58680952Y-44133333D01*
X58919047Y-44133333D01*
X59014285Y-44180952D01*
X59061904Y-44228571D01*
X59109523Y-44323809D01*
X59109523Y-44561904D01*
X59061904Y-44657142D01*
X59014285Y-44704761D01*
X58919047Y-44752380D01*
X58680952Y-44752380D01*
X58585714Y-44704761D01*
X58538095Y-44657142D01*
X53238095Y-66702380D02*
X53238095Y-67511904D01*
X53285714Y-67607142D01*
X53333333Y-67654761D01*
X53428571Y-67702380D01*
X53619047Y-67702380D01*
X53714285Y-67654761D01*
X53761904Y-67607142D01*
X53809523Y-67511904D01*
X53809523Y-66702380D01*
X54238095Y-66797619D02*
X54285714Y-66750000D01*
X54380952Y-66702380D01*
X54619047Y-66702380D01*
X54714285Y-66750000D01*
X54761904Y-66797619D01*
X54809523Y-66892857D01*
X54809523Y-66988095D01*
X54761904Y-67130952D01*
X54190476Y-67702380D01*
X54809523Y-67702380D01*
X39961904Y-72402380D02*
X40533333Y-72402380D01*
X40247619Y-73402380D02*
X40247619Y-72402380D01*
X40771428Y-72402380D02*
X41438095Y-73402380D01*
X41438095Y-72402380D02*
X40771428Y-73402380D01*
X42342857Y-73402380D02*
X41771428Y-73402380D01*
X42057142Y-73402380D02*
X42057142Y-72402380D01*
X41961904Y-72545238D01*
X41866666Y-72640476D01*
X41771428Y-72688095D01*
X40557142Y-76792380D02*
X40223809Y-76316190D01*
X39985714Y-76792380D02*
X39985714Y-75792380D01*
X40366666Y-75792380D01*
X40461904Y-75840000D01*
X40509523Y-75887619D01*
X40557142Y-75982857D01*
X40557142Y-76125714D01*
X40509523Y-76220952D01*
X40461904Y-76268571D01*
X40366666Y-76316190D01*
X39985714Y-76316190D01*
X40890476Y-75792380D02*
X41557142Y-76792380D01*
X41557142Y-75792380D02*
X40890476Y-76792380D01*
X42461904Y-76792380D02*
X41890476Y-76792380D01*
X42176190Y-76792380D02*
X42176190Y-75792380D01*
X42080952Y-75935238D01*
X41985714Y-76030476D01*
X41890476Y-76078095D01*
X35957142Y-80182380D02*
X35623809Y-79706190D01*
X35385714Y-80182380D02*
X35385714Y-79182380D01*
X35766666Y-79182380D01*
X35861904Y-79230000D01*
X35909523Y-79277619D01*
X35957142Y-79372857D01*
X35957142Y-79515714D01*
X35909523Y-79610952D01*
X35861904Y-79658571D01*
X35766666Y-79706190D01*
X35385714Y-79706190D01*
X36290476Y-79182380D02*
X36909523Y-79182380D01*
X36576190Y-79563333D01*
X36719047Y-79563333D01*
X36814285Y-79610952D01*
X36861904Y-79658571D01*
X36909523Y-79753809D01*
X36909523Y-79991904D01*
X36861904Y-80087142D01*
X36814285Y-80134761D01*
X36719047Y-80182380D01*
X36433333Y-80182380D01*
X36338095Y-80134761D01*
X36290476Y-80087142D01*
X37814285Y-79182380D02*
X37338095Y-79182380D01*
X37290476Y-79658571D01*
X37338095Y-79610952D01*
X37433333Y-79563333D01*
X37671428Y-79563333D01*
X37766666Y-79610952D01*
X37814285Y-79658571D01*
X37861904Y-79753809D01*
X37861904Y-79991904D01*
X37814285Y-80087142D01*
X37766666Y-80134761D01*
X37671428Y-80182380D01*
X37433333Y-80182380D01*
X37338095Y-80134761D01*
X37290476Y-80087142D01*
X35957142Y-76782380D02*
X35623809Y-76306190D01*
X35385714Y-76782380D02*
X35385714Y-75782380D01*
X35766666Y-75782380D01*
X35861904Y-75830000D01*
X35909523Y-75877619D01*
X35957142Y-75972857D01*
X35957142Y-76115714D01*
X35909523Y-76210952D01*
X35861904Y-76258571D01*
X35766666Y-76306190D01*
X35385714Y-76306190D01*
X36290476Y-75782380D02*
X36909523Y-75782380D01*
X36576190Y-76163333D01*
X36719047Y-76163333D01*
X36814285Y-76210952D01*
X36861904Y-76258571D01*
X36909523Y-76353809D01*
X36909523Y-76591904D01*
X36861904Y-76687142D01*
X36814285Y-76734761D01*
X36719047Y-76782380D01*
X36433333Y-76782380D01*
X36338095Y-76734761D01*
X36290476Y-76687142D01*
X37766666Y-76115714D02*
X37766666Y-76782380D01*
X37528571Y-75734761D02*
X37290476Y-76449047D01*
X37909523Y-76449047D01*
X35957142Y-73442380D02*
X35623809Y-72966190D01*
X35385714Y-73442380D02*
X35385714Y-72442380D01*
X35766666Y-72442380D01*
X35861904Y-72490000D01*
X35909523Y-72537619D01*
X35957142Y-72632857D01*
X35957142Y-72775714D01*
X35909523Y-72870952D01*
X35861904Y-72918571D01*
X35766666Y-72966190D01*
X35385714Y-72966190D01*
X36290476Y-72442380D02*
X36909523Y-72442380D01*
X36576190Y-72823333D01*
X36719047Y-72823333D01*
X36814285Y-72870952D01*
X36861904Y-72918571D01*
X36909523Y-73013809D01*
X36909523Y-73251904D01*
X36861904Y-73347142D01*
X36814285Y-73394761D01*
X36719047Y-73442380D01*
X36433333Y-73442380D01*
X36338095Y-73394761D01*
X36290476Y-73347142D01*
X37242857Y-72442380D02*
X37861904Y-72442380D01*
X37528571Y-72823333D01*
X37671428Y-72823333D01*
X37766666Y-72870952D01*
X37814285Y-72918571D01*
X37861904Y-73013809D01*
X37861904Y-73251904D01*
X37814285Y-73347142D01*
X37766666Y-73394761D01*
X37671428Y-73442380D01*
X37385714Y-73442380D01*
X37290476Y-73394761D01*
X37242857Y-73347142D01*
X92932380Y-68752857D02*
X92456190Y-69086190D01*
X92932380Y-69324285D02*
X91932380Y-69324285D01*
X91932380Y-68943333D01*
X91980000Y-68848095D01*
X92027619Y-68800476D01*
X92122857Y-68752857D01*
X92265714Y-68752857D01*
X92360952Y-68800476D01*
X92408571Y-68848095D01*
X92456190Y-68943333D01*
X92456190Y-69324285D01*
X91932380Y-68419523D02*
X91932380Y-67800476D01*
X92313333Y-68133809D01*
X92313333Y-67990952D01*
X92360952Y-67895714D01*
X92408571Y-67848095D01*
X92503809Y-67800476D01*
X92741904Y-67800476D01*
X92837142Y-67848095D01*
X92884761Y-67895714D01*
X92932380Y-67990952D01*
X92932380Y-68276666D01*
X92884761Y-68371904D01*
X92837142Y-68419523D01*
X92027619Y-67419523D02*
X91980000Y-67371904D01*
X91932380Y-67276666D01*
X91932380Y-67038571D01*
X91980000Y-66943333D01*
X92027619Y-66895714D01*
X92122857Y-66848095D01*
X92218095Y-66848095D01*
X92360952Y-66895714D01*
X92932380Y-67467142D01*
X92932380Y-66848095D01*
X96832380Y-71277857D02*
X96356190Y-71611190D01*
X96832380Y-71849285D02*
X95832380Y-71849285D01*
X95832380Y-71468333D01*
X95880000Y-71373095D01*
X95927619Y-71325476D01*
X96022857Y-71277857D01*
X96165714Y-71277857D01*
X96260952Y-71325476D01*
X96308571Y-71373095D01*
X96356190Y-71468333D01*
X96356190Y-71849285D01*
X95832380Y-70944523D02*
X95832380Y-70325476D01*
X96213333Y-70658809D01*
X96213333Y-70515952D01*
X96260952Y-70420714D01*
X96308571Y-70373095D01*
X96403809Y-70325476D01*
X96641904Y-70325476D01*
X96737142Y-70373095D01*
X96784761Y-70420714D01*
X96832380Y-70515952D01*
X96832380Y-70801666D01*
X96784761Y-70896904D01*
X96737142Y-70944523D01*
X96832380Y-69373095D02*
X96832380Y-69944523D01*
X96832380Y-69658809D02*
X95832380Y-69658809D01*
X95975238Y-69754047D01*
X96070476Y-69849285D01*
X96118095Y-69944523D01*
X92932380Y-73752857D02*
X92456190Y-74086190D01*
X92932380Y-74324285D02*
X91932380Y-74324285D01*
X91932380Y-73943333D01*
X91980000Y-73848095D01*
X92027619Y-73800476D01*
X92122857Y-73752857D01*
X92265714Y-73752857D01*
X92360952Y-73800476D01*
X92408571Y-73848095D01*
X92456190Y-73943333D01*
X92456190Y-74324285D01*
X91932380Y-73419523D02*
X91932380Y-72800476D01*
X92313333Y-73133809D01*
X92313333Y-72990952D01*
X92360952Y-72895714D01*
X92408571Y-72848095D01*
X92503809Y-72800476D01*
X92741904Y-72800476D01*
X92837142Y-72848095D01*
X92884761Y-72895714D01*
X92932380Y-72990952D01*
X92932380Y-73276666D01*
X92884761Y-73371904D01*
X92837142Y-73419523D01*
X91932380Y-72181428D02*
X91932380Y-72086190D01*
X91980000Y-71990952D01*
X92027619Y-71943333D01*
X92122857Y-71895714D01*
X92313333Y-71848095D01*
X92551428Y-71848095D01*
X92741904Y-71895714D01*
X92837142Y-71943333D01*
X92884761Y-71990952D01*
X92932380Y-72086190D01*
X92932380Y-72181428D01*
X92884761Y-72276666D01*
X92837142Y-72324285D01*
X92741904Y-72371904D01*
X92551428Y-72419523D01*
X92313333Y-72419523D01*
X92122857Y-72371904D01*
X92027619Y-72324285D01*
X91980000Y-72276666D01*
X91932380Y-72181428D01*
X77757142Y-86982380D02*
X77423809Y-86506190D01*
X77185714Y-86982380D02*
X77185714Y-85982380D01*
X77566666Y-85982380D01*
X77661904Y-86030000D01*
X77709523Y-86077619D01*
X77757142Y-86172857D01*
X77757142Y-86315714D01*
X77709523Y-86410952D01*
X77661904Y-86458571D01*
X77566666Y-86506190D01*
X77185714Y-86506190D01*
X78138095Y-86077619D02*
X78185714Y-86030000D01*
X78280952Y-85982380D01*
X78519047Y-85982380D01*
X78614285Y-86030000D01*
X78661904Y-86077619D01*
X78709523Y-86172857D01*
X78709523Y-86268095D01*
X78661904Y-86410952D01*
X78090476Y-86982380D01*
X78709523Y-86982380D01*
X79185714Y-86982380D02*
X79376190Y-86982380D01*
X79471428Y-86934761D01*
X79519047Y-86887142D01*
X79614285Y-86744285D01*
X79661904Y-86553809D01*
X79661904Y-86172857D01*
X79614285Y-86077619D01*
X79566666Y-86030000D01*
X79471428Y-85982380D01*
X79280952Y-85982380D01*
X79185714Y-86030000D01*
X79138095Y-86077619D01*
X79090476Y-86172857D01*
X79090476Y-86410952D01*
X79138095Y-86506190D01*
X79185714Y-86553809D01*
X79280952Y-86601428D01*
X79471428Y-86601428D01*
X79566666Y-86553809D01*
X79614285Y-86506190D01*
X79661904Y-86410952D01*
X77607142Y-81652380D02*
X77273809Y-81176190D01*
X77035714Y-81652380D02*
X77035714Y-80652380D01*
X77416666Y-80652380D01*
X77511904Y-80700000D01*
X77559523Y-80747619D01*
X77607142Y-80842857D01*
X77607142Y-80985714D01*
X77559523Y-81080952D01*
X77511904Y-81128571D01*
X77416666Y-81176190D01*
X77035714Y-81176190D01*
X77988095Y-80747619D02*
X78035714Y-80700000D01*
X78130952Y-80652380D01*
X78369047Y-80652380D01*
X78464285Y-80700000D01*
X78511904Y-80747619D01*
X78559523Y-80842857D01*
X78559523Y-80938095D01*
X78511904Y-81080952D01*
X77940476Y-81652380D01*
X78559523Y-81652380D01*
X79130952Y-81080952D02*
X79035714Y-81033333D01*
X78988095Y-80985714D01*
X78940476Y-80890476D01*
X78940476Y-80842857D01*
X78988095Y-80747619D01*
X79035714Y-80700000D01*
X79130952Y-80652380D01*
X79321428Y-80652380D01*
X79416666Y-80700000D01*
X79464285Y-80747619D01*
X79511904Y-80842857D01*
X79511904Y-80890476D01*
X79464285Y-80985714D01*
X79416666Y-81033333D01*
X79321428Y-81080952D01*
X79130952Y-81080952D01*
X79035714Y-81128571D01*
X78988095Y-81176190D01*
X78940476Y-81271428D01*
X78940476Y-81461904D01*
X78988095Y-81557142D01*
X79035714Y-81604761D01*
X79130952Y-81652380D01*
X79321428Y-81652380D01*
X79416666Y-81604761D01*
X79464285Y-81557142D01*
X79511904Y-81461904D01*
X79511904Y-81271428D01*
X79464285Y-81176190D01*
X79416666Y-81128571D01*
X79321428Y-81080952D01*
X55372142Y-95412380D02*
X55038809Y-94936190D01*
X54800714Y-95412380D02*
X54800714Y-94412380D01*
X55181666Y-94412380D01*
X55276904Y-94460000D01*
X55324523Y-94507619D01*
X55372142Y-94602857D01*
X55372142Y-94745714D01*
X55324523Y-94840952D01*
X55276904Y-94888571D01*
X55181666Y-94936190D01*
X54800714Y-94936190D01*
X55753095Y-94507619D02*
X55800714Y-94460000D01*
X55895952Y-94412380D01*
X56134047Y-94412380D01*
X56229285Y-94460000D01*
X56276904Y-94507619D01*
X56324523Y-94602857D01*
X56324523Y-94698095D01*
X56276904Y-94840952D01*
X55705476Y-95412380D01*
X56324523Y-95412380D01*
X57181666Y-94412380D02*
X56991190Y-94412380D01*
X56895952Y-94460000D01*
X56848333Y-94507619D01*
X56753095Y-94650476D01*
X56705476Y-94840952D01*
X56705476Y-95221904D01*
X56753095Y-95317142D01*
X56800714Y-95364761D01*
X56895952Y-95412380D01*
X57086428Y-95412380D01*
X57181666Y-95364761D01*
X57229285Y-95317142D01*
X57276904Y-95221904D01*
X57276904Y-94983809D01*
X57229285Y-94888571D01*
X57181666Y-94840952D01*
X57086428Y-94793333D01*
X56895952Y-94793333D01*
X56800714Y-94840952D01*
X56753095Y-94888571D01*
X56705476Y-94983809D01*
X42857142Y-48722380D02*
X42523809Y-48246190D01*
X42285714Y-48722380D02*
X42285714Y-47722380D01*
X42666666Y-47722380D01*
X42761904Y-47770000D01*
X42809523Y-47817619D01*
X42857142Y-47912857D01*
X42857142Y-48055714D01*
X42809523Y-48150952D01*
X42761904Y-48198571D01*
X42666666Y-48246190D01*
X42285714Y-48246190D01*
X43238095Y-47817619D02*
X43285714Y-47770000D01*
X43380952Y-47722380D01*
X43619047Y-47722380D01*
X43714285Y-47770000D01*
X43761904Y-47817619D01*
X43809523Y-47912857D01*
X43809523Y-48008095D01*
X43761904Y-48150952D01*
X43190476Y-48722380D01*
X43809523Y-48722380D01*
X44714285Y-47722380D02*
X44238095Y-47722380D01*
X44190476Y-48198571D01*
X44238095Y-48150952D01*
X44333333Y-48103333D01*
X44571428Y-48103333D01*
X44666666Y-48150952D01*
X44714285Y-48198571D01*
X44761904Y-48293809D01*
X44761904Y-48531904D01*
X44714285Y-48627142D01*
X44666666Y-48674761D01*
X44571428Y-48722380D01*
X44333333Y-48722380D01*
X44238095Y-48674761D01*
X44190476Y-48627142D01*
X44657142Y-52022380D02*
X44323809Y-51546190D01*
X44085714Y-52022380D02*
X44085714Y-51022380D01*
X44466666Y-51022380D01*
X44561904Y-51070000D01*
X44609523Y-51117619D01*
X44657142Y-51212857D01*
X44657142Y-51355714D01*
X44609523Y-51450952D01*
X44561904Y-51498571D01*
X44466666Y-51546190D01*
X44085714Y-51546190D01*
X45038095Y-51117619D02*
X45085714Y-51070000D01*
X45180952Y-51022380D01*
X45419047Y-51022380D01*
X45514285Y-51070000D01*
X45561904Y-51117619D01*
X45609523Y-51212857D01*
X45609523Y-51308095D01*
X45561904Y-51450952D01*
X44990476Y-52022380D01*
X45609523Y-52022380D01*
X46466666Y-51355714D02*
X46466666Y-52022380D01*
X46228571Y-50974761D02*
X45990476Y-51689047D01*
X46609523Y-51689047D01*
X58357142Y-59422380D02*
X58023809Y-58946190D01*
X57785714Y-59422380D02*
X57785714Y-58422380D01*
X58166666Y-58422380D01*
X58261904Y-58470000D01*
X58309523Y-58517619D01*
X58357142Y-58612857D01*
X58357142Y-58755714D01*
X58309523Y-58850952D01*
X58261904Y-58898571D01*
X58166666Y-58946190D01*
X57785714Y-58946190D01*
X58738095Y-58517619D02*
X58785714Y-58470000D01*
X58880952Y-58422380D01*
X59119047Y-58422380D01*
X59214285Y-58470000D01*
X59261904Y-58517619D01*
X59309523Y-58612857D01*
X59309523Y-58708095D01*
X59261904Y-58850952D01*
X58690476Y-59422380D01*
X59309523Y-59422380D01*
X59642857Y-58422380D02*
X60261904Y-58422380D01*
X59928571Y-58803333D01*
X60071428Y-58803333D01*
X60166666Y-58850952D01*
X60214285Y-58898571D01*
X60261904Y-58993809D01*
X60261904Y-59231904D01*
X60214285Y-59327142D01*
X60166666Y-59374761D01*
X60071428Y-59422380D01*
X59785714Y-59422380D01*
X59690476Y-59374761D01*
X59642857Y-59327142D01*
X64722380Y-49217857D02*
X64246190Y-49551190D01*
X64722380Y-49789285D02*
X63722380Y-49789285D01*
X63722380Y-49408333D01*
X63770000Y-49313095D01*
X63817619Y-49265476D01*
X63912857Y-49217857D01*
X64055714Y-49217857D01*
X64150952Y-49265476D01*
X64198571Y-49313095D01*
X64246190Y-49408333D01*
X64246190Y-49789285D01*
X63817619Y-48836904D02*
X63770000Y-48789285D01*
X63722380Y-48694047D01*
X63722380Y-48455952D01*
X63770000Y-48360714D01*
X63817619Y-48313095D01*
X63912857Y-48265476D01*
X64008095Y-48265476D01*
X64150952Y-48313095D01*
X64722380Y-48884523D01*
X64722380Y-48265476D01*
X63817619Y-47884523D02*
X63770000Y-47836904D01*
X63722380Y-47741666D01*
X63722380Y-47503571D01*
X63770000Y-47408333D01*
X63817619Y-47360714D01*
X63912857Y-47313095D01*
X64008095Y-47313095D01*
X64150952Y-47360714D01*
X64722380Y-47932142D01*
X64722380Y-47313095D01*
X85666666Y-31462380D02*
X85666666Y-30462380D01*
X86000000Y-31176666D01*
X86333333Y-30462380D01*
X86333333Y-31462380D01*
X87000000Y-30462380D02*
X87190476Y-30462380D01*
X87285714Y-30510000D01*
X87380952Y-30605238D01*
X87428571Y-30795714D01*
X87428571Y-31129047D01*
X87380952Y-31319523D01*
X87285714Y-31414761D01*
X87190476Y-31462380D01*
X87000000Y-31462380D01*
X86904761Y-31414761D01*
X86809523Y-31319523D01*
X86761904Y-31129047D01*
X86761904Y-30795714D01*
X86809523Y-30605238D01*
X86904761Y-30510000D01*
X87000000Y-30462380D01*
X87857142Y-31462380D02*
X87857142Y-30462380D01*
X88095238Y-30462380D01*
X88238095Y-30510000D01*
X88333333Y-30605238D01*
X88380952Y-30700476D01*
X88428571Y-30890952D01*
X88428571Y-31033809D01*
X88380952Y-31224285D01*
X88333333Y-31319523D01*
X88238095Y-31414761D01*
X88095238Y-31462380D01*
X87857142Y-31462380D01*
X89380952Y-31462380D02*
X88809523Y-31462380D01*
X89095238Y-31462380D02*
X89095238Y-30462380D01*
X89000000Y-30605238D01*
X88904761Y-30700476D01*
X88809523Y-30748095D01*
X41033333Y-80182380D02*
X40557142Y-80182380D01*
X40557142Y-79182380D01*
X41890476Y-80182380D02*
X41319047Y-80182380D01*
X41604761Y-80182380D02*
X41604761Y-79182380D01*
X41509523Y-79325238D01*
X41414285Y-79420476D01*
X41319047Y-79468095D01*
X69266666Y-64742380D02*
X69266666Y-65456666D01*
X69219047Y-65599523D01*
X69123809Y-65694761D01*
X68980952Y-65742380D01*
X68885714Y-65742380D01*
X69790476Y-65742380D02*
X69980952Y-65742380D01*
X70076190Y-65694761D01*
X70123809Y-65647142D01*
X70219047Y-65504285D01*
X70266666Y-65313809D01*
X70266666Y-64932857D01*
X70219047Y-64837619D01*
X70171428Y-64790000D01*
X70076190Y-64742380D01*
X69885714Y-64742380D01*
X69790476Y-64790000D01*
X69742857Y-64837619D01*
X69695238Y-64932857D01*
X69695238Y-65170952D01*
X69742857Y-65266190D01*
X69790476Y-65313809D01*
X69885714Y-65361428D01*
X70076190Y-65361428D01*
X70171428Y-65313809D01*
X70219047Y-65266190D01*
X70266666Y-65170952D01*
X48266666Y-36782380D02*
X48266666Y-37496666D01*
X48219047Y-37639523D01*
X48123809Y-37734761D01*
X47980952Y-37782380D01*
X47885714Y-37782380D01*
X48647619Y-36782380D02*
X49314285Y-36782380D01*
X48885714Y-37782380D01*
X38266666Y-55122380D02*
X38266666Y-55836666D01*
X38219047Y-55979523D01*
X38123809Y-56074761D01*
X37980952Y-56122380D01*
X37885714Y-56122380D01*
X39171428Y-55122380D02*
X38980952Y-55122380D01*
X38885714Y-55170000D01*
X38838095Y-55217619D01*
X38742857Y-55360476D01*
X38695238Y-55550952D01*
X38695238Y-55931904D01*
X38742857Y-56027142D01*
X38790476Y-56074761D01*
X38885714Y-56122380D01*
X39076190Y-56122380D01*
X39171428Y-56074761D01*
X39219047Y-56027142D01*
X39266666Y-55931904D01*
X39266666Y-55693809D01*
X39219047Y-55598571D01*
X39171428Y-55550952D01*
X39076190Y-55503333D01*
X38885714Y-55503333D01*
X38790476Y-55550952D01*
X38742857Y-55598571D01*
X38695238Y-55693809D01*
X67266666Y-37272380D02*
X67266666Y-37986666D01*
X67219047Y-38129523D01*
X67123809Y-38224761D01*
X66980952Y-38272380D01*
X66885714Y-38272380D01*
X68219047Y-37272380D02*
X67742857Y-37272380D01*
X67695238Y-37748571D01*
X67742857Y-37700952D01*
X67838095Y-37653333D01*
X68076190Y-37653333D01*
X68171428Y-37700952D01*
X68219047Y-37748571D01*
X68266666Y-37843809D01*
X68266666Y-38081904D01*
X68219047Y-38177142D01*
X68171428Y-38224761D01*
X68076190Y-38272380D01*
X67838095Y-38272380D01*
X67742857Y-38224761D01*
X67695238Y-38177142D01*
X67316666Y-117112380D02*
X67316666Y-117826666D01*
X67269047Y-117969523D01*
X67173809Y-118064761D01*
X67030952Y-118112380D01*
X66935714Y-118112380D01*
X68316666Y-118112380D02*
X67745238Y-118112380D01*
X68030952Y-118112380D02*
X68030952Y-117112380D01*
X67935714Y-117255238D01*
X67840476Y-117350476D01*
X67745238Y-117398095D01*
X72578571Y-103267142D02*
X73721428Y-103267142D01*
X73150000Y-103838571D02*
X73150000Y-102695714D01*
X61578571Y-103267142D02*
X62721428Y-103267142D01*
X28877619Y-80382380D02*
X28877619Y-79382380D01*
X29925238Y-80287142D02*
X29877619Y-80334761D01*
X29734761Y-80382380D01*
X29639523Y-80382380D01*
X29496666Y-80334761D01*
X29401428Y-80239523D01*
X29353809Y-80144285D01*
X29306190Y-79953809D01*
X29306190Y-79810952D01*
X29353809Y-79620476D01*
X29401428Y-79525238D01*
X29496666Y-79430000D01*
X29639523Y-79382380D01*
X29734761Y-79382380D01*
X29877619Y-79430000D01*
X29925238Y-79477619D01*
X30306190Y-80334761D02*
X30449047Y-80382380D01*
X30687142Y-80382380D01*
X30782380Y-80334761D01*
X30830000Y-80287142D01*
X30877619Y-80191904D01*
X30877619Y-80096666D01*
X30830000Y-80001428D01*
X30782380Y-79953809D01*
X30687142Y-79906190D01*
X30496666Y-79858571D01*
X30401428Y-79810952D01*
X30353809Y-79763333D01*
X30306190Y-79668095D01*
X30306190Y-79572857D01*
X30353809Y-79477619D01*
X30401428Y-79430000D01*
X30496666Y-79382380D01*
X30734761Y-79382380D01*
X30877619Y-79430000D01*
X31306190Y-80382380D02*
X31306190Y-79382380D01*
X31687142Y-79382380D01*
X31782380Y-79430000D01*
X31830000Y-79477619D01*
X31877619Y-79572857D01*
X31877619Y-79715714D01*
X31830000Y-79810952D01*
X31782380Y-79858571D01*
X31687142Y-79906190D01*
X31306190Y-79906190D01*
X32830000Y-80382380D02*
X32258571Y-80382380D01*
X32544285Y-80382380D02*
X32544285Y-79382380D01*
X32449047Y-79525238D01*
X32353809Y-79620476D01*
X32258571Y-79668095D01*
X103575714Y-97162380D02*
X103575714Y-96162380D01*
X103813809Y-96162380D01*
X103956666Y-96210000D01*
X104051904Y-96305238D01*
X104099523Y-96400476D01*
X104147142Y-96590952D01*
X104147142Y-96733809D01*
X104099523Y-96924285D01*
X104051904Y-97019523D01*
X103956666Y-97114761D01*
X103813809Y-97162380D01*
X103575714Y-97162380D01*
X105099523Y-97162380D02*
X104528095Y-97162380D01*
X104813809Y-97162380D02*
X104813809Y-96162380D01*
X104718571Y-96305238D01*
X104623333Y-96400476D01*
X104528095Y-96448095D01*
X105718571Y-96162380D02*
X105813809Y-96162380D01*
X105909047Y-96210000D01*
X105956666Y-96257619D01*
X106004285Y-96352857D01*
X106051904Y-96543333D01*
X106051904Y-96781428D01*
X106004285Y-96971904D01*
X105956666Y-97067142D01*
X105909047Y-97114761D01*
X105813809Y-97162380D01*
X105718571Y-97162380D01*
X105623333Y-97114761D01*
X105575714Y-97067142D01*
X105528095Y-96971904D01*
X105480476Y-96781428D01*
X105480476Y-96543333D01*
X105528095Y-96352857D01*
X105575714Y-96257619D01*
X105623333Y-96210000D01*
X105718571Y-96162380D01*
X100925714Y-99062380D02*
X100354285Y-99062380D01*
X100640000Y-99062380D02*
X100640000Y-98062380D01*
X100544761Y-98205238D01*
X100449523Y-98300476D01*
X100354285Y-98348095D01*
X104051904Y-89996664D02*
X104051904Y-88996664D01*
X104290000Y-88996664D01*
X104432857Y-89044284D01*
X104528095Y-89139522D01*
X104575714Y-89234760D01*
X104623333Y-89425236D01*
X104623333Y-89568093D01*
X104575714Y-89758569D01*
X104528095Y-89853807D01*
X104432857Y-89949045D01*
X104290000Y-89996664D01*
X104051904Y-89996664D01*
X105099523Y-89996664D02*
X105290000Y-89996664D01*
X105385238Y-89949045D01*
X105432857Y-89901426D01*
X105528095Y-89758569D01*
X105575714Y-89568093D01*
X105575714Y-89187141D01*
X105528095Y-89091903D01*
X105480476Y-89044284D01*
X105385238Y-88996664D01*
X105194761Y-88996664D01*
X105099523Y-89044284D01*
X105051904Y-89091903D01*
X105004285Y-89187141D01*
X105004285Y-89425236D01*
X105051904Y-89520474D01*
X105099523Y-89568093D01*
X105194761Y-89615712D01*
X105385238Y-89615712D01*
X105480476Y-89568093D01*
X105528095Y-89520474D01*
X105575714Y-89425236D01*
X100925714Y-91896664D02*
X100354285Y-91896664D01*
X100640000Y-91896664D02*
X100640000Y-90896664D01*
X100544761Y-91039522D01*
X100449523Y-91134760D01*
X100354285Y-91182379D01*
X104051904Y-82830950D02*
X104051904Y-81830950D01*
X104290000Y-81830950D01*
X104432857Y-81878570D01*
X104528095Y-81973808D01*
X104575714Y-82069046D01*
X104623333Y-82259522D01*
X104623333Y-82402379D01*
X104575714Y-82592855D01*
X104528095Y-82688093D01*
X104432857Y-82783331D01*
X104290000Y-82830950D01*
X104051904Y-82830950D01*
X105194761Y-82259522D02*
X105099523Y-82211903D01*
X105051904Y-82164284D01*
X105004285Y-82069046D01*
X105004285Y-82021427D01*
X105051904Y-81926189D01*
X105099523Y-81878570D01*
X105194761Y-81830950D01*
X105385238Y-81830950D01*
X105480476Y-81878570D01*
X105528095Y-81926189D01*
X105575714Y-82021427D01*
X105575714Y-82069046D01*
X105528095Y-82164284D01*
X105480476Y-82211903D01*
X105385238Y-82259522D01*
X105194761Y-82259522D01*
X105099523Y-82307141D01*
X105051904Y-82354760D01*
X105004285Y-82449998D01*
X105004285Y-82640474D01*
X105051904Y-82735712D01*
X105099523Y-82783331D01*
X105194761Y-82830950D01*
X105385238Y-82830950D01*
X105480476Y-82783331D01*
X105528095Y-82735712D01*
X105575714Y-82640474D01*
X105575714Y-82449998D01*
X105528095Y-82354760D01*
X105480476Y-82307141D01*
X105385238Y-82259522D01*
X100925714Y-84730950D02*
X100354285Y-84730950D01*
X100640000Y-84730950D02*
X100640000Y-83730950D01*
X100544761Y-83873808D01*
X100449523Y-83969046D01*
X100354285Y-84016665D01*
X104051904Y-75665236D02*
X104051904Y-74665236D01*
X104290000Y-74665236D01*
X104432857Y-74712856D01*
X104528095Y-74808094D01*
X104575714Y-74903332D01*
X104623333Y-75093808D01*
X104623333Y-75236665D01*
X104575714Y-75427141D01*
X104528095Y-75522379D01*
X104432857Y-75617617D01*
X104290000Y-75665236D01*
X104051904Y-75665236D01*
X104956666Y-74665236D02*
X105623333Y-74665236D01*
X105194761Y-75665236D01*
X100925714Y-77565236D02*
X100354285Y-77565236D01*
X100640000Y-77565236D02*
X100640000Y-76565236D01*
X100544761Y-76708094D01*
X100449523Y-76803332D01*
X100354285Y-76850951D01*
X104051904Y-68499522D02*
X104051904Y-67499522D01*
X104290000Y-67499522D01*
X104432857Y-67547142D01*
X104528095Y-67642380D01*
X104575714Y-67737618D01*
X104623333Y-67928094D01*
X104623333Y-68070951D01*
X104575714Y-68261427D01*
X104528095Y-68356665D01*
X104432857Y-68451903D01*
X104290000Y-68499522D01*
X104051904Y-68499522D01*
X105480476Y-67499522D02*
X105290000Y-67499522D01*
X105194761Y-67547142D01*
X105147142Y-67594761D01*
X105051904Y-67737618D01*
X105004285Y-67928094D01*
X105004285Y-68309046D01*
X105051904Y-68404284D01*
X105099523Y-68451903D01*
X105194761Y-68499522D01*
X105385238Y-68499522D01*
X105480476Y-68451903D01*
X105528095Y-68404284D01*
X105575714Y-68309046D01*
X105575714Y-68070951D01*
X105528095Y-67975713D01*
X105480476Y-67928094D01*
X105385238Y-67880475D01*
X105194761Y-67880475D01*
X105099523Y-67928094D01*
X105051904Y-67975713D01*
X105004285Y-68070951D01*
X100925714Y-70399522D02*
X100354285Y-70399522D01*
X100640000Y-70399522D02*
X100640000Y-69399522D01*
X100544761Y-69542380D01*
X100449523Y-69637618D01*
X100354285Y-69685237D01*
X104051904Y-61333808D02*
X104051904Y-60333808D01*
X104290000Y-60333808D01*
X104432857Y-60381428D01*
X104528095Y-60476666D01*
X104575714Y-60571904D01*
X104623333Y-60762380D01*
X104623333Y-60905237D01*
X104575714Y-61095713D01*
X104528095Y-61190951D01*
X104432857Y-61286189D01*
X104290000Y-61333808D01*
X104051904Y-61333808D01*
X105528095Y-60333808D02*
X105051904Y-60333808D01*
X105004285Y-60809999D01*
X105051904Y-60762380D01*
X105147142Y-60714761D01*
X105385238Y-60714761D01*
X105480476Y-60762380D01*
X105528095Y-60809999D01*
X105575714Y-60905237D01*
X105575714Y-61143332D01*
X105528095Y-61238570D01*
X105480476Y-61286189D01*
X105385238Y-61333808D01*
X105147142Y-61333808D01*
X105051904Y-61286189D01*
X105004285Y-61238570D01*
X100925714Y-63233808D02*
X100354285Y-63233808D01*
X100640000Y-63233808D02*
X100640000Y-62233808D01*
X100544761Y-62376666D01*
X100449523Y-62471904D01*
X100354285Y-62519523D01*
X104051904Y-54168094D02*
X104051904Y-53168094D01*
X104290000Y-53168094D01*
X104432857Y-53215714D01*
X104528095Y-53310952D01*
X104575714Y-53406190D01*
X104623333Y-53596666D01*
X104623333Y-53739523D01*
X104575714Y-53929999D01*
X104528095Y-54025237D01*
X104432857Y-54120475D01*
X104290000Y-54168094D01*
X104051904Y-54168094D01*
X105480476Y-53501428D02*
X105480476Y-54168094D01*
X105242380Y-53120475D02*
X105004285Y-53834761D01*
X105623333Y-53834761D01*
X100925714Y-56068094D02*
X100354285Y-56068094D01*
X100640000Y-56068094D02*
X100640000Y-55068094D01*
X100544761Y-55210952D01*
X100449523Y-55306190D01*
X100354285Y-55353809D01*
X104051904Y-47002380D02*
X104051904Y-46002380D01*
X104290000Y-46002380D01*
X104432857Y-46050000D01*
X104528095Y-46145238D01*
X104575714Y-46240476D01*
X104623333Y-46430952D01*
X104623333Y-46573809D01*
X104575714Y-46764285D01*
X104528095Y-46859523D01*
X104432857Y-46954761D01*
X104290000Y-47002380D01*
X104051904Y-47002380D01*
X104956666Y-46002380D02*
X105575714Y-46002380D01*
X105242380Y-46383333D01*
X105385238Y-46383333D01*
X105480476Y-46430952D01*
X105528095Y-46478571D01*
X105575714Y-46573809D01*
X105575714Y-46811904D01*
X105528095Y-46907142D01*
X105480476Y-46954761D01*
X105385238Y-47002380D01*
X105099523Y-47002380D01*
X105004285Y-46954761D01*
X104956666Y-46907142D01*
X100925714Y-48902380D02*
X100354285Y-48902380D01*
X100640000Y-48902380D02*
X100640000Y-47902380D01*
X100544761Y-48045238D01*
X100449523Y-48140476D01*
X100354285Y-48188095D01*
X68261904Y-99862380D02*
X68261904Y-98862380D01*
X68500000Y-98862380D01*
X68642857Y-98910000D01*
X68738095Y-99005238D01*
X68785714Y-99100476D01*
X68833333Y-99290952D01*
X68833333Y-99433809D01*
X68785714Y-99624285D01*
X68738095Y-99719523D01*
X68642857Y-99814761D01*
X68500000Y-99862380D01*
X68261904Y-99862380D01*
X69214285Y-98957619D02*
X69261904Y-98910000D01*
X69357142Y-98862380D01*
X69595238Y-98862380D01*
X69690476Y-98910000D01*
X69738095Y-98957619D01*
X69785714Y-99052857D01*
X69785714Y-99148095D01*
X69738095Y-99290952D01*
X69166666Y-99862380D01*
X69785714Y-99862380D01*
X54361904Y-62932380D02*
X54361904Y-61932380D01*
X54600000Y-61932380D01*
X54742857Y-61980000D01*
X54838095Y-62075238D01*
X54885714Y-62170476D01*
X54933333Y-62360952D01*
X54933333Y-62503809D01*
X54885714Y-62694285D01*
X54838095Y-62789523D01*
X54742857Y-62884761D01*
X54600000Y-62932380D01*
X54361904Y-62932380D01*
X55885714Y-62932380D02*
X55314285Y-62932380D01*
X55600000Y-62932380D02*
X55600000Y-61932380D01*
X55504761Y-62075238D01*
X55409523Y-62170476D01*
X55314285Y-62218095D01*
X94433333Y-93117142D02*
X94385714Y-93164761D01*
X94242857Y-93212380D01*
X94147619Y-93212380D01*
X94004761Y-93164761D01*
X93909523Y-93069523D01*
X93861904Y-92974285D01*
X93814285Y-92783809D01*
X93814285Y-92640952D01*
X93861904Y-92450476D01*
X93909523Y-92355238D01*
X94004761Y-92260000D01*
X94147619Y-92212380D01*
X94242857Y-92212380D01*
X94385714Y-92260000D01*
X94433333Y-92307619D01*
X94861904Y-93212380D02*
X94861904Y-92212380D01*
X95242857Y-92212380D01*
X95338095Y-92260000D01*
X95385714Y-92307619D01*
X95433333Y-92402857D01*
X95433333Y-92545714D01*
X95385714Y-92640952D01*
X95338095Y-92688571D01*
X95242857Y-92736190D01*
X94861904Y-92736190D01*
X96338095Y-92212380D02*
X95861904Y-92212380D01*
X95814285Y-92688571D01*
X95861904Y-92640952D01*
X95957142Y-92593333D01*
X96195238Y-92593333D01*
X96290476Y-92640952D01*
X96338095Y-92688571D01*
X96385714Y-92783809D01*
X96385714Y-93021904D01*
X96338095Y-93117142D01*
X96290476Y-93164761D01*
X96195238Y-93212380D01*
X95957142Y-93212380D01*
X95861904Y-93164761D01*
X95814285Y-93117142D01*
X82333333Y-92917142D02*
X82285714Y-92964761D01*
X82142857Y-93012380D01*
X82047619Y-93012380D01*
X81904761Y-92964761D01*
X81809523Y-92869523D01*
X81761904Y-92774285D01*
X81714285Y-92583809D01*
X81714285Y-92440952D01*
X81761904Y-92250476D01*
X81809523Y-92155238D01*
X81904761Y-92060000D01*
X82047619Y-92012380D01*
X82142857Y-92012380D01*
X82285714Y-92060000D01*
X82333333Y-92107619D01*
X82761904Y-93012380D02*
X82761904Y-92012380D01*
X83142857Y-92012380D01*
X83238095Y-92060000D01*
X83285714Y-92107619D01*
X83333333Y-92202857D01*
X83333333Y-92345714D01*
X83285714Y-92440952D01*
X83238095Y-92488571D01*
X83142857Y-92536190D01*
X82761904Y-92536190D01*
X84190476Y-92345714D02*
X84190476Y-93012380D01*
X83952380Y-91964761D02*
X83714285Y-92679047D01*
X84333333Y-92679047D01*
X111977142Y-95182857D02*
X112024761Y-95230476D01*
X112072380Y-95373333D01*
X112072380Y-95468571D01*
X112024761Y-95611428D01*
X111929523Y-95706666D01*
X111834285Y-95754285D01*
X111643809Y-95801904D01*
X111500952Y-95801904D01*
X111310476Y-95754285D01*
X111215238Y-95706666D01*
X111120000Y-95611428D01*
X111072380Y-95468571D01*
X111072380Y-95373333D01*
X111120000Y-95230476D01*
X111167619Y-95182857D01*
X111167619Y-94801904D02*
X111120000Y-94754285D01*
X111072380Y-94659047D01*
X111072380Y-94420952D01*
X111120000Y-94325714D01*
X111167619Y-94278095D01*
X111262857Y-94230476D01*
X111358095Y-94230476D01*
X111500952Y-94278095D01*
X112072380Y-94849523D01*
X112072380Y-94230476D01*
X111405714Y-93373333D02*
X112072380Y-93373333D01*
X111024761Y-93611428D02*
X111739047Y-93849523D01*
X111739047Y-93230476D01*
X111977142Y-89511425D02*
X112024761Y-89559044D01*
X112072380Y-89701901D01*
X112072380Y-89797139D01*
X112024761Y-89939996D01*
X111929523Y-90035234D01*
X111834285Y-90082853D01*
X111643809Y-90130472D01*
X111500952Y-90130472D01*
X111310476Y-90082853D01*
X111215238Y-90035234D01*
X111120000Y-89939996D01*
X111072380Y-89797139D01*
X111072380Y-89701901D01*
X111120000Y-89559044D01*
X111167619Y-89511425D01*
X111167619Y-89130472D02*
X111120000Y-89082853D01*
X111072380Y-88987615D01*
X111072380Y-88749520D01*
X111120000Y-88654282D01*
X111167619Y-88606663D01*
X111262857Y-88559044D01*
X111358095Y-88559044D01*
X111500952Y-88606663D01*
X112072380Y-89178091D01*
X112072380Y-88559044D01*
X111072380Y-88225710D02*
X111072380Y-87606663D01*
X111453333Y-87939996D01*
X111453333Y-87797139D01*
X111500952Y-87701901D01*
X111548571Y-87654282D01*
X111643809Y-87606663D01*
X111881904Y-87606663D01*
X111977142Y-87654282D01*
X112024761Y-87701901D01*
X112072380Y-87797139D01*
X112072380Y-88082853D01*
X112024761Y-88178091D01*
X111977142Y-88225710D01*
X111977142Y-83839997D02*
X112024761Y-83887616D01*
X112072380Y-84030473D01*
X112072380Y-84125711D01*
X112024761Y-84268568D01*
X111929523Y-84363806D01*
X111834285Y-84411425D01*
X111643809Y-84459044D01*
X111500952Y-84459044D01*
X111310476Y-84411425D01*
X111215238Y-84363806D01*
X111120000Y-84268568D01*
X111072380Y-84125711D01*
X111072380Y-84030473D01*
X111120000Y-83887616D01*
X111167619Y-83839997D01*
X111167619Y-83459044D02*
X111120000Y-83411425D01*
X111072380Y-83316187D01*
X111072380Y-83078092D01*
X111120000Y-82982854D01*
X111167619Y-82935235D01*
X111262857Y-82887616D01*
X111358095Y-82887616D01*
X111500952Y-82935235D01*
X112072380Y-83506663D01*
X112072380Y-82887616D01*
X111167619Y-82506663D02*
X111120000Y-82459044D01*
X111072380Y-82363806D01*
X111072380Y-82125711D01*
X111120000Y-82030473D01*
X111167619Y-81982854D01*
X111262857Y-81935235D01*
X111358095Y-81935235D01*
X111500952Y-81982854D01*
X112072380Y-82554282D01*
X112072380Y-81935235D01*
X111977142Y-78168569D02*
X112024761Y-78216188D01*
X112072380Y-78359045D01*
X112072380Y-78454283D01*
X112024761Y-78597140D01*
X111929523Y-78692378D01*
X111834285Y-78739997D01*
X111643809Y-78787616D01*
X111500952Y-78787616D01*
X111310476Y-78739997D01*
X111215238Y-78692378D01*
X111120000Y-78597140D01*
X111072380Y-78454283D01*
X111072380Y-78359045D01*
X111120000Y-78216188D01*
X111167619Y-78168569D01*
X111167619Y-77787616D02*
X111120000Y-77739997D01*
X111072380Y-77644759D01*
X111072380Y-77406664D01*
X111120000Y-77311426D01*
X111167619Y-77263807D01*
X111262857Y-77216188D01*
X111358095Y-77216188D01*
X111500952Y-77263807D01*
X112072380Y-77835235D01*
X112072380Y-77216188D01*
X112072380Y-76263807D02*
X112072380Y-76835235D01*
X112072380Y-76549521D02*
X111072380Y-76549521D01*
X111215238Y-76644759D01*
X111310476Y-76739997D01*
X111358095Y-76835235D01*
X111977142Y-72497141D02*
X112024761Y-72544760D01*
X112072380Y-72687617D01*
X112072380Y-72782855D01*
X112024761Y-72925712D01*
X111929523Y-73020950D01*
X111834285Y-73068569D01*
X111643809Y-73116188D01*
X111500952Y-73116188D01*
X111310476Y-73068569D01*
X111215238Y-73020950D01*
X111120000Y-72925712D01*
X111072380Y-72782855D01*
X111072380Y-72687617D01*
X111120000Y-72544760D01*
X111167619Y-72497141D01*
X111167619Y-72116188D02*
X111120000Y-72068569D01*
X111072380Y-71973331D01*
X111072380Y-71735236D01*
X111120000Y-71639998D01*
X111167619Y-71592379D01*
X111262857Y-71544760D01*
X111358095Y-71544760D01*
X111500952Y-71592379D01*
X112072380Y-72163807D01*
X112072380Y-71544760D01*
X111072380Y-70925712D02*
X111072380Y-70830474D01*
X111120000Y-70735236D01*
X111167619Y-70687617D01*
X111262857Y-70639998D01*
X111453333Y-70592379D01*
X111691428Y-70592379D01*
X111881904Y-70639998D01*
X111977142Y-70687617D01*
X112024761Y-70735236D01*
X112072380Y-70830474D01*
X112072380Y-70925712D01*
X112024761Y-71020950D01*
X111977142Y-71068569D01*
X111881904Y-71116188D01*
X111691428Y-71163807D01*
X111453333Y-71163807D01*
X111262857Y-71116188D01*
X111167619Y-71068569D01*
X111120000Y-71020950D01*
X111072380Y-70925712D01*
X111977142Y-66825713D02*
X112024761Y-66873332D01*
X112072380Y-67016189D01*
X112072380Y-67111427D01*
X112024761Y-67254284D01*
X111929523Y-67349522D01*
X111834285Y-67397141D01*
X111643809Y-67444760D01*
X111500952Y-67444760D01*
X111310476Y-67397141D01*
X111215238Y-67349522D01*
X111120000Y-67254284D01*
X111072380Y-67111427D01*
X111072380Y-67016189D01*
X111120000Y-66873332D01*
X111167619Y-66825713D01*
X112072380Y-65873332D02*
X112072380Y-66444760D01*
X112072380Y-66159046D02*
X111072380Y-66159046D01*
X111215238Y-66254284D01*
X111310476Y-66349522D01*
X111358095Y-66444760D01*
X112072380Y-65397141D02*
X112072380Y-65206665D01*
X112024761Y-65111427D01*
X111977142Y-65063808D01*
X111834285Y-64968570D01*
X111643809Y-64920951D01*
X111262857Y-64920951D01*
X111167619Y-64968570D01*
X111120000Y-65016189D01*
X111072380Y-65111427D01*
X111072380Y-65301903D01*
X111120000Y-65397141D01*
X111167619Y-65444760D01*
X111262857Y-65492379D01*
X111500952Y-65492379D01*
X111596190Y-65444760D01*
X111643809Y-65397141D01*
X111691428Y-65301903D01*
X111691428Y-65111427D01*
X111643809Y-65016189D01*
X111596190Y-64968570D01*
X111500952Y-64920951D01*
X111977142Y-61154285D02*
X112024761Y-61201904D01*
X112072380Y-61344761D01*
X112072380Y-61439999D01*
X112024761Y-61582856D01*
X111929523Y-61678094D01*
X111834285Y-61725713D01*
X111643809Y-61773332D01*
X111500952Y-61773332D01*
X111310476Y-61725713D01*
X111215238Y-61678094D01*
X111120000Y-61582856D01*
X111072380Y-61439999D01*
X111072380Y-61344761D01*
X111120000Y-61201904D01*
X111167619Y-61154285D01*
X112072380Y-60201904D02*
X112072380Y-60773332D01*
X112072380Y-60487618D02*
X111072380Y-60487618D01*
X111215238Y-60582856D01*
X111310476Y-60678094D01*
X111358095Y-60773332D01*
X111500952Y-59630475D02*
X111453333Y-59725713D01*
X111405714Y-59773332D01*
X111310476Y-59820951D01*
X111262857Y-59820951D01*
X111167619Y-59773332D01*
X111120000Y-59725713D01*
X111072380Y-59630475D01*
X111072380Y-59439999D01*
X111120000Y-59344761D01*
X111167619Y-59297142D01*
X111262857Y-59249523D01*
X111310476Y-59249523D01*
X111405714Y-59297142D01*
X111453333Y-59344761D01*
X111500952Y-59439999D01*
X111500952Y-59630475D01*
X111548571Y-59725713D01*
X111596190Y-59773332D01*
X111691428Y-59820951D01*
X111881904Y-59820951D01*
X111977142Y-59773332D01*
X112024761Y-59725713D01*
X112072380Y-59630475D01*
X112072380Y-59439999D01*
X112024761Y-59344761D01*
X111977142Y-59297142D01*
X111881904Y-59249523D01*
X111691428Y-59249523D01*
X111596190Y-59297142D01*
X111548571Y-59344761D01*
X111500952Y-59439999D01*
X111977142Y-55482857D02*
X112024761Y-55530476D01*
X112072380Y-55673333D01*
X112072380Y-55768571D01*
X112024761Y-55911428D01*
X111929523Y-56006666D01*
X111834285Y-56054285D01*
X111643809Y-56101904D01*
X111500952Y-56101904D01*
X111310476Y-56054285D01*
X111215238Y-56006666D01*
X111120000Y-55911428D01*
X111072380Y-55768571D01*
X111072380Y-55673333D01*
X111120000Y-55530476D01*
X111167619Y-55482857D01*
X112072380Y-54530476D02*
X112072380Y-55101904D01*
X112072380Y-54816190D02*
X111072380Y-54816190D01*
X111215238Y-54911428D01*
X111310476Y-55006666D01*
X111358095Y-55101904D01*
X111072380Y-54197142D02*
X111072380Y-53530476D01*
X112072380Y-53959047D01*
X73682142Y-84027142D02*
X73634523Y-84074761D01*
X73491666Y-84122380D01*
X73396428Y-84122380D01*
X73253571Y-84074761D01*
X73158333Y-83979523D01*
X73110714Y-83884285D01*
X73063095Y-83693809D01*
X73063095Y-83550952D01*
X73110714Y-83360476D01*
X73158333Y-83265238D01*
X73253571Y-83170000D01*
X73396428Y-83122380D01*
X73491666Y-83122380D01*
X73634523Y-83170000D01*
X73682142Y-83217619D01*
X74634523Y-84122380D02*
X74063095Y-84122380D01*
X74348809Y-84122380D02*
X74348809Y-83122380D01*
X74253571Y-83265238D01*
X74158333Y-83360476D01*
X74063095Y-83408095D01*
X75491666Y-83122380D02*
X75301190Y-83122380D01*
X75205952Y-83170000D01*
X75158333Y-83217619D01*
X75063095Y-83360476D01*
X75015476Y-83550952D01*
X75015476Y-83931904D01*
X75063095Y-84027142D01*
X75110714Y-84074761D01*
X75205952Y-84122380D01*
X75396428Y-84122380D01*
X75491666Y-84074761D01*
X75539285Y-84027142D01*
X75586904Y-83931904D01*
X75586904Y-83693809D01*
X75539285Y-83598571D01*
X75491666Y-83550952D01*
X75396428Y-83503333D01*
X75205952Y-83503333D01*
X75110714Y-83550952D01*
X75063095Y-83598571D01*
X75015476Y-83693809D01*
X82117142Y-61207142D02*
X82069523Y-61254761D01*
X81926666Y-61302380D01*
X81831428Y-61302380D01*
X81688571Y-61254761D01*
X81593333Y-61159523D01*
X81545714Y-61064285D01*
X81498095Y-60873809D01*
X81498095Y-60730952D01*
X81545714Y-60540476D01*
X81593333Y-60445238D01*
X81688571Y-60350000D01*
X81831428Y-60302380D01*
X81926666Y-60302380D01*
X82069523Y-60350000D01*
X82117142Y-60397619D01*
X83069523Y-61302380D02*
X82498095Y-61302380D01*
X82783809Y-61302380D02*
X82783809Y-60302380D01*
X82688571Y-60445238D01*
X82593333Y-60540476D01*
X82498095Y-60588095D01*
X83974285Y-60302380D02*
X83498095Y-60302380D01*
X83450476Y-60778571D01*
X83498095Y-60730952D01*
X83593333Y-60683333D01*
X83831428Y-60683333D01*
X83926666Y-60730952D01*
X83974285Y-60778571D01*
X84021904Y-60873809D01*
X84021904Y-61111904D01*
X83974285Y-61207142D01*
X83926666Y-61254761D01*
X83831428Y-61302380D01*
X83593333Y-61302380D01*
X83498095Y-61254761D01*
X83450476Y-61207142D01*
X81957142Y-101737142D02*
X81909523Y-101784761D01*
X81766666Y-101832380D01*
X81671428Y-101832380D01*
X81528571Y-101784761D01*
X81433333Y-101689523D01*
X81385714Y-101594285D01*
X81338095Y-101403809D01*
X81338095Y-101260952D01*
X81385714Y-101070476D01*
X81433333Y-100975238D01*
X81528571Y-100880000D01*
X81671428Y-100832380D01*
X81766666Y-100832380D01*
X81909523Y-100880000D01*
X81957142Y-100927619D01*
X82909523Y-101832380D02*
X82338095Y-101832380D01*
X82623809Y-101832380D02*
X82623809Y-100832380D01*
X82528571Y-100975238D01*
X82433333Y-101070476D01*
X82338095Y-101118095D01*
X83766666Y-101165714D02*
X83766666Y-101832380D01*
X83528571Y-100784761D02*
X83290476Y-101499047D01*
X83909523Y-101499047D01*
X45497142Y-65222857D02*
X45544761Y-65270476D01*
X45592380Y-65413333D01*
X45592380Y-65508571D01*
X45544761Y-65651428D01*
X45449523Y-65746666D01*
X45354285Y-65794285D01*
X45163809Y-65841904D01*
X45020952Y-65841904D01*
X44830476Y-65794285D01*
X44735238Y-65746666D01*
X44640000Y-65651428D01*
X44592380Y-65508571D01*
X44592380Y-65413333D01*
X44640000Y-65270476D01*
X44687619Y-65222857D01*
X45592380Y-64270476D02*
X45592380Y-64841904D01*
X45592380Y-64556190D02*
X44592380Y-64556190D01*
X44735238Y-64651428D01*
X44830476Y-64746666D01*
X44878095Y-64841904D01*
X44592380Y-63937142D02*
X44592380Y-63318095D01*
X44973333Y-63651428D01*
X44973333Y-63508571D01*
X45020952Y-63413333D01*
X45068571Y-63365714D01*
X45163809Y-63318095D01*
X45401904Y-63318095D01*
X45497142Y-63365714D01*
X45544761Y-63413333D01*
X45592380Y-63508571D01*
X45592380Y-63794285D01*
X45544761Y-63889523D01*
X45497142Y-63937142D01*
X60257142Y-64027142D02*
X60209523Y-64074761D01*
X60066666Y-64122380D01*
X59971428Y-64122380D01*
X59828571Y-64074761D01*
X59733333Y-63979523D01*
X59685714Y-63884285D01*
X59638095Y-63693809D01*
X59638095Y-63550952D01*
X59685714Y-63360476D01*
X59733333Y-63265238D01*
X59828571Y-63170000D01*
X59971428Y-63122380D01*
X60066666Y-63122380D01*
X60209523Y-63170000D01*
X60257142Y-63217619D01*
X61209523Y-64122380D02*
X60638095Y-64122380D01*
X60923809Y-64122380D02*
X60923809Y-63122380D01*
X60828571Y-63265238D01*
X60733333Y-63360476D01*
X60638095Y-63408095D01*
X61590476Y-63217619D02*
X61638095Y-63170000D01*
X61733333Y-63122380D01*
X61971428Y-63122380D01*
X62066666Y-63170000D01*
X62114285Y-63217619D01*
X62161904Y-63312857D01*
X62161904Y-63408095D01*
X62114285Y-63550952D01*
X61542857Y-64122380D01*
X62161904Y-64122380D01*
X66957142Y-36587142D02*
X66909523Y-36634761D01*
X66766666Y-36682380D01*
X66671428Y-36682380D01*
X66528571Y-36634761D01*
X66433333Y-36539523D01*
X66385714Y-36444285D01*
X66338095Y-36253809D01*
X66338095Y-36110952D01*
X66385714Y-35920476D01*
X66433333Y-35825238D01*
X66528571Y-35730000D01*
X66671428Y-35682380D01*
X66766666Y-35682380D01*
X66909523Y-35730000D01*
X66957142Y-35777619D01*
X67909523Y-36682380D02*
X67338095Y-36682380D01*
X67623809Y-36682380D02*
X67623809Y-35682380D01*
X67528571Y-35825238D01*
X67433333Y-35920476D01*
X67338095Y-35968095D01*
X68861904Y-36682380D02*
X68290476Y-36682380D01*
X68576190Y-36682380D02*
X68576190Y-35682380D01*
X68480952Y-35825238D01*
X68385714Y-35920476D01*
X68290476Y-35968095D01*
X50627142Y-51842857D02*
X50674761Y-51890476D01*
X50722380Y-52033333D01*
X50722380Y-52128571D01*
X50674761Y-52271428D01*
X50579523Y-52366666D01*
X50484285Y-52414285D01*
X50293809Y-52461904D01*
X50150952Y-52461904D01*
X49960476Y-52414285D01*
X49865238Y-52366666D01*
X49770000Y-52271428D01*
X49722380Y-52128571D01*
X49722380Y-52033333D01*
X49770000Y-51890476D01*
X49817619Y-51842857D01*
X50722380Y-50890476D02*
X50722380Y-51461904D01*
X50722380Y-51176190D02*
X49722380Y-51176190D01*
X49865238Y-51271428D01*
X49960476Y-51366666D01*
X50008095Y-51461904D01*
X49722380Y-50271428D02*
X49722380Y-50176190D01*
X49770000Y-50080952D01*
X49817619Y-50033333D01*
X49912857Y-49985714D01*
X50103333Y-49938095D01*
X50341428Y-49938095D01*
X50531904Y-49985714D01*
X50627142Y-50033333D01*
X50674761Y-50080952D01*
X50722380Y-50176190D01*
X50722380Y-50271428D01*
X50674761Y-50366666D01*
X50627142Y-50414285D01*
X50531904Y-50461904D01*
X50341428Y-50509523D01*
X50103333Y-50509523D01*
X49912857Y-50461904D01*
X49817619Y-50414285D01*
X49770000Y-50366666D01*
X49722380Y-50271428D01*
M02*
